<svg width="188" height="128" viewBox="0 0 188 128" fill="none" xmlns="http://www.w3.org/2000/svg">
<path d="M126.466 41.1359C113.121 41.1359 99.584 40.6097 86.8925 37.0701C74.2009 33.5305 63.0719 26.9137 52.8198 19.1648C46.1551 14.1105 40.0645 10.1085 31.4227 10.7144C22.9519 11.1613 14.8506 14.3258 8.31963 19.7388C-2.69779 29.3053 -1.02366 47.2106 3.37693 59.7587C9.99376 78.6525 30.1472 91.7746 47.335 100.337C67.1217 110.222 88.7898 115.962 110.649 119.262C129.782 122.164 154.289 124.269 170.839 111.8C186.049 100.337 190.227 74.1722 186.496 56.4901C185.552 51.2872 182.747 46.6057 178.603 43.3203C167.937 35.5236 151.993 40.7373 140.003 40.9924C135.538 41.0084 131.01 41.12 126.466 41.1359Z" fill="#F2F2F2"/>
<path d="M164.238 111.944V118.784" stroke="#7DA851" stroke-width="1.59442" stroke-linecap="round" stroke-linejoin="round"/>
<path d="M160.81 115.356H167.65" stroke="#7DA851" stroke-width="1.59442" stroke-linecap="round" stroke-linejoin="round"/>
<path d="M44.8955 18.6228V25.4788" stroke="#7DA851" stroke-width="1.59442" stroke-linecap="round" stroke-linejoin="round"/>
<path d="M41.4835 22.0507H48.3236" stroke="#7DA851" stroke-width="1.59442" stroke-linecap="round" stroke-linejoin="round"/>
<path d="M159.678 19.2446C160.54 19.2446 161.24 18.545 161.24 17.682C161.24 16.8191 160.54 16.1195 159.678 16.1195C158.815 16.1195 158.115 16.8191 158.115 17.682C158.115 18.545 158.815 19.2446 159.678 19.2446Z" fill="#7DA851"/>
<path d="M50.2209 69.1977C51.0838 69.1977 51.7834 68.4981 51.7834 67.6352C51.7834 66.7722 51.0838 66.0726 50.2209 66.0726C49.3579 66.0726 48.6583 66.7722 48.6583 67.6352C48.6583 68.4981 49.3579 69.1977 50.2209 69.1977Z" fill="#7DA851"/>
<path d="M126.482 113.22L98.1171 96.1912C97.1526 95.617 96.0508 95.3139 94.9283 95.3139C93.8058 95.3139 92.704 95.617 91.7395 96.1912L64.0285 113.092C63.0858 113.667 62.007 113.98 60.9031 114C59.7992 114.02 58.7099 113.745 57.7472 113.204C56.7845 112.664 55.9831 111.877 55.4253 110.924C54.8676 109.971 54.5736 108.887 54.5736 107.783V6.21822C54.5736 4.56905 55.2287 2.98742 56.3949 1.82127C57.561 0.655128 59.1427 0 60.7918 0H129.75C131.398 0.00420917 132.977 0.660692 134.143 1.82592C135.308 2.99116 135.964 4.57034 135.969 6.21822V107.878C135.978 108.99 135.689 110.084 135.132 111.046C134.575 112.008 133.77 112.803 132.801 113.348C131.833 113.894 130.735 114.169 129.624 114.147C128.513 114.124 127.427 113.804 126.482 113.22Z" fill="#7DA851" fill-opacity="0.4"/>
<path d="M138.583 125.624L108.975 107.846C107.96 107.233 106.797 106.909 105.611 106.909C104.425 106.909 103.262 107.233 102.247 107.846L73.324 125.512C72.3383 126.112 71.2109 126.438 70.0574 126.459C68.9039 126.479 67.7658 126.192 66.7598 125.627C65.7537 125.062 64.916 124.24 64.3324 123.245C63.7488 122.25 63.4403 121.118 63.4386 119.964V13.9192C63.4428 12.1967 64.1301 10.5461 65.3496 9.32962C66.5691 8.1131 68.2213 7.42993 69.9438 7.42993H141.932C143.653 7.42993 145.303 8.11362 146.52 9.33059C147.737 10.5476 148.421 12.1981 148.421 13.9192V120.06C148.422 121.209 148.118 122.339 147.539 123.332C146.96 124.326 146.127 125.148 145.127 125.714C144.126 126.28 142.993 126.57 141.843 126.554C140.693 126.538 139.568 126.217 138.583 125.624Z" fill="white" stroke="#7DA851" stroke-opacity="0.3" stroke-width="1.59442" stroke-linecap="round" stroke-linejoin="round"/>
</svg>
