<svg width="24" height="32" viewBox="0 0 24 32" fill="none" xmlns="http://www.w3.org/2000/svg">
<g clip-path="url(#clip0_4907_5982)">
<path d="M8.7168 12.698C9.207 13.0668 11.0458 13.2718 11.7256 13.2512C11.891 13.2462 11.9967 13.1789 12.0631 13.0806C12.1296 13.1789 12.2352 13.2462 12.4005 13.2512C13.0805 13.2718 14.919 13.0668 15.4096 12.698C15.8999 12.3292 15.4913 11.6119 15.5731 11.2431C15.6548 10.8741 16.6557 9.64465 17.5547 9.60374C18.4535 9.56282 20.0676 10.2185 20.517 11.7144C20.9664 13.2104 20.8438 14.7472 19.6998 15.3824C18.5558 16.0177 17.473 15.6693 17.2686 15.3824C17.0643 15.0956 16.2063 15.116 15.8794 15.5465C15.5524 15.9768 14.4084 16.735 14.4084 17.1858C14.4084 17.2087 14.4087 17.2319 14.4089 17.2552C14.1724 17.1427 13.8871 17.096 13.7472 17.4129C13.4844 18.0083 12.9911 19.7178 13.1226 20.2931C13.2539 20.8684 14.0959 20.6926 14.2807 20.9915C15.5165 22.991 14.2595 24.6122 12.9848 25.0758C12.9693 24.766 12.8452 22.2546 12.8639 21.8032C12.8841 21.3192 12.9877 17.4996 12.9889 17.4611C12.9909 17.3896 13.0163 17.3234 13.0621 17.2696C13.9827 16.1896 14.5855 15.4873 14.6266 15.4439C14.6712 15.4139 14.8697 15.3628 15.0012 15.3294C15.1266 15.2971 15.2564 15.2638 15.3511 15.2293C15.4823 15.1814 15.9029 14.8697 16.8588 14.1429C17.2965 13.81 17.749 13.4657 17.8717 13.3921C18.1879 13.2016 19.5387 12.4691 19.6561 12.4242L19.6058 12.2683L19.5669 12.109C19.4372 12.1409 17.8948 12.9957 17.7033 13.1109C17.5655 13.1937 17.1465 13.5125 16.6613 13.8816C16.1436 14.2752 15.3612 14.8701 15.2392 14.9212C15.1597 14.9502 15.038 14.9814 14.9201 15.0114C14.6421 15.0829 14.481 15.1269 14.4032 15.2053C14.3387 15.2698 13.5033 16.2476 12.8137 17.0563C12.7198 17.1663 12.666 17.3066 12.6619 17.4521C12.6609 17.4906 12.5573 21.308 12.5372 21.7896C12.5166 22.2833 12.654 25.0087 12.6597 25.1245L12.8702 25.1138C12.603 25.1963 12.3384 25.2278 12.0992 25.1991C11.8731 25.1718 11.6521 25.1297 11.4386 25.0756H11.4544C11.458 23.8939 11.4807 20.7525 11.5403 20.4108C11.605 20.0399 11.5663 18.284 11.5466 17.5461C11.5431 17.4188 11.5025 17.2965 11.4285 17.1922C10.553 15.9617 10.0001 15.3005 9.7852 15.2272C9.71419 15.2031 9.64171 15.1813 9.56584 15.158C9.32196 15.0841 9.04578 15.0005 8.65125 14.7873C8.44051 14.6735 7.75936 14.2091 7.03827 13.7178C5.62038 12.7511 4.74354 12.1606 4.52563 12.1087L4.44964 12.4276C4.64084 12.4798 5.97303 13.3878 6.8546 13.9887C7.61453 14.5067 8.27068 14.9541 8.49659 15.076C8.91978 15.3046 9.22533 15.3973 9.47115 15.4717C9.5435 15.4936 9.61234 15.5147 9.67728 15.5365C9.79977 15.5922 10.3167 16.1936 11.1623 17.3822C11.1982 17.433 11.2183 17.4925 11.2196 17.5545C11.2509 18.725 11.267 20.075 11.2182 20.354C11.1466 20.7632 11.13 24.3578 11.1277 24.9857C10.1561 24.664 9.41531 24.0348 9.3256 23.0788C9.20785 21.8221 9.89057 20.9937 10.2045 20.9216C10.5184 20.8494 10.8114 20.0804 10.5694 19.6267C10.3276 19.173 10.1068 17.8694 9.7296 17.698C9.70957 17.6889 9.68942 17.6798 9.66903 17.6709C9.712 17.5211 9.71795 17.3506 9.71795 17.1857C9.71795 16.7348 8.57392 15.9767 8.24712 15.5463C7.92021 15.116 7.06219 15.0956 6.85776 15.3823C6.65357 15.6692 5.57085 16.0176 4.4267 15.3823C3.28255 14.7471 3.16006 13.2103 3.60946 11.7143C4.05887 10.2184 5.67294 9.56258 6.57175 9.60362C7.47068 9.64453 8.47171 10.8741 8.55353 11.2429C8.63523 11.6118 8.22661 12.3291 8.71692 12.6979L8.7168 12.698Z" fill="white"/>
<path d="M20.3638 18.5505C21.4721 18.2184 21.2145 16.9806 21.0975 16.5767L20.0656 17.6271C20.2013 17.6469 20.2964 17.6778 20.3208 17.7186C20.3629 17.7887 20.376 18.1198 20.3638 18.5506V18.5505Z" fill="#00A650"/>
<path d="M21.3831 19.9318C21.8548 19.1038 21.9859 17.9696 21.9952 15.9146L21.7094 16.0585C21.7757 16.8686 21.6998 17.5049 21.4648 18.2646C21.3126 18.7562 20.7408 19.0585 20.3288 19.2173C20.2769 19.9213 20.1758 20.6738 20.0348 20.9974C19.7487 21.6532 20.8928 20.7924 21.383 19.9318H21.3831Z" fill="#00A650"/>
<path d="M23.4261 14.358C23.3854 13.7841 23.0846 12.9971 22.8877 13.6365C22.7709 14.0155 22.5949 14.7216 22.4787 15.6706C22.3988 16.3235 22.3471 17.0901 22.364 17.9485C22.4046 20.0546 22.0152 20.4558 20.7594 21.5051C19.5036 22.5547 19.1769 22.8416 19.1769 22.8416C19.1769 22.8416 19.9541 19.752 19.872 19.0017C19.8287 18.607 19.7186 18.2915 19.5498 18.1524C19.3978 18.0274 19.1981 18.0449 18.9548 18.2825C18.4414 18.784 18.0441 21.9809 17.5891 22.8825C17.134 23.7841 16.6805 24.7457 16.6805 24.7457C16.6805 24.7457 15.7775 26.7453 16.6805 27.2729C17.5834 27.8006 17.7658 27.8415 19.6562 25.6284C21.5467 23.4153 23.3038 22.0218 23.4263 20.0956C23.549 18.1693 23.4673 14.9317 23.4263 14.3579L23.4261 14.358Z" fill="#00A650"/>
<path d="M3.63644 18.5506C3.62418 18.1198 3.63729 17.7888 3.67941 17.7186C3.70381 17.6778 3.79899 17.6469 3.93458 17.6271L2.90272 16.5767C2.7857 16.9806 2.5281 18.2184 3.63644 18.5505V18.5506Z" fill="white"/>
<path d="M3.9653 20.9973C3.82423 20.6738 3.72299 19.9214 3.6714 19.2172C3.25938 19.0586 2.68749 18.7562 2.53538 18.2645C2.30024 17.5048 2.22437 16.8685 2.29065 16.0584L2.005 15.4917C2.01435 17.5468 2.14534 19.1036 2.61708 19.9317C3.1074 20.7924 4.25142 21.653 3.9653 20.9973Z" fill="white"/>
<path d="M7.3198 27.2729C8.22273 26.7453 7.3198 24.7457 7.3198 24.7457C7.3198 24.7457 6.86626 23.784 6.41115 22.8825C5.95604 21.9809 5.55884 18.784 5.04546 18.2825C4.80218 18.0449 4.60249 18.0274 4.4505 18.1524C4.28152 18.2915 4.17153 18.607 4.12819 19.0017C4.04589 19.752 4.8233 22.8416 4.8233 22.8416C4.8233 22.8416 4.49651 22.5547 3.24079 21.5051C1.98508 20.4558 1.59553 20.0546 1.63631 17.9485C1.65307 17.0901 1.60123 16.3235 1.52147 15.6706C1.4053 14.7216 1.22928 14.0153 1.11249 13.6365C0.91559 12.9971 0.614894 13.7841 0.573984 14.358C0.533074 14.9319 0.451375 18.1695 0.573984 20.0958C0.696472 22.022 2.45355 23.4154 4.34391 25.6285C6.23452 27.8416 6.41674 27.8006 7.31968 27.2731L7.3198 27.2729Z" fill="#00A650"/>
<path d="M5.96561 6.96709C5.96561 6.96709 6.10182 6.93982 6.26522 6.76228C6.42874 6.58475 7.64087 4.48078 7.85877 4.03001C8.07668 3.57936 8.33537 3.66118 8.33537 3.66118L8.38988 3.85235C8.44426 4.49442 7.73604 5.46452 7.38205 5.80594C7.02794 6.14749 7.38205 6.40697 7.38205 6.40697C7.38205 6.40697 7.55905 6.31127 8.02205 5.71011C8.48517 5.10908 8.64869 4.02988 8.64869 4.02988L8.82569 3.81132H9.0987C9.11097 3.842 9.1282 3.8817 9.1526 3.9343C9.3296 4.31676 8.88019 5.23207 8.6351 5.64193C8.39 6.05166 8.6351 6.06542 8.6351 6.06542C9.53573 5.42312 9.49312 3.71561 9.41142 3.55159C9.3296 3.3877 8.97561 3.48328 8.81209 3.41522C8.64869 3.34678 8.81209 3.01887 8.81209 3.01887C8.81209 3.01887 9.49312 2.84134 9.4658 2.9368C9.43849 3.03251 9.57482 3.23744 9.83145 3.3603C10.0881 3.48328 10.5283 3.37406 10.5283 3.37406L10.569 3.6199L10.7052 3.71561C10.7326 5.42324 11.2635 5.55986 11.7948 6.06542C12.326 6.57075 12.9797 6.68009 12.9797 6.68009C12.7891 7.17178 13.0071 8.00526 13.0071 8.00526C13.0071 8.00526 13.3475 8.15564 13.6199 7.90955C13.8925 7.66371 13.7699 6.68009 13.7699 6.62542C13.7699 6.57075 13.5518 6.98061 13.5518 6.98061L13.4017 6.62542C13.2515 6.27023 13.1026 5.68284 13.1026 5.68284C13.1026 5.68284 12.939 5.25934 13.266 5.58713C13.5928 5.91504 13.6201 5.92856 13.7154 5.72375C13.8107 5.51894 13.6337 4.87688 13.6337 4.87688C13.6337 4.87688 13.6199 4.79481 13.7288 4.83584C13.8379 4.87688 14.083 5.08473 14.083 5.08473C14.083 5.08473 14.1375 4.76753 14.2328 4.82208C14.3282 4.87688 14.3416 4.9861 14.4507 5.28662C14.5597 5.58725 14.7504 5.43687 14.7504 5.43687C14.7504 5.43687 14.7095 5.23195 14.764 4.89052C14.8185 4.54909 15.05 4.80845 15.05 4.80845C15.1181 5.51894 15.7174 6.14737 15.7174 6.14737C15.9898 5.69648 15.3088 4.3304 15.3088 4.3304C15.3088 4.3304 15.1453 4.26209 14.7777 4.26209C14.41 4.26209 13.6337 4.39871 13.6337 4.39871C13.6337 4.39871 13.4158 4.37131 13.0615 3.9343C12.7074 3.49716 12.8708 3.29211 12.8708 3.29211C12.8708 3.29211 13.0206 3.27847 13.1704 3.31951C13.3202 3.3603 13.5383 3.79756 13.8379 3.98873C14.1375 4.18014 14.5324 3.89302 14.805 3.59263C15.0774 3.29199 15.0774 2.59525 15.0774 2.59525C15.061 2.32859 15.0444 2.0618 15.0281 1.79514C15.0175 1.62114 15.1517 1.47027 15.3257 1.46686C15.4996 1.46357 15.6959 1.47392 15.9081 1.50936C16.5667 1.61931 17.0409 1.91398 17.2975 2.10369C17.1905 1.93371 16.3099 1.0665 15.377 0.696455C15.0348 0.560687 14.7622 0.77962 14.595 0.985037C14.4743 1.13298 14.4281 1.32914 14.4655 1.51666C14.6166 2.27404 14.5578 2.86472 14.4101 3.08706C14.2466 3.33303 13.6202 3.25096 13.6202 3.25096C13.2117 2.95044 13.0482 1.61164 13.0482 1.09256C13.0482 0.573473 12.739 0.164709 12.0402 0.190888C11.3416 0.217189 11.1142 0.737368 11.1142 0.737368C11.1142 0.737368 11.3866 0.846591 11.7133 1.28373C12.0402 1.72086 11.8495 3.08694 11.8495 3.08694L11.686 3.03214C11.686 3.03214 11.5771 3.25083 11.1141 3.25083C10.6509 3.25083 10.0517 2.75903 10.0517 2.02138C10.0517 1.2836 9.87175 0.742969 9.83375 0.737246C9.04371 0.614142 8.40359 1.4475 7.91328 1.59788C7.42296 1.74814 7.36846 2.02138 7.36846 2.02138C7.99498 2.17151 8.44438 1.74814 8.9347 1.42022C9.42501 1.09243 9.4794 1.29724 9.4794 1.29724C9.56122 1.87112 9.34332 2.21255 9.34332 2.21255C8.9483 2.14424 9.05731 1.87112 9.05731 1.87112C9.05731 1.87112 8.71679 1.92567 8.28086 2.30825C7.84506 2.69072 7.20494 2.71811 7.20494 2.71811C7.21853 3.14149 7.68166 3.01851 7.68166 3.01851L7.54545 3.29175C7.27304 3.2372 7.17775 3.442 7.17775 3.442C7.28664 3.71524 7.68166 3.61954 7.68166 3.61954L7.64075 3.78355C7.19134 4.05655 6.2379 5.96923 5.96549 6.43388C5.69308 6.89829 5.96549 6.96648 5.96549 6.96648L5.96561 6.96709Z" fill="#00A650"/>
<path d="M10.1331 5.19817C10.2489 5.50551 10.4055 5.4372 10.4055 5.4372C10.4055 5.4372 10.5419 4.79513 10.4055 4.38539C10.2694 3.97553 10.2285 3.92098 10.2285 3.92098C10.2285 3.92098 9.94253 3.798 9.82004 4.05736C9.69743 4.31696 9.38411 5.31434 9.41154 5.5329L9.43862 5.75147C9.43862 5.75147 9.87892 5.62666 9.93804 4.82155C9.99703 4.01645 10.1332 4.53577 10.1332 4.53577C10.1332 4.53577 10.0407 4.95233 10.1332 5.19817H10.1331Z" fill="#00A650"/>
<path d="M15.8943 3.63385C16.1122 3.49723 16.2552 3.72932 16.2552 3.72932C16.3301 3.5793 16.1394 3.36049 16.1394 3.36049C16.1394 3.36049 16.2892 3.19672 16.5345 3.41528C16.7796 3.63385 16.9718 3.61997 16.9718 3.61997C16.8371 3.49711 16.7115 2.90972 16.7115 2.90972C16.8568 2.8688 17.0022 2.82777 17.1473 2.78673C16.8277 2.21505 16.4947 2.02084 16.242 1.95265C15.9204 1.86607 15.3631 1.88507 15.3631 1.88507C15.3519 1.99928 15.3422 2.16756 15.3562 2.37006C15.3738 2.62089 15.4175 2.77541 15.4448 2.92323C15.4835 3.13182 15.5091 3.43282 15.4448 3.8249C15.4448 3.8249 15.6764 3.77023 15.8943 3.63361V3.63385Z" fill="#00A650"/>
<path d="M16.8613 6.53001C16.8613 6.53001 17.1064 6.43454 16.7659 5.84703C16.4254 5.25951 16.2739 4.91808 16.1999 4.48083C16.1258 4.04369 15.7445 4.20759 15.7445 4.20759C15.7445 4.20759 15.867 5.88782 16.8612 6.53001H16.8613Z" fill="#00A650"/>
<path d="M16.7659 4.23486C16.7659 4.23486 16.6842 5.56003 17.5151 6.22937C18.3459 6.89871 18.414 6.96702 18.414 6.96702C18.414 6.96702 18.3867 6.62559 17.8964 5.81963C17.4061 5.01355 17.1336 4.4124 16.7658 4.23486H16.7659Z" fill="#00A650"/>
<path d="M12.1626 7.93695C12.3261 7.90968 12.3261 6.91243 12.3261 6.91243C12.3261 6.91243 12.0128 6.95334 11.8086 6.7075C11.6043 6.46153 11.3454 6.44789 11.291 6.62543C11.2365 6.80296 10.6918 7.80033 11.468 8.25111C11.468 8.25111 11.7404 8.05994 11.9856 8.25111C11.9856 8.25111 11.9991 7.96423 12.1626 7.93683V7.93695Z" fill="#00A650"/>
<path d="M14.4371 7.44523C14.3282 7.70483 14.5461 7.97807 14.5461 7.97807H14.8049C14.8049 7.97807 14.8049 7.77302 15.0499 7.81405C15.2951 7.85496 15.5131 7.75938 15.5131 7.75938C15.5131 7.75938 15.4449 7.7321 15.2526 7.51354C15.0602 7.29497 14.7726 7.20986 14.805 7.25393C14.9547 7.45886 14.8457 7.61594 14.8457 7.61594L14.4372 7.44523H14.4371Z" fill="#00A650"/>
<path d="M13.5231 9.84779C13.5348 9.84372 13.5275 9.83434 13.5076 9.82349C13.5094 9.84372 13.5128 9.85118 13.5231 9.84779Z" fill="#00A650"/>
<path d="M13.1025 8.62023C13.1025 8.62023 13.0071 8.55192 12.9935 9.01645C12.9798 9.48086 12.8302 9.68591 12.8302 9.68591C12.8302 9.68591 12.9798 9.76798 13.1979 9.76798C13.3461 9.76798 13.461 9.79927 13.5076 9.82375C13.5026 9.76713 13.5121 9.60871 13.443 9.26241C13.3476 8.78424 13.1026 8.62023 13.1026 8.62023H13.1025Z" fill="#00A650"/>
<path d="M12.1626 9.41255C12.1626 9.41255 12.4486 9.43995 12.5576 9.2338C12.6666 9.02753 12.5576 8.6167 12.5576 8.6167C12.5576 8.6167 12.435 8.70218 12.1626 8.78413C11.8902 8.8662 12.04 9.41389 12.04 9.41389L12.1626 9.41255Z" fill="#00A650"/>
<path d="M11.3318 9.2338C11.1954 9.56293 11.0545 9.67215 11.0545 9.67215C11.0545 9.67215 11.3318 9.84981 11.5769 9.67215C11.8221 9.4945 11.6901 9.32914 11.6901 9.32914V8.90723C11.6586 8.90723 11.4679 8.90455 11.3318 9.2338Z" fill="#00A650"/>
<path d="M3.65016 29.1119C3.64967 29.1124 4.78532 28.3566 5.73148 28.0324C5.42313 27.6315 4.82077 27.3579 4.12688 27.3579C3.12063 27.3579 2.30194 27.9322 2.30194 28.638C2.30194 28.9659 2.82285 29.5426 3.65016 29.1121V29.1119Z" fill="#00A650"/>
<path d="M20.3965 29.5426C18.9593 28.6876 16.667 27.6697 13.2972 27.4971L13.2922 27.525C12.9273 27.4987 12.5569 27.4796 12.1777 27.473C12.1377 27.4733 12.0994 27.4723 12.0592 27.4728C12.019 27.4723 11.9806 27.4733 11.9407 27.473C11.5615 27.4796 11.1911 27.4987 10.8262 27.525L10.8213 27.4971C7.45138 27.6697 5.15907 28.6876 3.72187 29.5426C3.11914 29.901 2.82197 29.644 2.82294 29.645L4.15307 31.2703C4.4812 31.5981 4.99543 31.6412 5.37455 31.3744C6.92197 30.2858 9.26259 29.5902 11.879 29.5902C11.9396 29.5902 11.9988 29.5936 12.0592 29.5944C12.1194 29.5936 12.1786 29.5902 12.2393 29.5902C14.8559 29.5902 17.1964 30.2858 18.7438 31.3744C19.123 31.6412 19.6372 31.5979 19.9654 31.2703L21.2955 29.645C21.2965 29.6441 20.9993 29.901 20.3966 29.5426H20.3965Z" fill="#00A650"/>
<path d="M19.9913 27.3578C19.2976 27.3578 18.6951 27.6315 18.3867 28.0322C19.3329 28.3565 20.4686 29.1123 20.468 29.1118C21.2954 29.5424 21.8163 28.9657 21.8163 28.6378C21.8163 27.9319 20.9975 27.3577 19.9911 27.3577L19.9913 27.3578Z" fill="#00A650"/>
<path d="M12.3024 0.635329C12.3024 0.699377 12.207 0.751492 12.0895 0.751492C11.9719 0.751492 11.8766 0.699377 11.8766 0.635329C11.8766 0.571281 11.972 0.519287 12.0895 0.519287C12.2071 0.519287 12.3024 0.571159 12.3024 0.635329Z" fill="black"/>
<path d="M12.7986 25.3238L11.3277 25.1245L11.3901 17.4726C10.8415 16.571 9.85246 15.1796 8.79863 14.9726C7.85891 14.7882 5.08066 12.5639 4.7348 12.3079L5.51999 11.2412C6.78177 12.1758 7.50747 13.0668 9.62472 13.8964C10.282 14.1538 11.3403 15.1591 12.0189 15.795C13.0274 14.9726 13.3218 14.4582 13.9367 14.3373C14.3831 14.1897 17.0667 12.6103 18.8556 11.3659L19.5959 12.3207C17.7071 13.0801 15.3401 14.9612 14.6334 15.3661C14.3607 15.4867 13.5545 16.5304 12.8274 17.3708L12.7985 25.3235L12.7986 25.3238Z" fill="#00ADEF"/>
<path d="M20.1164 17.9484C20.1164 17.9484 20.5626 17.9722 20.8094 17.2101C21.0562 16.448 19.8849 17.5794 19.8849 17.5794L20.1164 17.9484Z" fill="#231F20"/>
<path d="M23.4258 20.0957C23.3033 22.0219 21.5462 23.4153 19.6558 25.6284C17.7653 27.8415 17.5829 27.8005 16.68 27.273C15.7771 26.7454 16.68 24.7457 16.68 24.7457C16.68 24.7457 17.1335 23.784 17.5886 22.8825C18.0438 21.981 18.441 18.784 18.9543 18.2825C19.1976 18.0449 19.3973 18.0274 19.5493 18.1524C19.7182 18.2915 19.8283 18.607 19.8715 19.0017C19.9538 19.7521 19.1764 22.8416 19.1764 22.8416C19.1764 22.8416 19.5032 22.5547 20.7589 21.5051C22.0146 20.4559 22.4041 20.0546 22.3635 17.9485C22.3467 17.0902 22.3983 16.3235 22.4782 15.6706C22.5944 14.7216 22.7704 14.0154 22.8872 13.6365C23.0841 12.9972 23.3849 13.7841 23.4256 14.358C23.4666 14.9319 23.5483 18.1695 23.4256 20.0958L23.4258 20.0957ZM21.8161 28.6378C21.8161 28.9657 21.2952 29.5424 20.4678 29.1119C20.4684 29.1124 19.3327 28.3566 18.3864 28.0323C18.6949 27.6314 19.2974 27.3578 19.9911 27.3578C20.9974 27.3578 21.8162 27.9321 21.8162 28.638L21.8161 28.6378ZM19.965 31.2701C19.6368 31.5979 19.1226 31.641 18.7434 31.3742C17.1959 30.2857 14.8554 29.59 12.2389 29.59C12.1783 29.59 12.1191 29.5934 12.0587 29.5943C11.9984 29.5934 11.9391 29.59 11.8786 29.59C9.26202 29.59 6.92152 30.2857 5.37409 31.3742C4.99498 31.641 4.48075 31.5978 4.15261 31.2701L2.82249 29.6448C2.82151 29.644 3.11869 29.9009 3.72142 29.5424C5.15862 28.6875 7.45104 27.6696 10.8209 27.497L10.8257 27.5249C11.1906 27.4986 11.561 27.4795 11.9402 27.4729C11.9802 27.4732 12.0185 27.4722 12.0587 27.4727C12.0988 27.4722 12.1373 27.4732 12.1772 27.4729C12.5564 27.4795 12.9268 27.4986 13.2917 27.5249L13.2967 27.497C16.6665 27.6696 18.9588 28.6875 20.396 29.5424C20.9989 29.9009 21.2959 29.6439 21.295 29.6448L19.9647 31.2701H19.965ZM2.30158 28.6378C2.30158 27.932 3.12027 27.3577 4.12651 27.3577C4.82029 27.3577 5.42277 27.6314 5.73112 28.0322C4.78496 28.3564 3.64931 29.1124 3.6498 29.1119C2.82249 29.5424 2.30158 28.9657 2.30158 28.6378ZM0.57376 20.0957C0.451151 18.1694 0.53285 14.9318 0.57376 14.3579C0.614549 13.784 0.915367 12.997 1.11227 13.6364C1.22893 14.0154 1.40508 14.7215 1.52125 15.6705C1.60113 16.3234 1.65284 17.09 1.63609 17.9484C1.5953 20.0545 1.98486 20.4557 3.24057 21.505C4.49628 22.5546 4.82308 22.8415 4.82308 22.8415C4.82308 22.8415 4.04566 19.7519 4.12797 19.0016C4.17119 18.6069 4.28129 18.2914 4.45027 18.1523C4.60226 18.0273 4.80196 18.0448 5.04523 18.2824C5.55861 18.7839 5.95582 21.9808 6.41093 22.8824C6.86604 23.784 7.31957 24.7456 7.31957 24.7456C7.31957 24.7456 8.22251 26.7452 7.31957 27.2729C6.41664 27.8005 6.23442 27.8414 4.34381 25.6283C2.45332 23.4152 0.69637 22.0217 0.573882 20.0956L0.57376 20.0957ZM3.63608 18.5506C2.67366 18.2623 2.74115 17.2916 2.85235 16.7762C2.92555 16.853 3.00033 16.9282 3.0779 17.0014C3.36585 17.2724 3.65623 17.473 3.94187 17.6263L3.9341 17.6273C3.7985 17.647 3.70333 17.6779 3.67893 17.7187C3.63681 17.7888 3.62369 18.1199 3.63596 18.5507L3.63608 18.5506ZM2.53502 18.2647C2.68725 18.7563 3.25902 19.0586 3.67104 19.2174C3.72275 19.9214 3.824 20.6739 3.96494 20.9975C4.25107 21.6533 3.10692 20.7925 2.61672 19.9319C2.14498 19.1039 2.01399 17.9697 2.00465 15.9146C2.00428 15.8334 2.00392 15.7537 2.00392 15.6694L2.00343 15.638C2.09132 15.7909 2.1871 15.9397 2.28871 16.085C2.22631 16.8823 2.30243 17.5135 2.53502 18.2647ZM2.19936 10.3415C2.9349 9.37844 3.93204 8.026 5.84414 7.84152C7.75623 7.65717 8.75726 8.44499 9.6154 9.41387C10.4734 10.3825 11.8218 11.6121 11.8832 12.0014C11.9054 12.1433 11.9531 12.3206 11.9745 12.4867C11.964 12.5785 11.9597 12.6798 11.9685 12.7786C11.9314 12.9248 11.8229 13.022 11.5707 13.0054C10.9433 12.9645 9.3907 12.6571 9.12508 12.5138C8.85947 12.3702 8.73686 11.8169 8.75738 11.4481C8.77789 11.0792 8.53268 10.2671 7.67453 9.75104C6.81651 9.235 6.13731 9.07865 5.52936 9.41387C5.43588 9.4655 3.71122 10.0956 3.323 11.7966C2.9349 13.4974 2.97326 14.8256 4.42624 15.7514C5.87898 16.6774 7.5518 15.5054 7.5518 15.5054L7.96042 15.7308C7.96042 15.7308 9.34954 16.8578 9.30888 17.1653C9.28788 17.3226 9.29868 17.453 9.23483 17.5512C9.09267 17.5473 8.95647 17.5933 8.83653 17.7288C8.81104 17.7325 8.78554 17.7361 8.75726 17.7389C8.25723 17.7909 6.68188 18.0167 5.66775 17.9261C5.50738 17.731 5.01076 17.6324 4.55176 17.6088C4.03899 17.3811 3.44039 17.0266 2.91924 16.5204C2.93381 16.4745 2.94364 16.4481 2.94364 16.4481C2.94364 16.4481 2.45696 15.2815 2.32246 15.8068C2.19645 15.618 2.08404 15.4149 1.98838 15.197C1.93861 14.4195 1.76878 13.7965 1.54893 13.3699C1.45327 12.1632 1.70213 10.9928 2.19949 10.3416L2.19936 10.3415ZM5.61251 7.67958C5.96954 7.56962 6.1418 7.44664 6.18938 7.41121C6.35982 7.28408 6.50501 7.12262 6.61487 6.93547L6.67351 6.8355C8.77098 6.6766 9.09777 6.19855 9.09777 6.19855C9.09777 6.19855 9.34299 6.2296 9.72429 5.97584C10.1056 5.72209 10.8138 5.56708 10.8138 5.56708C10.8956 6.48933 11.5493 6.06571 11.0862 6.44172C10.6232 6.81797 10.7321 8.38618 10.7321 8.38618L10.9227 8.33163L10.9501 8.82368L11.1951 8.84352C11.1951 9.25205 10.3424 9.59469 10.1667 9.66117C9.57133 9.06575 8.94748 8.48006 8.49164 8.14898C7.30671 7.28835 5.61251 7.6797 5.61251 7.6797C5.61251 7.6797 8.10354 7.51373 5.51673 7.70758H5.51661C5.5506 7.69821 5.58277 7.68895 5.61251 7.67958ZM9.93771 4.82139C9.87871 5.6265 9.43828 5.75131 9.43828 5.75131L9.41121 5.53274C9.38378 5.31418 9.6971 4.3168 9.81971 4.05732C9.94232 3.79784 10.2282 3.92082 10.2282 3.92082C10.2282 3.92082 10.2691 3.97537 10.4052 4.38523C10.5415 4.79497 10.4052 5.43704 10.4052 5.43704C10.4052 5.43704 10.2487 5.50535 10.1328 5.19801C10.0403 4.95217 10.1328 4.53561 10.1328 4.53561C10.1328 4.53561 9.99658 4.01629 9.93758 4.82139H9.93771ZM5.96541 6.43441C6.23782 5.96976 7.19114 4.0572 7.64066 3.78408L7.68145 3.62006C7.68145 3.62006 7.28655 3.71577 7.17754 3.44253C7.17754 3.44253 7.27284 3.2376 7.54525 3.29227L7.68145 3.01903C7.68145 3.01903 7.21833 3.14202 7.20473 2.71864C7.20473 2.71864 7.84485 2.69124 8.28054 2.30878C8.71647 1.9262 9.05698 1.87164 9.05698 1.87164C9.05698 1.87164 8.94797 2.14488 9.34299 2.21307C9.34299 2.21307 9.56089 1.87164 9.47907 1.29777C9.47907 1.29777 9.42469 1.09284 8.93425 1.42075C8.44394 1.74866 7.99453 2.17204 7.36801 2.0219C7.36801 2.0219 7.4224 1.74866 7.91283 1.5984C8.40315 1.44803 9.04326 0.614668 9.8333 0.737772C9.8713 0.743495 10.0512 1.28413 10.0512 2.0219C10.0512 2.75943 10.6504 3.25124 11.1137 3.25124C11.5767 3.25124 11.6856 3.03267 11.6856 3.03267L11.8491 3.08734C11.8491 3.08734 12.0398 1.72127 11.7129 1.28413C11.3861 0.846995 11.1138 0.737772 11.1138 0.737772C11.1138 0.737772 11.3412 0.217472 12.0398 0.191292C12.7385 0.164991 13.0477 0.573877 13.0477 1.09284C13.0477 1.61204 13.2112 2.95072 13.6197 3.25136C13.6197 3.25136 14.2463 3.33343 14.4097 3.08734C14.5574 2.865 14.6162 2.27432 14.465 1.51694C14.4276 1.3293 14.4739 1.13326 14.5945 0.985198C14.7618 0.779781 15.0344 0.560848 15.3766 0.696616C16.3095 1.06666 17.1902 1.93387 17.297 2.10373C17.0405 1.91414 16.5662 1.61947 15.9077 1.50952C15.6955 1.47408 15.4992 1.46361 15.3252 1.46702C15.1513 1.47055 15.017 1.6213 15.0277 1.79542C15.044 2.06221 15.0605 2.32887 15.077 2.59554C15.077 2.59554 15.077 3.29227 14.8046 3.59291C14.5319 3.8933 14.1371 4.18042 13.8375 3.98901C13.5379 3.79784 13.3199 3.36058 13.1701 3.31979C13.0203 3.27864 12.8705 3.29227 12.8705 3.29227C12.8705 3.29227 12.707 3.49732 13.0612 3.93446C13.4153 4.3716 13.6333 4.39899 13.6333 4.39899C13.6333 4.39899 14.4095 4.26237 14.7772 4.26237C15.145 4.26237 15.3084 4.33068 15.3084 4.33068C15.3084 4.33068 15.9894 5.69676 15.717 6.14765C15.717 6.14765 15.1176 5.51923 15.0495 4.80885C15.0495 4.80885 14.8182 4.54937 14.7635 4.89092C14.7089 5.23247 14.7499 5.43728 14.7499 5.43728C14.7499 5.43728 14.5592 5.58754 14.4502 5.2869C14.3413 4.98651 14.3277 4.87728 14.2323 4.82249C14.1369 4.76794 14.0824 5.08514 14.0824 5.08514C14.0824 5.08514 13.8373 4.87728 13.7283 4.83613C13.6194 4.79521 13.6331 4.87728 13.6331 4.87728C13.6331 4.87728 13.8101 5.51935 13.7148 5.72416C13.6194 5.92909 13.5922 5.91545 13.2654 5.58754C12.9385 5.25962 13.1019 5.68312 13.1019 5.68312C13.1019 5.68312 13.2509 6.27064 13.401 6.6257L13.5512 6.98089C13.5512 6.98089 13.7691 6.57103 13.7691 6.6257C13.7691 6.68038 13.8917 7.66399 13.6193 7.90983C13.3468 8.1558 13.0065 8.00554 13.0065 8.00554C13.0065 8.00554 12.7886 7.17206 12.9791 6.68038C12.9791 6.68038 12.3255 6.57103 11.7942 6.06571C11.2631 5.56014 10.732 5.42364 10.7048 3.71589L10.5686 3.62019L10.5278 3.37434C10.5278 3.37434 10.0876 3.48357 9.83088 3.36058C9.57437 3.23772 9.43804 3.03279 9.46535 2.93709C9.49267 2.84162 8.81164 3.01916 8.81164 3.01916C8.81164 3.01916 8.64824 3.34707 8.81164 3.4155C8.97516 3.48369 9.32915 3.3881 9.41097 3.552C9.49267 3.71601 9.53528 5.42352 8.63465 6.06583C8.63465 6.06583 8.38955 6.05207 8.63465 5.64233C8.87974 5.23247 9.32927 4.31704 9.15228 3.9347C9.12788 3.88198 9.11052 3.84241 9.09838 3.81172H8.82548L8.64849 4.03029C8.64849 4.03029 8.48497 5.10949 8.02184 5.71052C7.55884 6.31155 7.38185 6.40738 7.38185 6.40738C7.38185 6.40738 7.02774 6.14778 7.38185 5.80635C7.73596 5.46492 8.44406 4.4947 8.38967 3.85276L8.33517 3.66159C8.33517 3.66159 8.07635 3.57964 7.85857 4.03041C7.64066 4.48118 6.42853 6.58516 6.26501 6.76269C6.10149 6.94022 5.96541 6.9675 5.96541 6.9675C5.96541 6.9675 5.693 6.89919 5.96541 6.43478V6.43441ZM17.8964 5.81962C18.3866 6.62558 18.414 6.96713 18.414 6.96713C18.414 6.96713 18.3459 6.89882 17.5151 6.22948C16.6842 5.56014 16.7659 4.23498 16.7659 4.23498C17.1338 4.41251 17.4062 5.01354 17.8965 5.81974L17.8964 5.81962ZM16.1998 4.48082C16.2738 4.91808 16.4253 5.2595 16.7658 5.84702C17.1063 6.43453 16.8612 6.53 16.8612 6.53C15.867 5.88781 15.7445 4.20758 15.7445 4.20758C15.7445 4.20758 16.1258 4.04368 16.1999 4.48082H16.1998ZM15.4447 2.92345C15.4174 2.77563 15.3737 2.62111 15.3562 2.37027C15.3421 2.16778 15.3519 1.9995 15.3631 1.88528C15.3631 1.88528 15.9204 1.86629 16.242 1.95286C16.4947 2.02105 16.8277 2.21526 17.1474 2.78695C17.0022 2.82811 16.8567 2.86902 16.7116 2.90993C16.7116 2.90993 16.837 3.49745 16.9718 3.62031C16.9718 3.62031 16.7797 3.63407 16.5346 3.4155C16.2893 3.19693 16.1394 3.3607 16.1394 3.3607C16.1394 3.3607 16.3301 3.57939 16.2552 3.72953C16.2552 3.72953 16.1122 3.49745 15.8943 3.63407C15.6764 3.77069 15.4448 3.82536 15.4448 3.82536C15.5093 3.43328 15.4835 3.13227 15.4448 2.92369L15.4447 2.92345ZM14.5731 8.31312C15.0089 8.34758 15.2267 7.97826 15.2267 7.97826C15.7444 7.97826 16.044 7.7541 16.044 7.7541C16.044 7.7541 14.328 6.61207 14.1644 6.19867C14.0009 5.78528 14.7091 5.92568 14.7091 5.92568L14.7908 6.14461L15.2812 6.32823L15.3901 6.47289L16.2074 6.52086L17.1061 7.59458L17.1193 7.5941L17.1313 7.61528C16.6424 7.66679 16.0991 7.8112 15.6338 8.14898C15.1817 8.47738 14.5643 9.05649 13.9732 9.64693C13.9709 9.64486 13.7824 9.47755 13.674 8.93095C13.5651 8.38082 13.7285 8.52474 14.0556 8.50855C14.3823 8.49248 14.5729 8.31324 14.5729 8.31324L14.5731 8.31312ZM14.8047 7.25401C14.7723 7.20993 15.0599 7.29517 15.2523 7.51361C15.4446 7.73218 15.5128 7.75945 15.5128 7.75945C15.5128 7.75945 15.2949 7.85516 15.0495 7.81425C14.8046 7.77309 14.8046 7.97814 14.8046 7.97814H14.5459C14.5459 7.97814 14.328 7.7049 14.4369 7.4453L14.8454 7.61601C14.8454 7.61601 14.9542 7.45906 14.8047 7.25401ZM15.3743 18.1297C15.8331 18.1347 16.4024 18.1551 16.9063 18.1557C16.5631 18.6049 16.2467 19.072 15.9551 19.5564C15.7264 18.9723 15.509 18.4491 15.3741 18.1297H15.3743ZM12.8298 9.68577C12.8298 9.68577 12.9795 9.48072 12.9931 9.01631C13.0068 8.55178 13.1021 8.62009 13.1021 8.62009C13.1021 8.62009 13.3472 8.7841 13.4425 9.26227C13.5116 9.60857 13.5021 9.76699 13.5072 9.82361C13.4606 9.79913 13.3456 9.76784 13.1975 9.76784C12.9795 9.76784 12.8298 9.68577 12.8298 9.68577ZM13.4599 10.1684C12.7204 10.9319 12.1271 11.5914 12.1271 11.5914L12.0627 11.9982L11.9986 11.5914C11.9986 11.5914 11.3255 10.843 10.5193 10.0179L10.6454 10.1475L13.4599 10.1684ZM11.3316 9.23366C11.4678 8.90453 11.6584 8.90709 11.6899 8.90709V9.329C11.6899 9.329 11.8219 9.49436 11.5767 9.67201C11.3316 9.84967 11.0543 9.67201 11.0543 9.67201C11.0543 9.67201 11.1952 9.56279 11.3316 9.23366ZM12.5573 8.61656C12.5573 8.61656 12.6663 9.02739 12.5573 9.23366C12.4484 9.43981 12.1623 9.41241 12.1623 9.41241L12.0397 9.41375C12.0397 9.41375 11.8899 8.86605 12.1623 8.78398C12.4347 8.70203 12.5573 8.61656 12.5573 8.61656ZM12.1623 7.93699C11.9989 7.96438 11.9853 8.25126 11.9853 8.25126C11.7401 8.06009 11.4676 8.25126 11.4676 8.25126C10.6913 7.80049 11.236 6.80311 11.2907 6.62558C11.345 6.44805 11.6039 6.46169 11.8083 6.70765C12.0123 6.95349 12.3257 6.91258 12.3257 6.91258C12.3257 6.91258 12.3257 7.90983 12.1623 7.93711V7.93699ZM8.71647 12.698C9.20666 13.0668 11.0454 13.2717 11.7252 13.2512C11.8907 13.2462 11.9963 13.1788 12.0627 13.0806C12.1293 13.1788 12.2349 13.2462 12.4002 13.2512C13.0801 13.2717 14.9187 13.0668 15.4092 12.698C15.8995 12.3292 15.4909 11.6118 15.5728 11.243C15.6544 10.8741 16.6554 9.64461 17.5544 9.6037C18.4532 9.56279 20.0673 10.2185 20.5167 11.7144C20.9661 13.2104 20.8435 14.7472 19.6995 15.3824C18.5554 16.0177 17.4727 15.6693 17.2683 15.3824C17.064 15.0955 16.2059 15.116 15.879 15.5464C15.5521 15.9767 14.4081 16.735 14.4081 17.1857C14.4081 17.2086 14.4083 17.2319 14.4086 17.2551C14.1721 17.1426 13.8868 17.096 13.7468 17.4128C13.484 18.0083 12.9908 19.7177 13.1223 20.2931C13.2536 20.8684 14.0956 20.6926 14.2804 20.9915C15.5162 22.991 14.2591 24.6122 12.9845 25.0757C12.9689 24.766 12.8449 22.2546 12.8636 21.8032C12.8837 21.3192 12.9874 17.4995 12.9886 17.4611C12.9906 17.3896 13.0159 17.3233 13.0618 17.2695C13.9824 16.1896 14.5852 15.4872 14.6262 15.4439C14.6709 15.4138 14.8694 15.3628 15.0009 15.3293C15.1263 15.2971 15.256 15.2638 15.3507 15.2292C15.4819 15.1814 15.9026 14.8697 16.8584 14.1428C17.2962 13.8099 17.7486 13.4657 17.8714 13.392C18.1876 13.2016 19.5384 12.4691 19.6558 12.4241L19.6055 12.2683L19.5665 12.109C19.4369 12.1409 17.8944 12.9957 17.703 13.1109C17.5652 13.1937 17.1462 13.5125 16.6609 13.8815C16.1433 14.2752 15.3609 14.87 15.2389 14.9212C15.1594 14.9501 15.0376 14.9813 14.9198 15.0114C14.6418 15.0829 14.4807 15.1268 14.4029 15.2052C14.3384 15.2698 13.503 16.2475 12.8133 17.0563C12.7195 17.1663 12.6657 17.3065 12.6616 17.452C12.6606 17.4905 12.5569 21.308 12.5369 21.7895C12.5163 22.2833 12.6537 25.0086 12.6594 25.1244L12.8699 25.1137C12.6027 25.1963 12.3381 25.2278 12.0989 25.1991C11.8727 25.1718 11.6518 25.1297 11.4383 25.0756H11.4541C11.4577 23.8939 11.4804 20.7525 11.54 20.4108C11.6047 20.0399 11.566 18.2839 11.5463 17.546C11.5428 17.4188 11.5021 17.2964 11.4282 17.1922C10.5527 15.9616 9.99974 15.3005 9.78487 15.2272C9.71385 15.2031 9.64138 15.1813 9.56551 15.158C9.32162 15.0841 9.04545 15.0004 8.65092 14.7872C8.44017 14.6735 7.75902 14.2091 7.03794 13.7178C5.62004 12.7511 4.7432 12.1605 4.5253 12.1086L4.4493 12.4275C4.6405 12.4798 5.97269 13.3878 6.85427 13.9887C7.6142 14.5067 8.27034 14.954 8.49626 15.0759C8.91944 15.3046 9.22499 15.3973 9.47082 15.4717C9.54317 15.4936 9.612 15.5146 9.67695 15.5364C9.79943 15.5922 10.3163 16.1936 11.162 17.3822C11.1979 17.4329 11.2179 17.4925 11.2193 17.5544C11.2506 18.725 11.2666 20.075 11.2178 20.3539C11.1463 20.7632 11.1297 24.3578 11.1274 24.9856C10.1557 24.6639 9.41498 24.0348 9.32526 23.0788C9.20751 21.8221 9.89024 20.9937 10.2042 20.9216C10.5181 20.8494 10.811 20.0803 10.5691 19.6266C10.3273 19.1729 10.1064 17.8693 9.72927 17.698C9.70924 17.6889 9.68909 17.6797 9.66869 17.6709C9.71167 17.5211 9.71762 17.3506 9.71762 17.1856C9.71762 16.7347 8.57359 15.9766 8.24679 15.5463C7.91987 15.116 7.06185 15.0955 6.85742 15.3823C6.65323 15.6692 5.57051 16.0175 4.42636 15.3823C3.28221 14.747 3.15972 13.2102 3.60913 11.7142C4.05853 10.2184 5.6726 9.56254 6.57141 9.60358C7.47035 9.64449 8.47137 10.8741 8.55319 11.2429C8.63489 11.6117 8.22627 12.329 8.71659 12.6979L8.71647 12.698ZM16.1472 24.6888C15.3017 26.3152 13.8097 26.6857 12.7381 26.972C11.6665 27.2582 9.84059 26.6333 8.68163 25.4072C7.52255 24.1812 7.43915 22.3717 7.53723 21.4825C7.58154 21.0808 7.81402 20.5032 8.07963 19.9442C8.18925 19.9076 8.26816 19.8067 8.21462 19.6674C8.4999 19.0946 8.79368 18.5771 8.91932 18.3397C8.96848 18.2466 9.01328 18.1762 9.05565 18.1233C9.21601 18.1107 9.33741 18.0706 9.42942 18.0109C9.48126 18.028 9.53637 18.0499 9.59865 18.0684C9.87069 18.149 10.3115 19.8104 10.3115 19.8104L10.3525 20.2586C10.3525 20.2586 8.76733 21.2972 9.01692 22.9385C9.26639 24.5797 10.3454 25.24 11.9271 25.4215C14.6208 25.7308 15.1779 23.1789 15.0563 22.2212C14.9346 21.2636 14.4988 20.8544 14.1828 20.7323C13.8669 20.6101 13.4482 20.291 13.4242 20.0007C13.4003 19.7104 13.7041 18.216 13.8968 17.6438C14.0083 17.3115 14.2095 17.3327 14.4178 17.4481C14.4486 17.792 14.5806 18.0976 15.1082 18.125C15.4131 18.7261 15.8159 19.8881 16.195 20.7446C16.5854 21.6264 16.8496 22.5444 16.5462 23.6776C16.3958 24.0202 16.2717 24.3415 16.1705 24.6409C16.1624 24.657 16.1557 24.6726 16.1474 24.6888V24.6886L16.1472 24.6888ZM15.8016 27.3796C15.0566 27.2507 14.276 27.1631 13.4669 27.1186C14.4262 26.8776 15.355 26.3349 15.9572 25.3596C15.7065 26.3505 15.7371 27.082 15.8016 27.3796ZM7.21881 18.1555C7.67514 18.155 8.18415 18.1384 8.61741 18.1315C8.46227 18.5047 8.25626 18.9662 8.07647 19.3975C7.94779 19.195 7.78816 19.0354 7.625 18.8315C7.45529 18.6193 7.38998 18.3589 7.21881 18.1555ZM6.76006 18.391C6.97748 18.5652 7.03697 18.8439 7.19126 19.067C7.37141 19.3273 7.61954 19.4878 7.74106 19.7958C7.76716 19.8619 7.81232 19.9055 7.86452 19.9314C7.82106 20.0483 7.78124 20.1603 7.75162 20.2581C7.57414 20.8434 6.91763 22.006 7.48346 23.6596C8.04928 25.3133 9.32405 26.6232 10.8626 27.0863C10.8836 27.0925 10.9055 27.0982 10.9267 27.1043C9.98044 27.1446 9.07119 27.2425 8.21061 27.3966C8.34391 27.1077 8.43823 25.2042 6.70252 22.2061C6.70252 22.2061 5.81561 18.7446 5.72772 18.0967C6.00863 18.1125 6.24923 18.1112 6.42817 18.1284C6.50902 18.1364 6.60006 18.1417 6.6956 18.1459C6.6593 18.2246 6.66853 18.318 6.75994 18.3911L6.76006 18.391ZM16.847 22.2227C16.7279 21.66 16.4374 20.8211 16.1357 20.0247C16.2035 20.0193 16.2697 19.9849 16.315 19.9084C16.6289 19.3773 16.9733 18.8676 17.3488 18.3783C17.4126 18.2951 17.4075 18.2128 17.3662 18.1487C17.4864 18.1444 17.5984 18.1379 17.6972 18.1283C17.8485 18.1136 18.0441 18.1127 18.2709 18.1031C18.1774 18.7691 17.2969 22.206 17.2969 22.206C17.1502 22.4594 17.0182 22.7039 16.8969 22.9408C16.91 22.7069 16.8984 22.4653 16.847 22.2227ZM20.3285 19.2173C20.7405 19.0586 21.3123 18.7563 21.4646 18.2646C21.6809 17.5658 21.7608 16.9699 21.7208 16.2485C21.8184 16.1185 21.9086 15.9838 21.995 15.8469C21.9949 15.8691 21.9948 15.8921 21.9948 15.9144C21.9855 17.9694 21.8545 19.1037 21.3827 19.9317C20.8925 20.7923 19.7484 21.6529 20.0345 20.9972C20.1756 20.6737 20.2768 19.9213 20.3285 19.2171V19.2173ZM20.3204 17.7186C20.3017 17.6872 20.2409 17.6618 20.1526 17.6428C20.4481 17.4876 20.7493 17.2822 21.0477 17.0013C21.089 16.9623 21.1279 16.9213 21.168 16.8813C21.2627 17.4139 21.2634 18.281 20.3633 18.5505C20.3755 18.1197 20.3624 17.7887 20.3203 17.7185L20.3204 17.7186ZM21.9261 10.3414C22.3906 10.9497 22.6387 12.0107 22.5917 13.1312C22.277 13.5874 22.0244 14.404 21.9982 15.4826C21.9081 15.6493 21.8094 15.8077 21.7014 15.9553C21.6193 15.0967 21.0558 16.448 21.0558 16.448C21.0558 16.448 21.0738 16.4958 21.0971 16.5767C21.1005 16.5885 21.1042 16.6032 21.1079 16.6163C20.6145 17.0691 20.0626 17.3904 19.5845 17.6036C19.0842 17.6136 18.4896 17.7148 18.3239 17.937C17.31 17.998 15.8465 17.7885 15.3682 17.7389C15.2027 17.7219 15.0913 17.6931 15.0136 17.6544L14.9328 17.6004C14.8222 17.4986 14.8412 17.3506 14.8166 17.1652C14.7757 16.8578 16.1648 15.7307 16.1648 15.7307L16.5734 15.5053C16.5734 15.5053 18.2464 16.6771 19.6992 15.7512C21.1521 14.8253 21.1906 13.4971 20.8023 11.7963C20.4142 10.0955 18.6895 9.46525 18.596 9.41363C17.9882 9.07853 17.3091 9.23475 16.4509 9.75079C15.5929 10.2668 15.3477 11.079 15.3681 11.4478C15.3885 11.8167 15.2659 12.37 15.0003 12.5135C14.7348 12.657 13.1821 12.9643 12.5547 13.0052C12.3025 13.0218 12.194 12.9246 12.1568 12.7784C12.1657 12.6796 12.1613 12.5784 12.1507 12.4866C12.1722 12.3205 12.2199 12.1432 12.2423 12.0012C12.3036 11.6118 13.6519 10.3824 14.5099 9.41375C15.368 8.44499 16.369 7.65717 18.281 7.84152C20.1929 8.026 21.1903 9.37844 21.9257 10.3414V10.3415L21.9261 10.3414ZM23.5074 12.8815C23.3238 12.6839 23.1027 12.6731 22.8865 12.8216C22.8857 12.6091 22.8727 12.3967 22.8454 12.1857C22.6661 10.7953 21.7188 8.89966 20.0293 8.09065C20.0266 8.07616 20.0209 8.06119 20.007 8.04731C19.9807 8.02137 19.9608 7.99519 19.9426 7.96329C19.9342 7.94892 19.9234 7.94015 19.9119 7.9337L19.9044 7.91677C19.8802 7.88171 19.8499 7.85492 19.8159 7.83276C19.7966 7.81157 19.7764 7.79136 19.7541 7.77309C19.8257 7.78819 19.8972 7.80317 19.973 7.82094C19.4964 7.37675 18.9664 6.81833 18.4442 6.13109C18.0315 5.58815 17.6995 5.06468 17.433 4.59016C17.6781 4.72678 18.4136 4.72678 18.4136 4.72678C17.9778 4.39887 17.787 3.55188 17.787 3.55188C18.0867 3.6885 18.4136 3.60655 18.4136 3.60655C18.1139 3.27864 17.9504 2.67761 17.9504 2.67761C18.2773 2.705 18.2773 2.54099 18.2773 2.54099C18.0594 2.40437 16.4796 0.983615 15.5534 0.519083C14.9671 0.225021 14.5609 0.618199 14.3417 0.946111C14.2163 1.13412 14.1819 1.36717 14.252 1.58209C14.3969 2.0275 14.591 2.86598 14.0553 3.0054C13.3198 3.19669 13.2108 1.88516 13.238 1.17491C13.2653 0.464289 12.8296 0 12.0394 0C11.2495 0 10.6775 0.95634 10.6775 0.95634C10.6775 0.95634 11.2223 1.03829 11.3857 1.14763C11.5491 1.25698 11.9304 2.13113 11.5218 2.67761C11.1134 3.22408 10.6231 2.705 10.405 2.45904C10.187 2.21307 10.3779 0.764926 10.1055 0.464289C9.83306 0.163895 8.22591 0.874149 7.49038 1.5027C6.75496 2.13113 5.88335 2.24047 5.88335 2.24047C5.88335 2.59566 6.34635 2.56838 6.34635 2.56838C6.23746 2.95085 5.91054 3.38798 5.91054 3.38798L6.34635 3.52472C6.37366 4.01641 5.93773 4.39899 5.93773 4.39899H6.42817C6.32959 4.79485 6.18307 5.24903 5.96177 5.73244C5.53227 6.67088 4.98575 7.35933 4.54861 7.82107C4.65288 7.82375 4.75085 7.82131 4.84432 7.81583C2.68227 8.35476 1.48422 10.6014 1.2798 12.186C1.24787 12.4328 1.23658 12.6812 1.24095 12.9295C0.986262 12.6761 0.711787 12.6447 0.491819 12.8817C-0.0801958 13.4974 -0.243594 20.4559 0.491819 21.5052C1.13521 22.4233 3.70794 25.8074 4.78387 26.9391C4.57555 26.8917 4.35498 26.866 4.12639 26.866C2.84968 26.866 1.81102 27.6609 1.81102 28.638C1.81102 28.6818 1.81491 28.7248 1.81903 28.7679L1.81891 28.7684L1.81915 28.7689C1.84137 28.9979 1.92003 29.2148 2.04592 29.4113L2.04653 29.4129L2.04786 29.4147C2.10662 29.5056 2.17557 29.5921 2.2529 29.6737L3.74084 31.5534C4.26357 32.0753 5.08299 32.1487 5.68948 31.7279C6.98525 30.8358 8.8954 30.225 11.0605 30.1068C11.6825 30.0728 12.4814 30.0829 13.0568 30.1068C15.2233 30.1964 17.1321 30.8358 18.4278 31.7279C19.0342 32.1487 19.8539 32.0753 20.3764 31.5534L21.8643 29.6737C21.9419 29.5921 22.0108 29.5056 22.0695 29.4147L22.0708 29.4129L22.0713 29.4113C22.1973 29.2149 22.276 28.9979 22.2982 28.7689L22.2984 28.7684L22.2983 28.7679C22.3023 28.7248 22.3063 28.6818 22.3063 28.638C22.3063 27.6609 21.2676 26.866 19.9908 26.866C19.7038 26.866 19.4291 26.9063 19.1756 26.98C20.2258 25.8933 22.8557 22.4351 23.5074 21.5052C24.2429 20.456 24.0795 13.4974 23.5074 12.8817H23.5075L23.5074 12.8815Z" fill="#231F20"/>
<path d="M6.81684 17.2882C9.22751 17.2472 8.00178 16.7759 8.00178 16.7759C8.00178 16.7759 7.45016 16.0997 7.24573 16.1816C7.04155 16.2637 7.18455 16.571 6.48993 16.612C5.7953 16.6531 4.24654 17.1267 3.13954 15.3619C2.03253 13.5973 2.38373 13.3539 2.404 13.1079C2.4244 12.8621 2.28152 12.0015 2.28152 12.0015C2.28152 12.0628 1.58689 13.8047 2.50622 15.0957C3.42555 16.3866 4.40618 17.3293 6.81684 17.2884V17.2882Z" fill="#231F20"/>
<path d="M16.431 8.61663C15.3685 8.90899 13.6116 11.6734 13.2848 11.8374C12.9579 12.0013 12.8149 12.1653 12.9579 12.2472C13.101 12.3292 13.8252 12.1448 14.1882 12.1448C14.5514 12.1448 14.7965 12.0219 14.817 11.8374C14.8373 11.6531 14.6944 10.8537 15.1438 10.3006C15.5935 9.74734 16.3084 8.61675 17.8814 8.61675H18.6783C18.6783 8.61675 17.7589 8.25134 16.431 8.61675V8.61663Z" fill="#231F20"/>
<path d="M8.9823 10.3008C9.43182 10.8538 9.28882 11.6532 9.30922 11.8375C9.32961 12.022 9.57483 12.1449 9.93792 12.1449C10.3011 12.1449 11.0254 12.3294 11.1683 12.2473C11.3113 12.1653 11.1683 12.0014 10.8413 11.8375C10.5145 11.6737 8.75747 8.90911 7.69527 8.61675C6.36732 8.25134 5.44788 8.61675 5.44788 8.61675H6.24459C7.81775 8.61675 8.53277 9.74746 8.98218 10.3006L8.9823 10.3008Z" fill="#231F20"/>
<path d="M20.9868 15.362C19.8796 17.1269 18.3311 16.6531 17.6363 16.6121C16.9417 16.5712 17.0848 16.2638 16.8805 16.1818C16.6762 16.0998 16.1246 16.776 16.1246 16.776C16.1246 16.776 14.899 17.2473 17.3096 17.2884C19.7203 17.3293 20.7008 16.3867 21.6201 15.0957C22.5395 13.8047 21.8448 12.0628 21.8448 12.0015C21.8448 12.0015 21.7017 12.8621 21.7222 13.1079C21.7426 13.3539 22.0938 13.5973 20.9868 15.3619V15.362Z" fill="#231F20"/>
<path d="M8.87766 24.2286C7.80125 22.5751 8.75748 21.3812 9.04288 20.7804C9.32841 20.1797 9.53381 20.4235 9.67632 20.2735C9.81872 20.1232 9.45223 19.3767 9.45223 19.3767C9.45223 19.3767 9.50091 18.1098 8.59542 20.2333C7.68969 22.3566 8.1238 23.5852 8.87172 24.8921C9.61951 26.1988 11.328 26.2449 11.3793 26.2682C11.3793 26.2682 10.7109 25.814 10.4978 25.7386C10.2848 25.6633 9.95408 25.8822 8.87779 24.2286H8.87766Z" fill="#231F20"/>
<path d="M14.3857 18.2895C14.2654 18.3852 14.158 19.098 14.0268 19.4202C13.8956 19.7424 13.9098 20.0067 14.0566 20.0949C14.2037 20.1832 14.9241 20.3602 15.2245 20.9694C15.5248 21.5787 16.2124 22.6432 15.6438 24.039C15.5084 24.3713 15.3557 24.7459 15.3557 24.7459C15.3557 24.7459 15.9938 24.0692 16.1681 22.7519C16.3077 21.6982 14.6296 19.0877 14.6106 18.7353C14.5916 18.3829 14.5062 18.1937 14.3859 18.2894L14.3857 18.2895Z" fill="#231F20"/>
<path d="M5.41217 11.3894C5.50528 11.4677 7.70885 13.3106 9.00753 13.7905C10.113 14.1989 11.5852 15.5798 11.8687 15.8523C11.9233 15.905 11.9939 15.9313 12.0644 15.9313C12.1336 15.9313 12.2029 15.9059 12.2574 15.8549C13.0933 15.0719 13.5673 14.6659 13.6791 14.6003C13.9239 14.5626 14.7152 14.2243 15.0434 14.0273C15.4173 13.8034 18.7155 11.7065 18.8556 11.6172L18.6805 11.3403C18.6463 11.3621 15.2459 13.5242 14.8759 13.7458C14.5191 13.9595 13.7551 14.2625 13.6407 14.2759C13.5584 14.2759 13.4654 14.2759 12.0649 15.5867C11.6185 15.1606 10.2311 13.8929 9.12043 13.4826C7.87491 13.0222 5.64403 11.1567 5.6217 11.1379L5.41205 11.3893H5.41193L5.41217 11.3894Z" fill="#231F20"/>
<path d="M5.29384 30.3111C5.30137 30.3513 5.30197 30.3844 5.29578 30.4097C5.28522 30.4564 5.25475 30.493 5.20437 30.5201C5.15533 30.5465 5.10519 30.5495 5.05396 30.5293C5.00274 30.5092 4.95733 30.4615 4.91824 30.3858C4.87916 30.3103 4.8641 30.2432 4.87406 30.1847C4.88377 30.1263 4.91594 30.0822 4.96996 30.053C5.02325 30.0245 5.07072 30.0178 5.11236 30.0334C5.13566 30.0423 5.16018 30.0604 5.1858 30.0879C5.24625 30.0564 5.2766 30.0408 5.33742 30.0099C5.31472 29.968 5.27794 29.9338 5.22647 29.9075C5.13372 29.8606 5.02544 29.8693 4.90343 29.935C4.81227 29.984 4.75169 30.0533 4.72219 30.1412C4.6882 30.2424 4.70313 30.3514 4.76529 30.4687C4.82283 30.5768 4.89688 30.6457 4.9861 30.6762C5.07533 30.7065 5.16893 30.6945 5.26811 30.6413C5.34823 30.5984 5.40273 30.5405 5.43199 30.467C5.46125 30.3934 5.46501 30.3159 5.44231 30.2346C5.38282 30.2648 5.35308 30.2802 5.29384 30.3111Z" fill="#231F20"/>
<path d="M5.76507 30.2112C5.7329 30.1398 5.71699 30.1041 5.6847 30.0329C5.82552 29.9648 5.89617 29.9318 6.03821 29.8679C6.01757 29.819 6.00737 29.7947 5.98686 29.746C5.84373 29.8105 5.77235 29.8439 5.63032 29.9126C5.60385 29.8536 5.59062 29.8242 5.56416 29.7653C5.72027 29.6898 5.79894 29.6533 5.95651 29.5827C5.93575 29.5329 5.92519 29.5081 5.90443 29.4583C5.68397 29.557 5.57472 29.6088 5.35718 29.7168C5.48513 29.9927 5.54886 30.1308 5.67681 30.4066C5.89095 30.3004 5.99887 30.2496 6.21581 30.1524C6.19468 30.102 6.18424 30.0767 6.16312 30.0263C6.00312 30.0976 5.92349 30.1349 5.76507 30.2114V30.2112Z" fill="#231F20"/>
<path d="M6.50949 29.2021C6.58342 29.4013 6.62032 29.5009 6.69437 29.7001C6.50342 29.5476 6.40618 29.4726 6.20819 29.3258C6.1419 29.354 6.10876 29.3681 6.04272 29.3969C6.15769 29.679 6.21511 29.82 6.33007 30.102C6.38603 30.0774 6.41395 30.0654 6.47004 30.0417C6.39052 29.8405 6.35083 29.7402 6.27107 29.5393C6.4721 29.6888 6.57079 29.7649 6.7643 29.9205C6.82487 29.8964 6.85522 29.8845 6.91604 29.861C6.81261 29.5742 6.76102 29.4308 6.65771 29.144C6.59823 29.1669 6.56861 29.1787 6.50937 29.2022L6.50949 29.2021Z" fill="#231F20"/>
<path d="M7.36678 28.8901C7.11622 28.9728 6.99166 29.0173 6.7439 29.111C6.76198 29.1619 6.77085 29.1874 6.78881 29.2383C6.87998 29.2037 6.92575 29.1868 7.01716 29.1539C7.09728 29.3916 7.13722 29.5104 7.21734 29.7482C7.27889 29.7261 7.30984 29.7151 7.37151 29.6937C7.29382 29.455 7.25509 29.3357 7.1774 29.0969C7.26881 29.0651 7.3147 29.0496 7.40647 29.0193C7.39045 28.9676 7.38256 28.9419 7.36678 28.8901Z" fill="#231F20"/>
<path d="M7.96172 29.0455C7.94691 29.0584 7.92251 29.07 7.88851 29.0801C7.81993 29.1005 7.78581 29.1109 7.71747 29.1321C7.69452 29.0534 7.68311 29.0139 7.66029 28.9352C7.73131 28.9131 7.76688 28.9023 7.83801 28.8812C7.87115 28.8714 7.89725 28.8683 7.91631 28.8722C7.95006 28.8789 7.97276 28.9046 7.98478 28.9492C7.99595 28.9907 7.9883 29.0226 7.96196 29.0455H7.96172ZM8.24457 29.3552C8.23874 29.3439 8.23133 29.3213 8.22259 29.2877C8.21725 29.2678 8.21483 29.2578 8.20973 29.238C8.19625 29.1864 8.17889 29.1498 8.15777 29.1286C8.13665 29.1073 8.10678 29.095 8.06782 29.0914C8.10618 29.0653 8.13009 29.0329 8.13956 28.994C8.14927 28.9549 8.14951 28.9179 8.14041 28.8828C8.133 28.8537 8.12159 28.8291 8.10605 28.8089C8.09052 28.7889 8.07219 28.7719 8.05094 28.7577C8.02508 28.7406 7.99619 28.7302 7.96439 28.7268C7.9327 28.7234 7.88985 28.7288 7.83644 28.7435C7.68748 28.7873 7.61319 28.8102 7.46509 28.8581C7.5531 29.1503 7.59692 29.2963 7.6853 29.5884C7.74551 29.5689 7.77562 29.5594 7.83607 29.5406C7.80269 29.4256 7.78594 29.3682 7.75255 29.2533C7.81398 29.2342 7.84481 29.2248 7.9066 29.2063C7.95055 29.1932 7.98272 29.1923 8.00311 29.2033C8.02338 29.2142 8.04014 29.2431 8.05361 29.2901C8.06138 29.3171 8.06539 29.3308 8.07316 29.3582C8.07947 29.38 8.08712 29.4004 8.09695 29.4199C8.10156 29.4293 8.10848 29.4413 8.11783 29.4563C8.18642 29.4365 8.22065 29.4268 8.28936 29.408L8.28451 29.3895C8.26702 29.3845 8.25391 29.373 8.24481 29.3554H8.24493L8.24457 29.3552Z" fill="#231F20"/>
<path d="M8.56388 29.0375C8.57614 28.9107 8.5827 28.8471 8.59654 28.72C8.66245 28.8279 8.69499 28.8818 8.75945 28.9902C8.68115 29.0086 8.64194 29.0181 8.56388 29.0375ZM8.46689 28.5722C8.42379 28.8976 8.40497 29.0603 8.37305 29.3852C8.43824 29.3675 8.47089 29.3589 8.53632 29.3422C8.54191 29.2761 8.5447 29.2428 8.55077 29.1766C8.66197 29.1485 8.71781 29.1349 8.82937 29.109C8.86263 29.1658 8.87927 29.1941 8.91216 29.2511C8.98014 29.2355 9.01426 29.228 9.08236 29.2132C8.91556 28.9367 8.82961 28.7994 8.65274 28.5271C8.57833 28.5446 8.54118 28.5536 8.46689 28.5722Z" fill="#231F20"/>
<path d="M9.31077 29.0259C9.26524 28.7792 9.24266 28.656 9.19726 28.4094C9.1311 28.4225 9.09808 28.4291 9.03217 28.4428C9.09068 28.7428 9.11981 28.893 9.17833 29.1927C9.3915 29.1483 9.49857 29.1281 9.71295 29.0918C9.70433 29.0375 9.70008 29.0103 9.69134 28.956C9.53887 28.982 9.46288 28.9958 9.31077 29.0259Z" fill="#231F20"/>
<path d="M10.4939 28.8337C10.4762 28.8448 10.4508 28.8523 10.4176 28.8563C10.343 28.865 10.3058 28.8697 10.2315 28.8795C10.2215 28.7985 10.2167 28.7582 10.2067 28.6772C10.2831 28.6672 10.3212 28.6625 10.3978 28.6534C10.4313 28.6497 10.4576 28.6512 10.4768 28.6574C10.5114 28.6685 10.5306 28.6939 10.5347 28.7335C10.5395 28.7802 10.5259 28.8136 10.4941 28.8338L10.4939 28.8337ZM10.1705 28.3841C10.2395 28.375 10.2738 28.3706 10.3428 28.3623C10.3807 28.358 10.4132 28.3577 10.4375 28.3636C10.4664 28.3705 10.4836 28.3935 10.4871 28.4288C10.4904 28.4608 10.4822 28.4843 10.4622 28.4992C10.4423 28.5141 10.4154 28.5237 10.3813 28.5277C10.3052 28.5367 10.267 28.5415 10.1911 28.5513C10.1827 28.4845 10.1787 28.4509 10.1704 28.384L10.1705 28.3841ZM10.5617 28.5607C10.5864 28.5446 10.6051 28.5284 10.617 28.511C10.6386 28.4803 10.6473 28.442 10.643 28.3953C10.6388 28.3504 10.6232 28.3125 10.5957 28.2827C10.5501 28.2342 10.4784 28.2143 10.3808 28.2241C10.2265 28.242 10.1494 28.252 9.99536 28.2739C10.0358 28.5771 10.0558 28.7286 10.0961 29.0318C10.2328 29.0122 10.3013 29.0034 10.4385 28.9872C10.4772 28.9826 10.5126 28.9752 10.545 28.9646C10.5773 28.954 10.6046 28.9382 10.6273 28.9172C10.6474 28.8987 10.6634 28.8769 10.6758 28.8516C10.6952 28.8135 10.7029 28.7721 10.6987 28.727C10.6947 28.6832 10.6814 28.6467 10.6583 28.6182C10.6354 28.5895 10.6029 28.5703 10.5617 28.5603V28.5607Z" fill="#231F20"/>
<path d="M11.0447 28.6392C11.0767 28.5159 11.0931 28.4546 11.1267 28.3315C11.1743 28.4491 11.1978 28.5079 11.2439 28.6258C11.1642 28.6305 11.1243 28.6333 11.0447 28.6392ZM11.0229 28.1634C10.9295 28.4771 10.8854 28.6342 10.8029 28.949C10.8695 28.943 10.9029 28.94 10.9695 28.9348C10.9856 28.8704 10.9936 28.8382 11.01 28.7738C11.1233 28.7652 11.1802 28.7614 11.2938 28.7548C11.3177 28.8164 11.3293 28.8474 11.3528 28.909C11.422 28.9052 11.4566 28.9036 11.5258 28.9007C11.4057 28.5995 11.3431 28.4496 11.2124 28.1509C11.1366 28.1554 11.0988 28.1579 11.0229 28.1634Z" fill="#231F20"/>
<path d="M12.0895 28.1232C12.09 28.3365 12.0903 28.4433 12.0908 28.6567C11.967 28.4437 11.9031 28.3378 11.771 28.1273C11.7007 28.129 11.6654 28.13 11.5952 28.1324C11.6053 28.4384 11.6103 28.5912 11.6205 28.8971C11.6799 28.895 11.7098 28.8941 11.7693 28.8927C11.7642 28.6755 11.7616 28.567 11.7567 28.3499C11.8906 28.5638 11.9554 28.6716 12.0806 28.8882C12.1443 28.888 12.1762 28.8882 12.2403 28.8886C12.2425 28.5826 12.2436 28.4298 12.2458 28.1235C12.1833 28.123 12.1519 28.1229 12.0895 28.1232Z" fill="#231F20"/>
<path d="M12.8805 28.1419C12.7508 28.2616 12.687 28.3224 12.5621 28.445C12.5654 28.3189 12.5672 28.2559 12.5707 28.1297C12.5046 28.1277 12.4718 28.1268 12.4058 28.1257C12.4005 28.4317 12.3979 28.5845 12.3926 28.8907C12.4555 28.8918 12.487 28.8926 12.5498 28.8943C12.5528 28.7921 12.554 28.7409 12.5569 28.6386C12.5891 28.6083 12.6051 28.5931 12.6376 28.5631C12.7295 28.7 12.7745 28.7686 12.8622 28.907C12.9443 28.9111 12.9853 28.9134 13.0672 28.9188C12.9464 28.7304 12.8842 28.6369 12.7556 28.4511C12.8896 28.3308 12.9579 28.2712 13.0969 28.1542C13.0103 28.1486 12.9671 28.1463 12.8805 28.1419Z" fill="#231F20"/>
<path d="M13.9594 28.8191C13.9166 28.8608 13.8636 28.8778 13.8002 28.8704C13.7369 28.8631 13.6885 28.8344 13.6552 28.7838C13.6219 28.7335 13.6089 28.6654 13.6168 28.5796C13.6249 28.4939 13.6507 28.4299 13.694 28.3874C13.7376 28.345 13.7926 28.3275 13.858 28.3351C13.9237 28.3427 13.9731 28.3723 14.0061 28.4237C14.0389 28.475 14.0499 28.5433 14.0395 28.6285C14.0291 28.7139 14.0021 28.7774 13.9593 28.8189L13.9594 28.8191ZM13.8726 28.2003C13.7583 28.1871 13.6673 28.2117 13.6022 28.2611C13.5199 28.3238 13.4664 28.4245 13.4547 28.5643C13.4432 28.701 13.4772 28.8094 13.5447 28.8895C13.597 28.9519 13.6769 28.9923 13.7857 29.005C13.8942 29.0174 13.9809 28.9963 14.0454 28.9475C14.1282 28.8848 14.1843 28.7869 14.2024 28.6506C14.2207 28.5118 14.1903 28.4014 14.1236 28.3215C14.0708 28.2582 13.9872 28.2136 13.8727 28.2003H13.8726Z" fill="#231F20"/>
<path d="M14.2731 29.0485C14.3361 29.0579 14.3675 29.0629 14.4303 29.073C14.4495 28.9464 14.4589 28.883 14.4781 28.7562C14.6152 28.7783 14.6835 28.7903 14.8201 28.8156C14.8293 28.7633 14.8338 28.737 14.8428 28.6847C14.705 28.6591 14.6362 28.6472 14.4978 28.6248C14.5082 28.5552 14.5136 28.5205 14.5241 28.4509C14.6835 28.4767 14.763 28.4906 14.9219 28.5208C14.9313 28.4678 14.9359 28.4414 14.9452 28.3886C14.7193 28.3457 14.6061 28.3265 14.3789 28.2925C14.3366 28.5949 14.3153 28.7462 14.2728 29.0485H14.2731Z" fill="#231F20"/>
<path d="M15.8404 28.5849C15.7915 28.7923 15.7671 28.896 15.718 29.1033C15.6465 28.8655 15.6086 28.7469 15.5283 28.5098C15.4593 28.4938 15.4247 28.4862 15.3555 28.4709C15.2945 28.7705 15.264 28.9203 15.2031 29.2198C15.2616 29.2325 15.2911 29.239 15.3495 29.2523C15.3947 29.0404 15.4173 28.9344 15.4627 28.7223C15.5441 28.9632 15.5823 29.0839 15.6545 29.3256C15.7171 29.3412 15.7481 29.3494 15.8105 29.3657C15.8835 29.0692 15.9201 28.9209 15.993 28.6243C15.9319 28.6082 15.9015 28.6004 15.8404 28.5848V28.5849Z" fill="#231F20"/>
<path d="M16.133 28.6619C16.0572 28.9578 16.0196 29.1057 15.9438 29.4015C16.0058 29.4185 16.0366 29.4272 16.0985 29.4448C16.1772 29.1498 16.2165 29.0024 16.2952 28.7074C16.2302 28.6889 16.1979 28.6796 16.133 28.6619Z" fill="#231F20"/>
<path d="M16.6689 29.3238C16.7385 29.3463 16.7731 29.3579 16.8424 29.3813C16.8197 29.4261 16.7869 29.4574 16.7444 29.4757C16.7022 29.4939 16.6551 29.4947 16.6029 29.4777C16.5498 29.4604 16.5079 29.4268 16.4766 29.3764C16.4458 29.326 16.4427 29.256 16.4685 29.1658C16.4941 29.0763 16.5332 29.0153 16.5857 28.9832C16.6385 28.9512 16.696 28.9451 16.758 28.965C16.7902 28.9756 16.818 28.9904 16.8409 29.01C16.8819 29.0453 16.9008 29.09 16.8972 29.1437C16.9598 29.1647 16.991 29.1755 17.0534 29.1972C17.0676 29.1244 17.0527 29.0542 17.0083 28.9873C16.964 28.9202 16.8923 28.8701 16.7938 28.8382C16.6802 28.8017 16.5779 28.8091 16.4889 28.8601C16.3995 28.911 16.3393 28.9968 16.3068 29.1157C16.2744 29.2333 16.2835 29.3362 16.3289 29.4235C16.3732 29.5088 16.4432 29.5682 16.5409 29.5995C16.6002 29.6186 16.6538 29.6226 16.7022 29.6117C16.7303 29.6052 16.7646 29.5901 16.8052 29.5659C16.7999 29.6044 16.7972 29.6236 16.7919 29.6618C16.8325 29.6757 16.8529 29.6828 16.8935 29.6969C16.9442 29.5413 16.9696 29.4635 17.0202 29.308C16.8947 29.2642 16.8318 29.243 16.7057 29.2021C16.691 29.2509 16.6837 29.2752 16.6689 29.3238Z" fill="#231F20"/>
<path d="M17.4 29.2132C17.5606 29.2732 17.6407 29.3044 17.8002 29.3691C17.8193 29.3186 17.8289 29.2933 17.8479 29.2429C17.6252 29.1523 17.5131 29.1095 17.288 29.0281C17.1905 29.317 17.1417 29.4616 17.0443 29.7504C17.266 29.8305 17.3763 29.873 17.5956 29.9624C17.6151 29.9111 17.6247 29.8854 17.6442 29.8343C17.4828 29.7685 17.4016 29.7367 17.2385 29.6759C17.2644 29.6018 17.2773 29.5648 17.3031 29.4908C17.448 29.5448 17.5201 29.5731 17.6638 29.6309C17.6825 29.5815 17.6917 29.5567 17.7107 29.5072C17.5656 29.4487 17.4927 29.4204 17.3467 29.3659C17.3682 29.3048 17.3788 29.2743 17.4 29.2132Z" fill="#231F20"/>
<path d="M18.2668 29.7753C18.2472 29.7755 18.2211 29.7684 18.1881 29.7538C18.1219 29.7242 18.0886 29.7097 18.0222 29.6811C18.0528 29.6052 18.068 29.5672 18.0986 29.4912C18.1678 29.5211 18.2021 29.536 18.271 29.5667C18.3029 29.581 18.3252 29.5959 18.3376 29.6115C18.3601 29.6392 18.3619 29.674 18.3439 29.7164C18.3272 29.7556 18.3016 29.7753 18.267 29.7753H18.2668ZM18.438 29.8532C18.4696 29.8296 18.4926 29.8011 18.5072 29.7681C18.5192 29.7407 18.5253 29.7142 18.5255 29.6884C18.5258 29.6627 18.5219 29.6373 18.5139 29.6123C18.5042 29.5819 18.4877 29.5548 18.465 29.531C18.4421 29.5074 18.4053 29.4834 18.3544 29.4594C18.2106 29.3949 18.1384 29.3637 17.9937 29.303C17.8829 29.5867 17.8274 29.7287 17.7166 30.0124C17.7756 30.0371 17.805 30.0495 17.8637 30.0748C17.9084 29.964 17.9306 29.9086 17.9751 29.798C18.035 29.8236 18.0648 29.8368 18.1244 29.8632C18.1671 29.8822 18.1927 29.9028 18.202 29.9246C18.211 29.9464 18.2064 29.9799 18.1882 30.0249C18.1776 30.0512 18.1721 30.0644 18.1616 30.0904C18.153 30.1114 18.1465 30.1323 18.1422 30.1537C18.14 30.164 18.1382 30.178 18.136 30.1956C18.2019 30.2257 18.2348 30.2411 18.3005 30.2719L18.3081 30.2544C18.2974 30.2391 18.2943 30.2214 18.2979 30.2016C18.3003 30.1892 18.3084 30.1669 18.3222 30.1351C18.3304 30.1164 18.3346 30.1071 18.3427 30.0882C18.364 30.0394 18.3728 29.9997 18.3693 29.9694C18.3659 29.9392 18.35 29.9097 18.3217 29.8812C18.3678 29.8866 18.4066 29.8775 18.438 29.8535V29.8532Z" fill="#231F20"/>
<path d="M18.7307 29.6342C18.606 29.9118 18.5436 30.0505 18.4189 30.328C18.4778 30.3562 18.5072 30.3706 18.5661 30.3998C18.6935 30.1237 18.7575 29.9856 18.8851 29.7095C18.8234 29.679 18.7926 29.6639 18.7307 29.634V29.6342Z" fill="#231F20"/>
<path d="M19.204 30.4081C19.1312 30.3687 19.0949 30.3491 19.0217 30.3107C19.1115 30.2228 19.1568 30.1791 19.248 30.0923C19.2311 30.2189 19.2222 30.282 19.204 30.4083V30.4081ZM18.654 30.4439C18.7155 30.475 18.7464 30.4907 18.8078 30.5226C18.8538 30.4761 18.8772 30.4529 18.9237 30.4069C19.028 30.4615 19.08 30.4892 19.1835 30.546C19.1737 30.6118 19.1687 30.6446 19.1584 30.7102C19.2213 30.7451 19.2527 30.7627 19.3154 30.7984C19.3599 30.4746 19.3797 30.3117 19.4139 29.9846C19.3447 29.947 19.3101 29.9284 19.2406 29.8918C19.0013 30.1091 18.884 30.2196 18.6541 30.444L18.654 30.4439Z" fill="#231F20"/>
<path d="M6.81687 17.2882C4.4062 17.3291 3.42545 16.3866 2.50625 15.0956C1.58692 13.8045 2.28154 12.0627 2.28154 12.0013C2.28154 12.0013 2.42455 12.862 2.40403 13.1078C2.38364 13.3538 2.03244 13.5972 3.13944 15.3618C4.24645 17.1266 5.79533 16.6529 6.48983 16.6118C7.18446 16.5709 7.04145 16.2636 7.24564 16.1815C7.44995 16.0996 8.00157 16.7757 8.00157 16.7757C8.00157 16.7757 9.22729 17.2471 6.81663 17.2881H6.81675L6.81687 17.2882ZM7.69541 8.61664C8.75774 8.90899 10.5147 11.6734 10.8415 11.8374C11.1684 12.0013 11.3114 12.1653 11.1684 12.2472C11.0254 12.3292 10.3012 12.1448 9.93806 12.1448C9.57497 12.1448 9.32975 12.0219 9.30936 11.8374C9.28896 11.6531 9.43185 10.8537 8.98244 10.3006C8.53291 9.74734 7.8179 8.61676 6.24486 8.61676H5.44814C5.44814 8.61676 6.36747 8.25134 7.69553 8.61676L7.69541 8.61664ZM9.30936 17.1652C9.35003 16.8579 7.9609 15.7307 7.9609 15.7307L7.55228 15.5053C7.55228 15.5053 5.87946 16.6773 4.42672 15.7513C2.97386 14.8254 2.93538 13.4972 3.32348 11.7964C3.7117 10.0955 5.43636 9.46533 5.52984 9.41371C6.13791 9.07861 6.81699 9.23483 7.67501 9.75087C8.53303 10.2669 8.77825 11.0791 8.75774 11.4479C8.73734 11.8167 8.85995 12.37 9.12557 12.5136C9.39118 12.657 10.9437 12.9644 11.5711 13.0053C12.1983 13.0464 11.9447 12.3905 11.8835 12.0012C11.8222 11.6118 10.4739 10.3823 9.61576 9.41371C8.75762 8.44482 7.75659 7.65713 5.84449 7.84136C3.9324 8.02583 2.93526 9.37839 2.19972 10.3413C1.46431 11.3046 1.26923 13.4025 1.93411 15.075C2.59911 16.7476 4.28359 17.575 5.17172 17.8414C6.05973 18.1078 8.16533 17.8005 8.75774 17.739C9.35003 17.6776 9.26845 17.4726 9.30936 17.1652Z" fill="#D8AF7F"/>
<path d="M21.6201 15.0958C20.7007 16.3866 19.7202 17.3293 17.3096 17.2884C14.8989 17.2473 16.1245 16.776 16.1245 16.776C16.1245 16.776 16.6761 16.0998 16.8804 16.1818C17.0847 16.2639 16.9417 16.5712 17.6362 16.6121C18.331 16.6533 19.8796 17.1268 20.9867 15.3621C22.0937 13.5974 21.7425 13.354 21.7222 13.1081C21.7018 12.8622 21.8448 12.0016 21.8448 12.0016C21.8448 12.063 22.5394 13.8048 21.6201 15.0959V15.0958ZM17.8813 8.61679C16.3082 8.61679 15.5934 9.74749 15.1437 10.3007C14.6943 10.8537 14.8373 11.6531 14.817 11.8375C14.7964 12.0219 14.5513 12.1448 14.1881 12.1448C13.825 12.1448 13.1008 12.3293 12.9578 12.2472C12.8148 12.1653 12.9578 12.0014 13.2847 11.8375C13.6115 11.6736 15.3686 8.90902 16.4309 8.61667C17.7587 8.25125 18.6782 8.61667 18.6782 8.61667H17.8813V8.61679ZM21.9265 10.3416C21.191 9.37855 20.1938 8.02611 18.2817 7.84163C16.3697 7.65728 15.3687 8.4451 14.5107 9.41398C13.6526 10.3826 12.3042 11.6122 12.2429 12.0015C12.1815 12.3908 11.9281 13.0466 12.5554 13.0055C13.1827 12.9646 14.7354 12.6572 15.0009 12.5139C15.2665 12.3703 15.3891 11.817 15.3687 11.4482C15.3483 11.0794 15.5934 10.2672 16.4515 9.75115C17.3097 9.23511 17.9888 9.07876 18.5966 9.41398C18.6902 9.46561 20.415 10.0957 20.8029 11.7967C21.1912 13.4975 21.1527 14.8257 19.6998 15.7515C18.247 16.6775 16.5741 15.5055 16.5741 15.5055L16.1655 15.7309C16.1655 15.7309 14.7763 16.8579 14.8173 17.1654C14.8581 17.4727 14.7763 17.6778 15.3689 17.7392C15.9612 17.8006 18.0668 18.108 18.9549 17.8416C19.843 17.5751 21.5276 16.7477 22.1923 15.0752C22.8572 13.4026 22.6622 11.3047 21.9267 10.3415L21.9265 10.3416Z" fill="#D8AF7F"/>
<path d="M16.1681 22.7517C15.9937 24.069 15.3557 24.7458 15.3557 24.7458C15.3557 24.7458 15.5084 24.3711 15.6438 24.0388C16.2124 22.6431 15.5248 21.5787 15.2245 20.9693C14.9241 20.3602 14.2036 20.1831 14.0566 20.0948C13.9097 20.0065 13.8955 19.7422 14.0268 19.4201C14.1581 19.0978 14.2654 18.3851 14.3859 18.2894C14.5062 18.1937 14.5917 18.3829 14.6106 18.7352C14.6296 19.0876 16.3077 21.6981 16.1681 22.7519V22.7517ZM8.8716 24.892C8.12369 23.5852 7.68958 22.3565 8.59531 20.2332C9.50092 18.1097 9.45212 19.3765 9.45212 19.3765C9.45212 19.3765 9.81849 20.1231 9.67621 20.2733C9.53369 20.4235 9.32829 20.1797 9.04277 20.7804C8.75749 21.381 7.80114 22.5751 8.87755 24.2286C9.95384 25.8822 10.2845 25.6632 10.4976 25.7386C10.7106 25.814 11.379 26.2682 11.379 26.2682C11.3278 26.2449 9.61928 26.1986 8.87148 24.8921L8.8716 24.892ZM14.85 17.7484C14.5465 17.5459 14.0894 17.0717 13.897 17.6438C13.7045 18.216 13.4005 19.7104 13.4244 20.0007C13.4484 20.291 13.8671 20.6101 14.1831 20.7323C14.499 20.8544 16.0103 22.4316 14.2694 24.6597C14.2081 24.7383 13.4907 25.724 11.9275 25.4215C10.3642 25.1191 9.26674 24.5798 9.01728 22.9386C8.76769 21.2973 10.3529 20.2586 10.3529 20.2586L10.312 19.8104C10.312 19.8104 9.87117 18.149 9.59912 18.0684C9.3272 17.9877 9.18541 17.8374 8.9198 18.3397C8.65418 18.842 7.63592 20.5932 7.53783 21.4825C7.43975 22.3717 7.52314 24.1814 8.68223 25.4072C9.84119 26.6333 11.667 27.2581 12.7386 26.972C13.8104 26.6857 15.3023 26.3152 16.1478 24.6888C16.9932 23.0624 16.6959 21.8743 16.1954 20.7446C15.6951 19.6148 15.1538 17.9508 14.8501 17.7484H14.85Z" fill="#D8AF7F"/>
</g>
<defs>
<clipPath id="clip0_4907_5982">
<rect width="24" height="32" fill="white"/>
</clipPath>
</defs>
</svg>
