<svg width="283" height="212" viewBox="0 0 283 212" fill="none" xmlns="http://www.w3.org/2000/svg">
<path d="M215.438 2V12.3308" stroke="#7DA851" stroke-width="2.35668" stroke-linecap="round" stroke-linejoin="round"/>
<path d="M210.286 7.1543H220.593" stroke="#7DA851" stroke-width="2.35668" stroke-linecap="round" stroke-linejoin="round"/>
<path d="M61.8438 5.30908V15.6159" stroke="#7DA851" stroke-width="2.35668" stroke-linecap="round" stroke-linejoin="round"/>
<path d="M56.6904 10.4619H67.0212" stroke="#7DA851" stroke-width="2.35668" stroke-linecap="round" stroke-linejoin="round"/>
<path d="M149.02 198.957V209.264" stroke="#7DA851" stroke-width="2.35668" stroke-linecap="round" stroke-linejoin="round"/>
<path d="M143.868 204.11H154.175" stroke="#7DA851" stroke-width="2.35668" stroke-linecap="round" stroke-linejoin="round"/>
<path d="M140.939 12.8817C140.939 13.5282 140.414 14.0524 139.768 14.0524C139.121 14.0524 138.597 13.5283 138.597 12.8817C138.597 12.2352 139.121 11.7111 139.768 11.7111C140.414 11.7111 140.939 12.2352 140.939 12.8817Z" fill="#CFCFCF" stroke="#7DA851" stroke-width="2.35668"/>
<path d="M237.608 41.6932C237.608 42.3398 237.083 42.8639 236.437 42.8639C235.79 42.8639 235.266 42.3398 235.266 41.6932C235.266 41.0467 235.79 40.5226 236.437 40.5226C237.083 40.5226 237.608 41.0467 237.608 41.6932Z" fill="#CFCFCF" stroke="#7DA851" stroke-width="2.35668"/>
<path d="M60.4718 190.447C60.4718 191.094 59.9477 191.618 59.3011 191.618C58.6546 191.618 58.1305 191.094 58.1305 190.447C58.1305 189.801 58.6546 189.276 59.3011 189.276C59.9477 189.276 60.4718 189.801 60.4718 190.447Z" fill="#CFCFCF" stroke="#7DA851" stroke-width="2.35668"/>
<path d="M190.439 78.439C170.377 78.439 149.955 77.6241 130.852 72.3029C112.108 67.1015 94.8975 57.0104 79.5572 45.3374C69.514 37.7391 60.3817 31.6988 47.3424 32.6096C34.5751 33.3086 22.372 38.0991 12.5389 46.2722C-4.04792 60.6538 -1.55511 87.5714 5.0844 106.483C15.0556 134.959 45.4008 154.686 71.1919 167.581C100.986 182.466 133.728 191.095 166.542 196.081C195.305 200.443 232.266 203.631 257.194 184.839C280.085 167.581 286.365 128.175 280.756 101.569C279.396 93.7024 275.211 86.6025 268.987 81.603C252.903 69.858 228.91 77.696 210.837 78.1035C204.126 78.2473 197.295 78.4151 190.439 78.439Z" fill="#F2F2F2"/>
<path d="M62.7298 63.2662C60.1651 61.109 49.1871 51.4253 45.0165 48.3093C60.9081 39.2249 75.4575 39.8002 81.8574 43.5155C86.1479 45.9124 87.8257 45.9124 92.1402 43.9229C127.016 27.9593 162.251 25.4426 196.91 43.9229C231.57 62.4033 241.589 100.203 221.047 134.144C219.681 136.619 219.255 139.505 219.849 142.269C222.797 153.343 226.177 164.321 229.7 175.227C231.402 180.548 229.7 183.425 224.427 184.431C224.002 184.468 223.584 184.557 223.181 184.695C207.768 191.191 194.969 188.17 185.069 174.364C183.116 171.43 181.385 168.353 179.892 165.16C167.164 175.85 135.045 178.415 135.045 178.415C134.948 181.044 134.668 183.663 134.206 186.253C131.114 202.312 120.424 208.353 105.108 209.671C96.2629 210.438 95.3281 210.606 94.0817 201.521C93.1229 194.594 92.5477 187.571 91.2773 180.692C91.0228 179.589 90.5392 178.551 89.8578 177.647C89.1765 176.743 88.3127 175.992 87.3224 175.443C75.9101 170.734 65.4614 163.966 56.4978 155.476C53.8611 153.079 48.8755 152.576 44.8487 152.025C29.0768 149.867 31.8094 152.025 28.5255 137.14C26.8237 129.47 24.8822 121.799 23.8995 114.033C23.5639 111.636 25.2417 107.298 27.1833 106.411C32.7568 103.911 37.721 100.231 41.7327 95.6248C43.6933 93.3051 45.412 90.7912 46.8621 88.1224C48.8632 83.7293 51.0873 79.4412 53.5256 75.2748C56.3779 71.1042 59.8056 67.3889 62.7298 63.2662Z" fill="white" stroke="#D1D5DB" stroke-width="2.35668" stroke-linecap="round" stroke-linejoin="round"/>
<path d="M228.767 77.8146C228.767 77.8146 244.467 80.7628 249.932 73.3563C255.924 65.2067 249.404 58.9747 246.072 58.3035C239.505 57.2249 235.286 63.5049 238.474 68.1789" stroke="#D1D5DB" stroke-width="2.35668" stroke-linecap="round" stroke-linejoin="round"/>
<path d="M108.799 47.8786C110.117 48.0464 151.536 38.9141 151.536 38.9141L108.799 47.8786Z" fill="white"/>
<path d="M108.799 47.8786C110.117 48.0464 151.536 38.9141 151.536 38.9141" stroke="#D1D5DB" stroke-width="2.35668" stroke-linecap="round" stroke-linejoin="round"/>
<path d="M58.0089 97.3027L48.8047 99.2203L57.5056 104.925" fill="white"/>
<path d="M58.0089 97.3027L48.8047 99.2203L57.5056 104.925" stroke="#D1D5DB" stroke-width="2.35668" stroke-linecap="round" stroke-linejoin="round"/>
<path d="M27.7832 134.527C27.7832 134.527 43.7468 130.62 51.3211 136.924" stroke="#D1D5DB" stroke-width="2.35668" stroke-linecap="round" stroke-linejoin="round"/>
<path d="M60.8604 61.6367L72.6053 71.584" stroke="#D1D5DB" stroke-width="2.35668" stroke-linecap="round" stroke-linejoin="round"/>
<path d="M77.4463 41.6934C78.6927 42.1248 89.2632 43.2753 91.9957 56.866L77.4463 41.6934Z" fill="white"/>
<path d="M77.4463 41.6934C78.6927 42.1248 89.2632 43.2753 91.9957 56.866" stroke="#D1D5DB" stroke-width="2.35668" stroke-linecap="round" stroke-linejoin="round"/>
</svg>
