<svg width="22" height="28" viewBox="0 0 22 28" fill="none" xmlns="http://www.w3.org/2000/svg">
<path fill-rule="evenodd" clip-rule="evenodd" d="M11 2.57078e-06C8.43867 2.57078e-06 5.912 0.148003 3.42667 0.436003C1.43067 0.668003 0 2.38267 0 4.34267V27C3.80391e-05 27.1635 0.0401433 27.3244 0.116805 27.4688C0.193466 27.6131 0.304346 27.7365 0.439739 27.8281C0.575132 27.9197 0.730909 27.9767 0.893434 27.9941C1.05596 28.0115 1.22028 27.9888 1.372 27.928L6 26.0773L10.6293 27.928C10.8673 28.023 11.1327 28.023 11.3707 27.928L16 26.0773L20.628 27.928C20.7797 27.9888 20.944 28.0115 21.1066 27.9941C21.2691 27.9767 21.4249 27.9197 21.5603 27.8281C21.6957 27.7365 21.8065 27.6131 21.8832 27.4688C21.9599 27.3244 22 27.1635 22 27V4.34267C22 2.38267 20.5693 0.668003 18.5733 0.436003C16.0594 0.144871 13.5307 -0.000705538 11 2.57078e-06ZM15.7067 9.70667C15.8833 9.5171 15.9795 9.26637 15.9749 9.00731C15.9703 8.74824 15.8654 8.50106 15.6822 8.31784C15.4989 8.13462 15.2518 8.02967 14.9927 8.0251C14.7336 8.02053 14.4829 8.1167 14.2933 8.29334L6.29333 16.2933C6.19509 16.3849 6.11628 16.4953 6.06163 16.618C6.00697 16.7406 5.97758 16.873 5.97521 17.0073C5.97284 17.1416 5.99754 17.275 6.04784 17.3995C6.09813 17.524 6.17299 17.6371 6.26795 17.7321C6.36291 17.827 6.47602 17.9019 6.60054 17.9522C6.72505 18.0025 6.85843 18.0272 6.9927 18.0248C7.12697 18.0224 7.25939 17.993 7.38205 17.9384C7.50472 17.8837 7.61512 17.8049 7.70667 17.7067L15.7067 9.70667ZM6.5 10C6.5 9.60218 6.65804 9.22065 6.93934 8.93934C7.22064 8.65804 7.60218 8.5 8 8.5C8.39783 8.5 8.77936 8.65804 9.06066 8.93934C9.34196 9.22065 9.5 9.60218 9.5 10C9.5 10.3978 9.34196 10.7794 9.06066 11.0607C8.77936 11.342 8.39783 11.5 8 11.5C7.60218 11.5 7.22064 11.342 6.93934 11.0607C6.65804 10.7794 6.5 10.3978 6.5 10ZM14 14.5C13.6022 14.5 13.2206 14.658 12.9393 14.9393C12.658 15.2206 12.5 15.6022 12.5 16C12.5 16.3978 12.658 16.7794 12.9393 17.0607C13.2206 17.342 13.6022 17.5 14 17.5C14.3978 17.5 14.7794 17.342 15.0607 17.0607C15.342 16.7794 15.5 16.3978 15.5 16C15.5 15.6022 15.342 15.2206 15.0607 14.9393C14.7794 14.658 14.3978 14.5 14 14.5Z" fill="#B45309"/>
</svg>
