<svg fill="none" height="136" viewBox="0 0 188 136" width="188" xmlns="http://www.w3.org/2000/svg"><path d="m126.609 55.1366c-13.338 0-26.9147-.5418-39.6153-4.0795-12.4616-3.458-23.9032-10.1668-34.1019-17.9274-6.677-5.0515-12.7484-9.0673-21.4173-8.4617-8.488.4647-16.601 3.6495-23.13832 9.0832-11.02735 9.5613-9.37006 27.4568-4.95594 40.0299 6.62916 18.9314 26.80346 32.0459 43.95006 40.6199 19.8078 9.896 41.5756 15.632 63.3917 18.947 19.122 2.9 43.695 5.02 60.268-7.474 15.218-11.473 19.393-37.6713 15.664-55.3597-.904-5.2302-3.686-9.9504-7.824-13.2742-10.693-7.8084-26.644-2.5975-38.66-2.3266-4.462.0956-9.003.2072-13.561.2231z" fill="#f2f2f2"/><path d="m136.283 6.85521-90.0912 32.54139c-3.1041 1.1212-4.7115 4.5465-3.5903 7.6506l19.0073 52.6218c1.1212 3.104 4.5465 4.712 7.6506 3.59l90.0916-32.5411c3.104-1.1212 4.711-4.5465 3.59-7.6505l-19.007-52.6219c-1.122-3.10408-4.547-4.7115-7.651-3.59029z" fill="#7da851" fill-opacity=".4"/><path d="m67.2497 131.372c.8625 0 1.5616-.699 1.5616-1.562 0-.862-.6991-1.561-1.5616-1.561s-1.5617.699-1.5617 1.561c0 .863.6992 1.562 1.5617 1.562z" fill="#7da851"/><path d="m108.714 3.12335c.862 0 1.561-.69918 1.561-1.56167 0-.862494-.699-1.56168-1.561-1.56168-.863 0-1.562.699186-1.562 1.56168 0 .86249.699 1.56167 1.562 1.56167z" fill="#7da851"/><g stroke="#7da851" stroke-linecap="round" stroke-linejoin="round" stroke-width="1.59355"><path d="m65.3214 13.2104v6.8682"/><path d="m61.8794 16.6528h6.8682"/><path d="m166.081 38.5957v6.8523"/><path d="m162.639 42.022h6.869"/><path d="m139.72 41.8368-94.7257 14.2245c-3.2638.4901-5.5123 3.5332-5.0222 6.797l8.3085 55.3287c.4901 3.264 3.5332 5.513 6.797 5.023l94.7264-14.225c3.263-.49 5.512-3.533 5.022-6.797l-8.309-55.3291c-.49-3.2637-3.533-5.5122-6.797-5.0221z" fill="#fff" stroke-opacity=".3"/></g><path d="m134.097 50.6188-7.974 1.1974c-1.331.1999-2.249 1.4415-2.049 2.7731l1.198 7.974c.2 1.3316 1.441 2.249 2.773 2.049l7.974-1.1974c1.331-.2 2.249-1.4415 2.049-2.7732l-1.198-7.9739c-.2-1.3316-1.441-2.249-2.773-2.049z" fill="#7da851" fill-opacity=".5"/><path d="m80.3835 98.4141-23.3072 3.4999c-.7311.11-1.2347.791-1.125 1.523l.1042.693c.1097.731.7914 1.235 1.5225 1.125l23.3072-3.5c.7311-.11 1.2348-.791 1.125-1.523l-.1041-.693c-.1098-.731-.7915-1.2347-1.5226-1.1249z" fill="#7da851" fill-opacity=".5"/><path d="m96.1407 102.884-37.7107 5.663c-.9226.139-1.5582.999-1.4196 1.921.1385.923.9987 1.558 1.9212 1.42l37.7108-5.663c.9226-.139 1.5581-.999 1.4196-1.921-.1385-.923-.9987-1.558-1.9213-1.42z" fill="#7da851" fill-opacity=".5"/></svg>