<svg fill="none" height="208" viewBox="0 0 252 208" width="252" xmlns="http://www.w3.org/2000/svg"><path d="m169.392 89.7154c-17.845 0-36.01-.7249-53.002-5.458-16.6728-4.6265-31.9807-13.6023-45.6256-23.9852-8.9332-6.7585-17.0562-12.1312-28.6544-11.3211-11.3562.6217-22.2106 4.8828-30.957 12.1526-14.75354 12.7921-12.53624 36.7347-6.63054 53.5563 8.86924 25.328 35.86064 42.875 58.80114 54.345 26.501 13.24 55.6244 20.915 84.8114 25.35 25.585 3.88 58.46 6.716 80.633-9.999 20.361-15.351 25.947-50.401 20.958-74.067-1.209-6.997-4.931-13.3124-10.468-17.7593-14.306-10.4469-35.647-3.4752-51.723-3.1128-5.969.1279-12.046.2772-18.143.2985z" fill="#f2f2f2"/><path d="m205.701 63.6621v9.189" stroke="#7da851" stroke-linecap="round" stroke-linejoin="round"/><path d="m201.116 68.2676h9.168" stroke="#7da851" stroke-linecap="round" stroke-linejoin="round"/><path d="m51.7255 140.884v9.167" stroke="#7da851" stroke-linecap="round" stroke-linejoin="round"/><path d="m47.12 145.468h9.189" stroke="#7da851" stroke-linecap="round" stroke-linejoin="round"/><path d="m38.8699 25.4561v9.1676" stroke="#7da851" stroke-linecap="round" stroke-linejoin="round"/><path d="m34.2643 30.04h9.189" stroke="#7da851" stroke-linecap="round" stroke-linejoin="round"/><path d="m138.776 4.17876c1.154 0 2.09-.93545 2.09-2.08938 0-1.153933-.936-2.08938-2.09-2.08938s-2.089.935447-2.089 2.08938c0 1.15393.935 2.08938 2.089 2.08938z" fill="#cfcfcf"/><path d="m133.786 208c1.154 0 2.09-.935 2.09-2.089s-.936-2.09-2.09-2.09-2.089.936-2.089 2.09.935 2.089 2.089 2.089z" fill="#7da851"/><g stroke="#7da851"><path d="m57.1122 27.2761 121.5958-12.6301c2.501-.2598 4.739 1.5571 4.999 4.0582l16.63 160.1058c.26 2.501-1.557 4.74-4.058 4.999l-121.596 12.63c-2.501.26-4.7391-1.557-4.9989-4.058l-16.6301-160.106c-.2598-2.5011 1.5571-4.7391 4.0582-4.9989z" fill="#fff"/><path d="m173.424 21.5396-109.7415 11.3988c-2.7757.2883-4.7922 2.7722-4.5039 5.5479l15.0398 144.7957c.2883 2.775 2.7722 4.792 5.5479 4.504l109.7417-11.399c2.776-.289 4.792-2.772 4.504-5.548l-15.04-144.7955c-.288-2.7757-2.772-4.7922-5.548-4.5039z" fill="#fff" stroke-linecap="round" stroke-linejoin="round"/><path d="m154.489 28.6326-1.706-16.4166c-.086-.6814-.435-1.302-.973-1.7286s-1.222-.625-1.905-.55265l-20.297 2.13205c-.165-1.6379-.651-3.22723-1.431-4.67723-.779-1.45-1.837-2.73228-3.112-3.77364s-2.742-1.82139-4.319-2.29557c-1.576-.474177-3.23-.633214-4.868-.468025-1.638.165185-3.228.651365-4.678 1.430775-1.45.7794-2.732 1.83678-3.773 3.11175-2.103 2.57492-3.097 5.87984-2.764 9.18774l-20.3606 2.132c-.3431.0346-.676.1366-.9797.3-.3036.1635-.5721.3853-.7899.6526-.2179.2674-.3808.5751-.4796.9055s-.1314.6771-.096 1.0201l1.7056 16.4166c.0346.3431.1366.676.3001.9797.1635.3036.3852.5721.6526.7899.2673.2179.575.3808.9054.4796s.6771.1314 1.0202.096l65.6239-6.8225c.344-.0344.678-.1371.982-.3022s.572-.3892.789-.6593c.216-.27.377-.5805.472-.9133.094-.3328.122-.6812.081-1.0247z" fill="#fff" stroke-linecap="round" stroke-linejoin="round"/><path d="m101.722 128.71c.698-6.326 3.541-12.223 8.056-16.709 4.516-4.487 10.431-7.292 16.762-7.95 6.33-.658 12.696.872 18.037 4.334s9.336 8.649 11.319 14.697" stroke-linecap="round" stroke-linejoin="round"/><path d="m104.834 79.8872-10.2121 12.5789" stroke-linecap="round" stroke-linejoin="round"/><path d="m93.4487 81.0801 12.5573 10.191" stroke-linecap="round" stroke-linejoin="round"/><path d="m154.211 74.7695-10.212 12.5576" stroke-linecap="round" stroke-linejoin="round"/><path d="m142.827 75.9429 12.557 10.2124" stroke-linecap="round" stroke-linejoin="round"/></g></svg>