<svg width="177" height="297" viewBox="0 0 177 297" fill="none" xmlns="http://www.w3.org/2000/svg">
<path d="M86.6975 169.613V80.3246C86.6975 58.6529 77.9391 39.0359 63.7741 24.839C49.6089 10.6422 30.0431 1.85547 8.42822 1.85547V91.1438C8.42822 134.481 43.4681 169.613 86.6973 169.613V169.613L86.6975 169.613Z" fill="#E9ECE6"/>
<path d="M177 91.1439V50.5195C155.385 50.5195 135.819 59.301 121.654 73.5031C107.489 87.7056 98.7309 107.323 98.7309 128.994V236.837C98.7309 243.504 93.3412 248.913 86.6921 248.913V169.668C51.3316 172.902 23.6426 202.707 23.6426 239.002C23.6426 251.034 26.6854 262.346 32.0418 272.218C35.151 277.949 39.0443 283.192 43.5726 287.804H43.5621L93.087 338.999L143.087 287.312H143.059C155.109 274.793 162.532 257.766 162.532 238.996C162.532 202.486 134.505 172.542 98.8414 169.614C142.016 169.553 177 134.443 177 91.1441L177 91.1439Z" fill="#E9ECE6"/>
<path d="M78.2693 168.211V78.9222C78.2693 57.2505 69.5108 37.6336 55.3459 23.4367C41.1806 9.23982 21.6149 0.453125 0 0.453125V89.7414C0 133.079 35.0399 168.211 78.2691 168.211V168.21L78.2693 168.211Z" fill="#7CA853"/>
<path d="M168.572 89.7416V49.1172C146.957 49.1172 127.391 57.8986 113.226 72.1008C99.0611 86.3032 90.3027 105.921 90.3027 127.592V235.435C90.3027 242.101 84.9129 247.511 78.2639 247.511V168.266C42.9034 171.5 15.2144 201.305 15.2144 237.6C15.2144 249.631 18.2572 260.943 23.6136 270.816C26.7228 276.546 30.6161 281.79 35.1444 286.402H35.1338L84.6588 337.596L134.659 285.909H134.631C146.681 273.39 154.103 256.364 154.103 237.594C154.103 201.084 126.077 171.14 90.4132 168.211C133.588 168.15 168.572 133.04 168.572 89.7417L168.572 89.7416Z" fill="#7CA853"/>
</svg>
