<svg width="444" height="322" viewBox="0 0 444 322" fill="none" xmlns="http://www.w3.org/2000/svg">
<path d="M19.5595 0.603896H424.441C434.994 0.603896 443.396 7.98992 443.396 16.9244V304.076C443.396 313.01 434.994 320.396 424.441 320.396H19.5595C9.00561 320.396 0.603896 313.01 0.603896 304.076V16.9244C0.603896 7.98992 9.00561 0.603896 19.5595 0.603896Z" fill="white" stroke="#E5E7EB" stroke-width="1.20779"/>
<path opacity="0.5" d="M106.167 88.4131H107.878L111.3 94.184H111.445L114.868 88.4131H116.579L112.12 95.6811V100.776H110.626V95.6811L106.167 88.4131ZM120.771 100.969C119.935 100.969 119.202 100.769 118.571 100.371C117.945 99.9732 117.454 99.4155 117.101 98.699C116.751 97.9831 116.577 97.1456 116.577 96.1878C116.577 95.2222 116.751 94.3795 117.101 93.659C117.454 92.9385 117.945 92.3789 118.571 91.9807C119.202 91.5826 119.935 91.3832 120.771 91.3832C121.606 91.3832 122.337 91.5826 122.964 91.9807C123.595 92.3789 124.085 92.9385 124.434 93.659C124.788 94.3795 124.965 95.2222 124.965 96.1878C124.965 97.1456 124.788 97.9831 124.434 98.699C124.085 99.4155 123.595 99.9732 122.964 100.371C122.337 100.769 121.606 100.969 120.771 100.969ZM120.771 99.6894C121.405 99.6894 121.928 99.526 122.337 99.2004C122.747 98.8742 123.05 98.446 123.248 97.9144C123.444 97.3836 123.543 96.8076 123.543 96.1878C123.543 95.5687 123.444 94.9907 123.248 94.4559C123.05 93.9205 122.747 93.4877 122.337 93.1582C121.928 92.828 121.405 92.6626 120.771 92.6626C120.136 92.6626 119.613 92.828 119.204 93.1582C118.794 93.4877 118.491 93.9205 118.294 94.4559C118.097 94.9907 117.999 95.5687 117.999 96.1878C117.999 96.8076 118.097 97.3836 118.294 97.9144C118.491 98.446 118.794 98.8742 119.204 99.2004C119.613 99.526 120.136 99.6894 120.771 99.6894ZM132.969 96.9848V91.5041H134.391V100.776H132.969V99.2063H132.872C132.656 99.677 132.318 100.078 131.86 100.407C131.402 100.734 130.824 100.896 130.125 100.896C129.546 100.896 129.031 100.769 128.582 100.516C128.132 100.259 127.778 99.8725 127.521 99.3573C127.264 98.8382 127.135 98.1844 127.135 97.3953V91.5041H128.558V97.2986C128.558 97.9746 128.746 98.5139 129.124 98.9167C129.506 99.3187 129.992 99.5201 130.582 99.5201C130.936 99.5201 131.296 99.4299 131.661 99.2488C132.03 99.0677 132.34 98.7898 132.589 98.4152C132.842 98.0413 132.969 97.5647 132.969 96.9848ZM136.996 100.776V91.5041H138.37V92.9045H138.466C138.635 92.4456 138.94 92.0736 139.382 91.7879C139.824 91.5022 140.322 91.359 140.877 91.359C140.981 91.359 141.112 91.361 141.268 91.3649C141.425 91.3695 141.543 91.3753 141.623 91.3832V92.832C141.576 92.8195 141.465 92.8019 141.292 92.7777C141.123 92.7496 140.945 92.7352 140.756 92.7352C140.306 92.7352 139.904 92.83 139.551 93.0189C139.201 93.204 138.924 93.4616 138.719 93.7917C138.518 94.1179 138.418 94.4899 138.418 94.9084V100.776H136.996ZM148.998 104.253C148.757 104.253 148.542 104.233 148.353 104.192C148.164 104.156 148.034 104.12 147.961 104.083L148.323 102.828C148.669 102.916 148.974 102.949 149.239 102.924C149.504 102.901 149.739 102.782 149.944 102.569C150.153 102.359 150.344 102.02 150.517 101.548L150.782 100.824L147.359 91.5041H148.902L151.457 98.8925H151.553L154.108 91.5041H155.651L151.722 102.128C151.545 102.607 151.326 103.003 151.065 103.317C150.804 103.635 150.5 103.87 150.155 104.023C149.814 104.176 149.428 104.253 148.998 104.253ZM157.528 100.776V91.5041H158.95V100.776H157.528ZM158.251 89.9586C157.974 89.9586 157.735 89.8638 157.534 89.6749C157.337 89.4859 157.238 89.2584 157.238 88.993C157.238 88.7275 157.337 88.5 157.534 88.3104C157.735 88.1215 157.974 88.0273 158.251 88.0273C158.528 88.0273 158.765 88.1215 158.962 88.3104C159.163 88.5 159.264 88.7275 159.264 88.993C159.264 89.2584 159.163 89.4859 158.962 89.6749C158.765 89.8638 158.528 89.9586 158.251 89.9586ZM165.435 100.969C164.544 100.969 163.774 100.771 163.128 100.377C162.485 99.9791 161.989 99.4234 161.639 98.7114C161.294 97.9948 161.121 97.1619 161.121 96.212C161.121 95.2627 161.294 94.4252 161.639 93.7015C161.989 92.9725 162.475 92.4057 163.098 91.999C163.724 91.5885 164.456 91.3832 165.291 91.3832C165.773 91.3832 166.249 91.4636 166.719 91.6244C167.189 91.7859 167.617 92.0474 168.003 92.4096C168.389 92.7672 168.696 93.2425 168.925 93.8342C169.154 94.4252 169.268 95.1542 169.268 96.0191V96.6226H162.134V95.3915H167.822C167.822 94.8685 167.718 94.4017 167.509 93.9911C167.304 93.5805 167.01 93.2563 166.629 93.0189C166.251 92.7816 165.805 92.6626 165.291 92.6626C164.725 92.6626 164.234 92.8038 163.821 93.0856C163.411 93.3628 163.096 93.725 162.874 94.1722C162.654 94.6187 162.543 95.0973 162.543 95.6086V96.4297C162.543 97.1299 162.663 97.7235 162.905 98.2106C163.15 98.6931 163.489 99.0612 163.923 99.3148C164.357 99.5646 164.861 99.6894 165.435 99.6894C165.809 99.6894 166.147 99.6371 166.448 99.5325C166.753 99.4234 167.017 99.2625 167.237 99.0494C167.459 98.8323 167.629 98.5623 167.75 98.2407L169.124 98.6271C168.979 99.0939 168.736 99.5038 168.395 99.8581C168.053 100.209 167.631 100.482 167.129 100.679C166.627 100.872 166.063 100.969 165.435 100.969ZM172.854 88.4131V100.776H171.431V88.4131H172.854ZM178.953 100.969C178.183 100.969 177.501 100.773 176.911 100.383C176.321 99.9889 175.858 99.4338 175.525 98.7173C175.191 97.9968 175.024 97.1456 175.024 96.1643C175.024 95.1901 175.191 94.3448 175.525 93.6289C175.858 92.9124 176.323 92.3593 176.917 91.969C177.512 91.5787 178.198 91.3832 178.978 91.3832C179.581 91.3832 180.056 91.4839 180.406 91.6852C180.759 91.882 181.029 92.1076 181.214 92.3612C181.402 92.6103 181.549 92.8156 181.654 92.9771H181.774V88.4131H183.196V100.776H181.822V99.3514H181.654C181.549 99.5201 181.4 99.7332 181.207 99.9908C181.015 100.245 180.739 100.472 180.382 100.673C180.024 100.87 179.548 100.969 178.953 100.969ZM179.147 99.6894C179.717 99.6894 180.199 99.5404 180.593 99.2423C180.987 98.9409 181.285 98.5244 181.49 97.9929C181.695 97.4574 181.798 96.8403 181.798 96.1401C181.798 95.4477 181.697 94.8423 181.497 94.3232C181.296 93.7995 180.998 93.3936 180.605 93.1033C180.211 92.8097 179.725 92.6626 179.147 92.6626C178.544 92.6626 178.042 92.8176 177.64 93.1275C177.242 93.4334 176.943 93.8499 176.742 94.3775C176.545 94.9005 176.447 95.4876 176.447 96.1401C176.447 96.7997 176.547 97.3993 176.748 97.9386C176.953 98.4741 177.255 98.9003 177.652 99.2181C178.054 99.5325 178.552 99.6894 179.147 99.6894ZM190.771 100.776V91.5041H192.193V100.776H190.771ZM191.494 89.9586C191.216 89.9586 190.978 89.8638 190.777 89.6749C190.58 89.4859 190.482 89.2584 190.482 88.993C190.482 88.7275 190.58 88.5 190.777 88.3104C190.978 88.1215 191.216 88.0273 191.494 88.0273C191.771 88.0273 192.008 88.1215 192.205 88.3104C192.406 88.5 192.506 88.7275 192.506 88.993C192.506 89.2584 192.406 89.4859 192.205 89.6749C192.008 89.8638 191.771 89.9586 191.494 89.9586ZM201.354 93.5805L200.076 93.9427C199.996 93.7296 199.877 93.5224 199.721 93.321C199.568 93.1157 199.359 92.9464 199.094 92.8137C198.829 92.6809 198.49 92.6149 198.076 92.6149C197.509 92.6149 197.038 92.7457 196.66 93.0072C196.286 93.2648 196.099 93.5923 196.099 93.9911C196.099 94.3448 196.228 94.6246 196.485 94.8299C196.742 95.0352 197.144 95.2065 197.69 95.3431L199.064 95.6811C199.892 95.8825 200.508 96.1904 200.914 96.6049C201.32 97.0148 201.523 97.5444 201.523 98.1923C201.523 98.7232 201.37 99.1985 201.065 99.6169C200.764 100.035 200.341 100.365 199.799 100.607C199.257 100.848 198.626 100.969 197.907 100.969C196.963 100.969 196.182 100.764 195.563 100.353C194.944 99.9425 194.553 99.3429 194.388 98.5545L195.738 98.2165C195.866 98.7153 196.11 99.0893 196.467 99.339C196.829 99.5888 197.301 99.7136 197.883 99.7136C198.546 99.7136 199.072 99.5724 199.462 99.2906C199.856 99.0049 200.052 98.663 200.052 98.2649C200.052 97.9425 199.94 97.6732 199.715 97.4555C199.49 97.2345 199.144 97.0691 198.678 96.9606L197.136 96.5984C196.288 96.3977 195.666 96.0858 195.268 95.6628C194.874 95.2366 194.677 94.7031 194.677 94.063C194.677 93.54 194.824 93.0771 195.117 92.6751C195.414 92.2723 195.818 91.9566 196.328 91.7271C196.842 91.4976 197.425 91.3832 198.076 91.3832C198.992 91.3832 199.711 91.5846 200.233 91.9866C200.76 92.3894 201.133 92.9202 201.354 93.5805ZM212.172 104.446C211.485 104.446 210.895 104.357 210.4 104.18C209.906 104.007 209.494 103.778 209.165 103.492C208.84 103.21 208.581 102.909 208.388 102.586L209.521 101.79C209.649 101.959 209.812 102.152 210.009 102.369C210.206 102.591 210.475 102.782 210.817 102.943C211.162 103.108 211.614 103.19 212.172 103.19C212.92 103.19 213.536 103.009 214.023 102.647C214.508 102.285 214.752 101.717 214.752 100.945V99.0612H214.631C214.527 99.2305 214.378 99.4397 214.185 99.6894C213.996 99.9346 213.723 100.154 213.365 100.347C213.012 100.536 212.534 100.631 211.932 100.631C211.184 100.631 210.513 100.454 209.919 100.099C209.328 99.7457 208.86 99.2305 208.515 98.5545C208.173 97.8785 208.002 97.0573 208.002 96.0917C208.002 95.1418 208.169 94.3147 208.502 93.6106C208.836 92.9026 209.3 92.3554 209.895 91.969C210.489 91.5787 211.176 91.3832 211.956 91.3832C212.558 91.3832 213.036 91.4839 213.39 91.6852C213.747 91.882 214.02 92.1076 214.209 92.3612C214.402 92.6103 214.551 92.8156 214.655 92.9771H214.8V91.5041H216.174V101.041C216.174 101.838 215.993 102.486 215.631 102.985C215.274 103.488 214.792 103.856 214.185 104.089C213.582 104.327 212.912 104.446 212.172 104.446ZM212.124 99.3514C212.694 99.3514 213.177 99.2207 213.57 98.9585C213.964 98.697 214.263 98.3211 214.468 97.8301C214.673 97.3391 214.776 96.7514 214.776 96.0675C214.776 95.3993 214.675 94.8096 214.474 94.299C214.273 93.7878 213.976 93.387 213.582 93.0974C213.189 92.8078 212.702 92.6626 212.124 92.6626C211.522 92.6626 211.019 92.8156 210.618 93.1216C210.22 93.4275 209.921 93.8381 209.72 94.3533C209.523 94.8685 209.425 95.4399 209.425 96.0675C209.425 96.7115 209.525 97.2809 209.725 97.7758C209.93 98.2668 210.232 98.6532 210.629 98.9343C211.031 99.2122 211.529 99.3514 212.124 99.3514ZM218.777 100.776V91.5041H220.151V92.9045H220.247C220.416 92.4456 220.721 92.0736 221.164 91.7879C221.605 91.5022 222.103 91.359 222.657 91.359C222.762 91.359 222.892 91.361 223.049 91.3649C223.206 91.3695 223.325 91.3753 223.405 91.3832V92.832C223.356 92.8195 223.246 92.8019 223.073 92.7777C222.905 92.7496 222.726 92.7352 222.537 92.7352C222.087 92.7352 221.686 92.83 221.332 93.0189C220.983 93.204 220.705 93.4616 220.5 93.7917C220.299 94.1179 220.199 94.4899 220.199 94.9084V100.776H218.777ZM228.569 100.969C227.734 100.969 227 100.769 226.37 100.371C225.743 99.9732 225.253 99.4155 224.899 98.699C224.55 97.9831 224.375 97.1456 224.375 96.1878C224.375 95.2222 224.55 94.3795 224.899 93.659C225.253 92.9385 225.743 92.3789 226.37 91.9807C227 91.5826 227.734 91.3832 228.569 91.3832C229.405 91.3832 230.136 91.5826 230.763 91.9807C231.393 92.3789 231.884 92.9385 232.233 93.659C232.587 94.3795 232.763 95.2222 232.763 96.1878C232.763 97.1456 232.587 97.9831 232.233 98.699C231.884 99.4155 231.393 99.9732 230.763 100.371C230.136 100.769 229.405 100.969 228.569 100.969ZM228.569 99.6894C229.204 99.6894 229.727 99.526 230.136 99.2004C230.546 98.8742 230.849 98.446 231.046 97.9144C231.243 97.3836 231.341 96.8076 231.341 96.1878C231.341 95.5687 231.243 94.9907 231.046 94.4559C230.849 93.9205 230.546 93.4877 230.136 93.1582C229.727 92.828 229.204 92.6626 228.569 92.6626C227.934 92.6626 227.412 92.828 227.002 93.1582C226.592 93.4877 226.29 93.9205 226.092 94.4559C225.895 94.9907 225.797 95.5687 225.797 96.1878C225.797 96.8076 225.895 97.3836 226.092 97.9144C226.29 98.446 226.592 98.8742 227.002 99.2004C227.412 99.526 227.934 99.6894 228.569 99.6894ZM236.717 100.776L233.896 91.5041H235.391L237.391 98.6029H237.488L239.464 91.5041H240.983L242.935 98.5787H243.032L245.032 91.5041H246.527L243.707 100.776H242.309L240.284 93.6531H240.139L238.115 100.776H236.717ZM248.407 100.776V91.5041H249.829V100.776H248.407ZM249.13 89.9586C248.853 89.9586 248.614 89.8638 248.413 89.6749C248.216 89.4859 248.118 89.2584 248.118 88.993C248.118 88.7275 248.216 88.5 248.413 88.3104C248.614 88.1215 248.853 88.0273 249.13 88.0273C249.407 88.0273 249.645 88.1215 249.841 88.3104C250.042 88.5 250.143 88.7275 250.143 88.993C250.143 89.2584 250.042 89.4859 249.841 89.6749C249.645 89.8638 249.407 89.9586 249.13 89.9586ZM253.856 95.198V100.776H252.434V91.5041H253.808V92.9529H253.928C254.145 92.4815 254.475 92.1036 254.917 91.8179C255.359 91.5283 255.929 91.3832 256.628 91.3832C257.255 91.3832 257.803 91.512 258.273 91.7696C258.744 92.0232 259.109 92.4096 259.37 92.9287C259.631 93.4439 259.762 94.0957 259.762 94.8842V100.776H258.34V94.9809C258.34 94.2526 258.151 93.6851 257.773 93.2785C257.395 92.8679 256.877 92.6626 256.218 92.6626C255.764 92.6626 255.359 92.7614 255.001 92.9588C254.647 93.1556 254.368 93.4439 254.164 93.8218C253.959 94.2003 253.856 94.6586 253.856 95.198ZM266.096 104.446C265.41 104.446 264.819 104.357 264.325 104.18C263.83 104.007 263.419 103.778 263.09 103.492C262.764 103.21 262.505 102.909 262.312 102.586L263.445 101.79C263.574 101.959 263.736 102.152 263.933 102.369C264.13 102.591 264.399 102.782 264.741 102.943C265.086 103.108 265.538 103.19 266.096 103.19C266.844 103.19 267.461 103.009 267.947 102.647C268.432 102.285 268.676 101.717 268.676 100.945V99.0612H268.555C268.451 99.2305 268.302 99.4397 268.109 99.6894C267.921 99.9346 267.647 100.154 267.29 100.347C266.936 100.536 266.458 100.631 265.856 100.631C265.108 100.631 264.437 100.454 263.843 100.099C263.252 99.7457 262.784 99.2305 262.439 98.5545C262.097 97.8785 261.927 97.0573 261.927 96.0917C261.927 95.1418 262.093 94.3147 262.427 93.6106C262.76 92.9026 263.224 92.3554 263.819 91.969C264.413 91.5787 265.101 91.3832 265.88 91.3832C266.482 91.3832 266.96 91.4839 267.314 91.6852C267.671 91.882 267.945 92.1076 268.133 92.3612C268.326 92.6103 268.475 92.8156 268.579 92.9771H268.724V91.5041H270.098V101.041C270.098 101.838 269.917 102.486 269.556 102.985C269.198 103.488 268.716 103.856 268.109 104.089C267.507 104.327 266.836 104.446 266.096 104.446ZM266.048 99.3514C266.619 99.3514 267.101 99.2207 267.495 98.9585C267.888 98.697 268.188 98.3211 268.393 97.8301C268.598 97.3391 268.7 96.7514 268.7 96.0675C268.7 95.3993 268.599 94.8096 268.398 94.299C268.197 93.7878 267.9 93.387 267.507 93.0974C267.113 92.8078 266.627 92.6626 266.048 92.6626C265.446 92.6626 264.944 92.8156 264.542 93.1216C264.144 93.4275 263.845 93.8381 263.644 94.3533C263.447 94.8685 263.349 95.4399 263.349 96.0675C263.349 96.7115 263.449 97.2809 263.65 97.7758C263.855 98.2668 264.156 98.6532 264.554 98.9343C264.956 99.2122 265.454 99.3514 266.048 99.3514ZM284.03 93.5805L282.753 93.9427C282.672 93.7296 282.554 93.5224 282.397 93.321C282.244 93.1157 282.035 92.9464 281.77 92.8137C281.505 92.6809 281.166 92.6149 280.752 92.6149C280.186 92.6149 279.713 92.7457 279.336 93.0072C278.962 93.2648 278.775 93.5923 278.775 93.9911C278.775 94.3448 278.904 94.6246 279.161 94.8299C279.418 95.0352 279.82 95.2065 280.366 95.3431L281.74 95.6811C282.568 95.8825 283.185 96.1904 283.59 96.6049C283.996 97.0148 284.199 97.5444 284.199 98.1923C284.199 98.7232 284.046 99.1985 283.741 99.6169C283.44 100.035 283.018 100.365 282.475 100.607C281.933 100.848 281.302 100.969 280.583 100.969C279.639 100.969 278.857 100.764 278.239 100.353C277.621 99.9425 277.228 99.3429 277.064 98.5545L278.414 98.2165C278.542 98.7153 278.786 99.0893 279.143 99.339C279.504 99.5888 279.977 99.7136 280.559 99.7136C281.222 99.7136 281.748 99.5724 282.138 99.2906C282.531 99.0049 282.728 98.663 282.728 98.2649C282.728 97.9425 282.616 97.6732 282.391 97.4555C282.166 97.2345 281.821 97.0691 281.355 96.9606L279.812 96.5984C278.965 96.3977 278.341 96.0858 277.944 95.6628C277.55 95.2366 277.353 94.7031 277.353 94.063C277.353 93.54 277.5 93.0771 277.793 92.6751C278.091 92.2723 278.494 91.9566 279.004 91.7271C279.519 91.4976 280.101 91.3832 280.752 91.3832C281.668 91.3832 282.387 91.5846 282.909 91.9866C283.435 92.3894 283.809 92.9202 284.03 93.5805ZM290.365 91.5041V92.711H285.568V91.5041H290.365ZM286.966 89.2826H288.388V98.1197C288.388 98.5224 288.447 98.8238 288.563 99.0252C288.684 99.2226 288.836 99.3554 289.021 99.4234C289.21 99.4881 289.409 99.5201 289.618 99.5201C289.775 99.5201 289.903 99.5123 290.004 99.4959C290.104 99.4757 290.185 99.46 290.245 99.4475L290.534 100.728C290.437 100.764 290.303 100.8 290.13 100.836C289.957 100.876 289.738 100.896 289.473 100.896C289.071 100.896 288.678 100.81 288.292 100.637C287.911 100.464 287.593 100.2 287.34 99.8464C287.091 99.492 286.966 99.0455 286.966 98.5061V89.2826ZM296.286 100.969C295.393 100.969 294.625 100.771 293.978 100.377C293.335 99.9791 292.839 99.4234 292.489 98.7114C292.144 97.9948 291.971 97.1619 291.971 96.212C291.971 95.2627 292.144 94.4252 292.489 93.7015C292.839 92.9725 293.325 92.4057 293.947 91.999C294.574 91.5885 295.305 91.3832 296.141 91.3832C296.623 91.3832 297.099 91.4636 297.569 91.6244C298.039 91.7859 298.467 92.0474 298.853 92.4096C299.238 92.7672 299.546 93.2425 299.775 93.8342C300.004 94.4252 300.118 95.1542 300.118 96.0191V96.6226H292.983V95.3915H298.672C298.672 94.8685 298.567 94.4017 298.359 93.9911C298.154 93.5805 297.861 93.2563 297.479 93.0189C297.101 92.7816 296.655 92.6626 296.141 92.6626C295.574 92.6626 295.084 92.8038 294.67 93.0856C294.261 93.3628 293.945 93.725 293.725 94.1722C293.503 94.6187 293.393 95.0973 293.393 95.6086V96.4297C293.393 97.1299 293.514 97.7235 293.755 98.2106C294 98.6931 294.339 99.0612 294.773 99.3148C295.207 99.5646 295.711 99.6894 296.286 99.6894C296.659 99.6894 296.996 99.6371 297.298 99.5325C297.603 99.4234 297.866 99.2625 298.088 99.0494C298.308 98.8323 298.479 98.5623 298.599 98.2407L299.973 98.6271C299.829 99.0939 299.586 99.5038 299.244 99.8581C298.903 100.209 298.481 100.482 297.979 100.679C297.477 100.872 296.912 100.969 296.286 100.969ZM305.005 100.993C304.419 100.993 303.887 100.883 303.408 100.661C302.931 100.435 302.551 100.112 302.269 99.6894C301.988 99.2625 301.848 98.7473 301.848 98.1439C301.848 97.6124 301.952 97.1822 302.161 96.852C302.37 96.518 302.649 96.2564 302.998 96.0675C303.348 95.8786 303.734 95.7373 304.156 95.6452C304.582 95.5484 305.009 95.4719 305.439 95.4157C306.001 95.3431 306.458 95.2889 306.807 95.2522C307.16 95.2124 307.418 95.1457 307.578 95.0535C307.743 94.9607 307.826 94.7998 307.826 94.5704V94.522C307.826 93.9264 307.663 93.4635 307.337 93.134C307.016 92.8038 306.528 92.6391 305.873 92.6391C305.194 92.6391 304.662 92.7875 304.276 93.0856C303.891 93.3831 303.619 93.7015 303.462 94.0395L302.113 93.5563C302.354 92.9928 302.675 92.5541 303.077 92.2403C303.483 91.9226 303.925 91.7009 304.403 91.5767C304.885 91.4479 305.359 91.3832 305.825 91.3832C306.122 91.3832 306.463 91.4191 306.849 91.4917C307.239 91.5604 307.615 91.7029 307.976 91.9206C308.342 92.1377 308.645 92.4658 308.886 92.9045C309.127 93.3432 309.248 93.9303 309.248 94.6671V100.776H307.826V99.5201H307.753C307.656 99.7215 307.496 99.9366 307.271 100.166C307.046 100.396 306.747 100.59 306.373 100.752C305.999 100.913 305.544 100.993 305.005 100.993ZM305.222 99.7136C305.785 99.7136 306.258 99.6025 306.644 99.3815C307.034 99.1599 307.328 98.8742 307.524 98.5244C307.725 98.174 307.826 97.8059 307.826 97.4195V96.1159C307.766 96.1878 307.633 96.2545 307.428 96.3146C307.227 96.3715 306.994 96.4212 306.729 96.4657C306.467 96.5062 306.213 96.5422 305.963 96.5742C305.719 96.6023 305.52 96.6265 305.367 96.6468C304.998 96.6951 304.652 96.7736 304.331 96.8821C304.013 96.9867 303.756 97.1456 303.559 97.3594C303.367 97.5686 303.27 97.8543 303.27 98.2165C303.27 98.7114 303.453 99.0854 303.818 99.339C304.188 99.5888 304.656 99.7136 305.222 99.7136ZM315.338 100.969C314.567 100.969 313.886 100.773 313.296 100.383C312.705 99.9889 312.243 99.4338 311.91 98.7173C311.576 97.9968 311.409 97.1456 311.409 96.1643C311.409 95.1901 311.576 94.3448 311.91 93.6289C312.243 92.9124 312.707 92.3593 313.301 91.969C313.896 91.5787 314.583 91.3832 315.363 91.3832C315.965 91.3832 316.441 91.4839 316.791 91.6852C317.144 91.882 317.413 92.1076 317.599 92.3612C317.787 92.6103 317.933 92.8156 318.039 92.9771H318.159V88.4131H319.581V100.776H318.207V99.3514H318.039C317.933 99.5201 317.785 99.7332 317.592 99.9908C317.4 100.245 317.124 100.472 316.766 100.673C316.409 100.87 315.933 100.969 315.338 100.969ZM315.532 99.6894C316.102 99.6894 316.584 99.5404 316.978 99.2423C317.371 98.9409 317.67 98.5244 317.875 97.9929C318.08 97.4574 318.183 96.8403 318.183 96.1401C318.183 95.4477 318.082 94.8423 317.881 94.3232C317.681 93.7995 317.383 93.3936 316.99 93.1033C316.596 92.8097 316.11 92.6626 315.532 92.6626C314.929 92.6626 314.427 92.8176 314.025 93.1275C313.627 93.4334 313.328 93.8499 313.127 94.3775C312.93 94.9005 312.832 95.4876 312.832 96.1401C312.832 96.7997 312.932 97.3993 313.133 97.9386C313.338 98.4741 313.639 98.9003 314.037 99.2181C314.438 99.5325 314.937 99.6894 315.532 99.6894ZM322.383 100.776V91.5041H323.805V100.776H322.383ZM323.106 89.9586C322.829 89.9586 322.59 89.8638 322.389 89.6749C322.192 89.4859 322.094 89.2584 322.094 88.993C322.094 88.7275 322.192 88.5 322.389 88.3104C322.59 88.1215 322.829 88.0273 323.106 88.0273C323.383 88.0273 323.62 88.1215 323.817 88.3104C324.018 88.5 324.119 88.7275 324.119 88.993C324.119 89.2584 324.018 89.4859 323.817 89.6749C323.62 89.8638 323.383 89.9586 323.106 89.9586ZM327.832 88.4131V100.776H326.41V88.4131H327.832ZM331.353 104.253C331.111 104.253 330.897 104.233 330.708 104.192C330.52 104.156 330.388 104.12 330.317 104.083L330.678 102.828C331.023 102.916 331.329 102.949 331.594 102.924C331.859 102.901 332.094 102.782 332.299 102.569C332.508 102.359 332.699 102.02 332.871 101.548L333.137 100.824L329.713 91.5041H331.256L333.812 98.8925H333.908L336.463 91.5041H338.006L334.077 102.128C333.9 102.607 333.681 103.003 333.42 103.317C333.159 103.635 332.855 103.87 332.51 104.023C332.168 104.176 331.782 104.253 331.353 104.253Z" fill="#374151"/>
<path d="M148.517 51.8906V54.6766H120.148V51.8906H148.517ZM148.517 57.9084V60.6942H120.148V57.9084H148.517ZM146.055 41.471V69.9994H141.466L128.033 50.5673H127.81V69.9994H122.637V41.471H127.268L140.659 60.9171H140.923V41.471H146.055ZM161.661 70.3897C159.807 70.3897 158.147 70.0412 156.683 69.345C155.218 68.6389 154.055 67.6732 153.192 66.4474C152.339 65.2216 151.885 63.8192 151.83 62.2403H156.836C156.928 63.4106 157.434 64.3671 158.352 65.1104C159.269 65.844 160.372 66.2107 161.661 66.2107C162.672 66.2107 163.571 65.9786 164.359 65.5145C165.147 65.0496 165.768 64.4043 166.222 63.578C166.676 62.7516 166.899 61.8088 166.89 60.7504C166.899 59.6729 166.672 58.7165 166.209 57.8803C165.745 57.0448 165.11 56.3901 164.303 55.9164C163.497 55.4335 162.57 55.1921 161.522 55.1921C160.669 55.1828 159.83 55.3406 159.005 55.6657C158.18 55.9907 157.527 56.4179 157.044 56.9472L152.386 56.1811L153.874 41.471H170.395V45.7894H158.143L157.322 53.3533H157.489C158.018 52.7311 158.764 52.2157 159.728 51.8071C160.692 51.3892 161.749 51.1802 162.899 51.1802C164.623 51.1802 166.162 51.5888 167.516 52.4061C168.869 53.214 169.935 54.3284 170.715 55.7492C171.493 57.1701 171.882 58.7956 171.882 60.6249C171.882 62.5097 171.447 64.1906 170.575 65.6674C169.713 67.1345 168.512 68.2911 166.973 69.1357C165.444 69.9719 163.673 70.3897 161.661 70.3897ZM188.125 41.471V69.9994H182.966V46.4998H182.799L176.138 50.7623V46.0262L183.216 41.471H188.125ZM205.786 70.3897C204.423 70.3805 203.093 70.1432 201.795 69.679C200.497 69.2057 199.329 68.4395 198.29 67.381C197.252 66.3127 196.427 64.8966 195.815 63.1321C195.203 61.3584 194.902 59.1623 194.911 56.5432C194.911 54.1009 195.171 51.9232 195.69 50.0101C196.209 48.0971 196.956 46.4812 197.929 45.1625C198.902 43.8345 200.075 42.8223 201.447 42.1258C202.828 41.4293 204.372 41.0811 206.078 41.0811C207.867 41.0811 209.452 41.4339 210.834 42.1397C212.224 42.8455 213.346 43.8113 214.199 45.0371C215.052 46.2537 215.58 47.6281 215.785 49.1604H210.709C210.449 48.0646 209.916 47.1916 209.11 46.5415C208.312 45.8822 207.302 45.5525 206.078 45.5525C204.103 45.5525 202.583 46.4116 201.517 48.1296C200.46 49.8476 199.927 52.2064 199.918 55.206H200.112C200.566 54.3888 201.155 53.6876 201.878 53.1025C202.601 52.5175 203.417 52.0671 204.326 51.7514C205.243 51.4263 206.213 51.2638 207.232 51.2638C208.901 51.2638 210.398 51.6631 211.724 52.4618C213.059 53.2604 214.116 54.3609 214.894 55.7632C215.674 57.1562 216.058 58.7537 216.049 60.5549C216.058 62.4312 215.632 64.1167 214.77 65.6119C213.908 67.0973 212.707 68.2675 211.168 69.122C209.629 69.9765 207.835 70.3988 205.786 70.3897ZM205.758 66.2107C206.769 66.2107 207.673 65.9643 208.47 65.4726C209.267 64.9803 209.898 64.3161 210.361 63.4806C210.825 62.6444 211.052 61.7069 211.042 60.6667C211.052 59.6448 210.83 58.721 210.375 57.8947C209.93 57.068 209.313 56.4133 208.526 55.9303C207.737 55.4474 206.838 55.206 205.827 55.206C205.077 55.206 204.377 55.3499 203.728 55.6378C203.079 55.9257 202.513 56.325 202.032 56.8358C201.549 57.3373 201.169 57.9221 200.891 58.5909C200.622 59.2506 200.483 59.956 200.474 60.7085C200.483 61.7023 200.714 62.6169 201.169 63.4524C201.624 64.2886 202.249 64.9568 203.046 65.4582C203.844 65.9597 204.747 66.2107 205.758 66.2107ZM225.491 66.0989L225.31 67.6314C225.18 68.8017 224.949 69.9902 224.615 71.1978C224.291 72.4138 223.948 73.5331 223.586 74.5549C223.224 75.5761 222.933 76.3796 222.71 76.9647H219.317C219.447 76.3979 219.623 75.6271 219.845 74.6523C220.077 73.6769 220.3 72.5812 220.513 71.3645C220.726 70.1484 220.87 68.9128 220.944 67.6595L221.041 66.0989H225.491ZM240.493 70.5427C238.202 70.5427 236.237 69.9621 234.596 68.8017C232.965 67.6314 231.708 65.946 230.828 63.7453C229.956 61.5349 229.521 58.874 229.521 55.7632C229.53 52.6522 229.97 50.0055 230.842 47.8231C231.722 45.6315 232.979 43.9599 234.61 42.8083C236.251 41.6568 238.212 41.0811 240.493 41.0811C242.773 41.0811 244.734 41.6568 246.375 42.8083C248.016 43.9599 249.272 45.6315 250.144 47.8231C251.024 50.0147 251.465 52.6614 251.465 55.7632C251.465 58.8832 251.024 61.5486 250.144 63.7591C249.272 65.9597 248.016 67.6405 246.375 68.8017C244.744 69.9621 242.782 70.5427 240.493 70.5427ZM240.493 66.1826C242.273 66.1826 243.677 65.3053 244.706 63.5499C245.745 61.7853 246.264 59.1898 246.264 55.7632C246.264 53.4972 246.027 51.5935 245.555 50.0519C245.082 48.5103 244.414 47.3495 243.552 46.5694C242.69 45.7801 241.67 45.3854 240.493 45.3854C238.722 45.3854 237.322 46.2676 236.293 48.0321C235.263 49.7872 234.745 52.3643 234.735 55.7632C234.726 58.0385 234.953 59.9515 235.417 61.5022C235.889 63.053 236.557 64.2232 237.419 65.0124C238.281 65.793 239.306 66.1826 240.493 66.1826ZM266.612 70.5427C264.322 70.5427 262.356 69.9621 260.716 68.8017C259.084 67.6314 257.828 65.946 256.947 63.7453C256.076 61.5349 255.64 58.874 255.64 55.7632C255.65 52.6522 256.09 50.0055 256.961 47.8231C257.842 45.6315 259.098 43.9599 260.73 42.8083C262.371 41.6568 264.331 41.0811 266.612 41.0811C268.893 41.0811 270.854 41.6568 272.494 42.8083C274.135 43.9599 275.392 45.6315 276.263 47.8231C277.144 50.0147 277.584 52.6614 277.584 55.7632C277.584 58.8832 277.144 61.5486 276.263 63.7591C275.392 65.9597 274.135 67.6405 272.494 68.8017C270.863 69.9621 268.902 70.5427 266.612 70.5427ZM266.612 66.1826C268.392 66.1826 269.797 65.3053 270.825 63.5499C271.864 61.7853 272.383 59.1898 272.383 55.7632C272.383 53.4972 272.146 51.5935 271.674 50.0519C271.201 48.5103 270.534 47.3495 269.672 46.5694C268.809 45.7801 267.789 45.3854 266.612 45.3854C264.841 45.3854 263.441 46.2676 262.413 48.0321C261.383 49.7872 260.864 52.3643 260.855 55.7632C260.846 58.0385 261.073 59.9515 261.536 61.5022C262.009 63.053 262.677 64.2232 263.539 65.0124C264.401 65.793 265.425 66.1826 266.612 66.1826ZM292.732 70.5427C290.441 70.5427 288.476 69.9621 286.835 68.8017C285.204 67.6314 283.947 65.946 283.067 63.7453C282.195 61.5349 281.76 58.874 281.76 55.7632C281.769 52.6522 282.209 50.0055 283.081 47.8231C283.961 45.6315 285.217 43.9599 286.849 42.8083C288.49 41.6568 290.451 41.0811 292.732 41.0811C295.012 41.0811 296.973 41.6568 298.614 42.8083C300.255 43.9599 301.511 45.6315 302.383 47.8231C303.263 50.0147 303.704 52.6614 303.704 55.7632C303.704 58.8832 303.263 61.5486 302.383 63.7591C301.511 65.9597 300.255 67.6405 298.614 68.8017C296.982 69.9621 295.021 70.5427 292.732 70.5427ZM292.732 66.1826C294.511 66.1826 295.916 65.3053 296.945 63.5499C297.984 61.7853 298.503 59.1898 298.503 55.7632C298.503 53.4972 298.266 51.5935 297.794 50.0519C297.321 48.5103 296.653 47.3495 295.791 46.5694C294.929 45.7801 293.909 45.3854 292.732 45.3854C290.961 45.3854 289.561 46.2676 288.532 48.0321C287.503 49.7872 286.984 52.3643 286.974 55.7632C286.965 58.0385 287.192 59.9515 287.656 61.5022C288.128 63.053 288.796 64.2232 289.658 65.0124C290.52 65.793 291.545 66.1826 292.732 66.1826Z" fill="#042A2B"/>
<path fill-rule="evenodd" clip-rule="evenodd" d="M319.88 64.711H316.041V56.56H311.323L317.961 47.1797L324.599 56.56H319.88V64.711Z" fill="#7CA853"/>
<path d="M32.282 189.49H415.821" stroke="#AFAFAF" stroke-width="1.20779" stroke-dasharray="7.25 7.25"/>
<path d="M72.9929 293.965C56.9385 290.508 39.5472 295.406 32.8582 298.287V321.912H278.565V219.336L258.773 227.234C252.096 229.899 244.837 230.764 237.722 229.742L226.63 228.15C221.251 227.377 215.771 227.681 210.509 229.043L171.179 239.225C158.756 249.308 131.331 271.925 121.011 281.72C108.11 296.846 93.0598 298.287 72.9929 293.965Z" fill="url(#paint0_linear_8334_41274)"/>
<path d="M279.084 160.074V318.259" stroke="#4920AA" stroke-width="1.20779"/>
<path d="M32.1516 298.98C38.8627 296.098 56.3117 291.201 72.4182 294.658C92.5517 298.98 107.652 297.539 120.594 282.413C128.621 274.82 146.961 259.522 160.606 248.33C167.394 242.763 175.324 238.783 183.818 236.591L206.527 230.732C214.355 228.713 222.505 228.262 230.507 229.407L231.555 229.557C242.694 231.151 254.055 229.646 264.398 225.206L320.998 200.908C326.384 198.595 331.412 195.522 335.927 191.781L357.17 174.185C363.337 169.078 370.441 165.227 378.083 162.852L408.214 153.484" stroke="#4920AA" stroke-width="4.83117" stroke-linecap="round"/>
<path d="M279.288 226.51C283.654 226.51 287.193 222.965 287.193 218.592C287.193 214.218 283.654 210.673 279.288 210.673C274.922 210.673 271.383 214.218 271.383 218.592C271.383 222.965 274.922 226.51 279.288 226.51Z" fill="#4920AA"/>
<defs>
<linearGradient id="paint0_linear_8334_41274" x1="141.287" y1="223.404" x2="155.853" y2="321.891" gradientUnits="userSpaceOnUse">
<stop stop-color="#4920AA"/>
<stop offset="1" stop-color="#D9D9D9" stop-opacity="0"/>
</linearGradient>
</defs>
</svg>
