<svg width="32" height="32" viewBox="0 0 32 32" fill="none" xmlns="http://www.w3.org/2000/svg">
<path d="M15.9796 2.66675C20.0713 2.66675 23.3636 5.88646 23.3636 9.86142V11.9059C25.66 12.6227 27.3333 14.7016 27.3333 17.1846V23.7671C27.3333 26.8411 24.7848 29.3334 21.6429 29.3334H10.3584C7.2151 29.3334 4.66663 26.8411 4.66663 23.7671V17.1846C4.66663 14.7016 6.34122 12.6227 8.63634 11.9059V9.86142C8.64989 5.88646 11.9422 2.66675 15.9796 2.66675ZM15.9932 17.8458C15.3429 17.8458 14.8145 18.3625 14.8145 18.9985V21.94C14.8145 22.5892 15.3429 23.106 15.9932 23.106C16.6571 23.106 17.1855 22.5892 17.1855 21.94V18.9985C17.1855 18.3625 16.6571 17.8458 15.9932 17.8458ZM16.0067 4.98547C13.2564 4.98547 11.0209 7.15845 11.0073 9.83492V11.6184H20.9926V9.86142C20.9926 7.1717 18.7571 4.98547 16.0067 4.98547Z" fill="#374151"/>
</svg>
