<svg width="45" height="44" viewBox="0 0 45 44" fill="none" xmlns="http://www.w3.org/2000/svg">
<g clip-path="url(#clip0_8334_41562)">
<path d="M4.29468 26.3145H40.9694V36.7004C40.9694 37.4384 40.824 38.1691 40.5416 38.8509C40.2592 39.5326 39.8453 40.1521 39.3235 40.6739C38.8017 41.1957 38.1822 41.6096 37.5005 41.892C36.8187 42.1744 36.088 42.3198 35.35 42.3198H9.91349C8.42324 42.3196 6.99408 41.7276 5.94036 40.6737C4.88664 39.6199 4.29468 38.1907 4.29468 36.7004V26.3145Z" fill="#16A34A"/>
<path d="M3.98218 27.043H40.9699V30.1349H3.98218V27.043ZM4.45594 32.0766H40.095V34.0867H4.45594V32.0766Z" fill="#15803D"/>
<path d="M43.2084 27.4339H1.36122C1.07253 27.4339 0.79566 27.3193 0.591524 27.1151C0.387388 26.911 0.272705 26.6341 0.272705 26.3454V16.7623C0.272705 16.6194 0.30086 16.4779 0.355563 16.3458C0.410266 16.2137 0.490446 16.0937 0.591524 15.9926C0.692602 15.8916 0.812599 15.8114 0.944664 15.7567C1.07673 15.702 1.21827 15.6738 1.36122 15.6738H43.2084C43.3514 15.6738 43.4929 15.702 43.625 15.7567C43.7571 15.8114 43.8771 15.8916 43.9781 15.9926C44.0792 16.0937 44.1594 16.2137 44.2141 16.3458C44.2688 16.4779 44.297 16.6194 44.297 16.7623V26.3454C44.297 26.4884 44.2688 26.6299 44.2141 26.762C44.1594 26.8941 44.0792 27.014 43.9781 27.1151C43.8771 27.2162 43.7571 27.2964 43.625 27.3511C43.4929 27.4058 43.3514 27.4339 43.2084 27.4339ZM2.44974 25.2569H42.1199V17.8509H2.44974V25.2569Z" fill="#14532D"/>
<path d="M35.0372 43.641H9.60271C7.82391 43.6395 6.11838 42.9323 4.86048 41.6746C3.60258 40.4168 2.89509 38.7114 2.89331 36.9326V26.5466C2.89331 26.2579 3.00799 25.9811 3.21213 25.7769C3.41627 25.5728 3.69313 25.4581 3.98183 25.4581H40.6565C40.9452 25.4581 41.2221 25.5728 41.4262 25.7769C41.6303 25.9811 41.745 26.2579 41.745 26.5466V36.9326C41.7432 38.7112 41.036 40.4163 39.7784 41.674C38.5208 42.9317 36.8157 43.6391 35.0372 43.641ZM5.07034 27.6351V36.9326C5.07158 38.1342 5.54952 39.2862 6.39927 40.1358C7.24902 40.9853 8.40113 41.463 9.60271 41.464H35.0372C36.2384 41.4626 37.39 40.9848 38.2394 40.1354C39.0888 39.286 39.5666 38.1344 39.568 36.9331V27.6351H5.07034ZM22.1564 17.3093C21.9411 17.3093 21.7306 17.2455 21.5516 17.1259C21.3726 17.0062 21.2331 16.8362 21.1507 16.6373C21.0683 16.4384 21.0467 16.2195 21.0887 16.0084C21.1307 15.7972 21.2344 15.6033 21.3867 15.451C23.5357 13.302 21.2312 9.10809 21.2073 9.06558C21.1373 8.94098 21.0924 8.8038 21.0753 8.66186C21.0583 8.51993 21.0693 8.37603 21.1079 8.23837C21.1858 7.96035 21.3709 7.72466 21.6225 7.58313C21.8742 7.4416 22.1717 7.40583 22.4497 7.4837C22.7278 7.56156 22.9634 7.74668 23.105 7.99832C23.627 8.97712 24.0153 10.0216 24.2593 11.1037C24.7963 13.5461 24.3355 15.5816 22.9267 16.99C22.8257 17.0913 22.7056 17.1717 22.5734 17.2265C22.4412 17.2813 22.2995 17.3095 22.1564 17.3093Z" fill="#14532D"/>
<path d="M18.7179 11.1485H18.6624C18.0638 11.143 17.4723 11.0189 16.922 10.7833C16.3717 10.5477 15.8736 10.2053 15.4565 9.77591C15.0128 9.32133 14.3161 8.33233 13.4116 5.00355C12.9384 3.264 12.6341 1.72038 12.6238 1.65558C12.5893 1.47851 12.5995 1.29565 12.6532 1.12346C12.707 0.951262 12.8027 0.79513 12.9318 0.669099C13.0608 0.543067 13.2192 0.451088 13.3926 0.40143C13.5661 0.351772 13.7491 0.345993 13.9253 0.384613C13.9901 0.398608 15.5259 0.736566 17.2536 1.25128C20.5601 2.23613 21.5325 2.95403 21.9762 3.4081C22.6027 4.04945 23.0261 4.86139 23.1933 5.74223C23.3606 6.62308 23.2643 7.53369 22.9164 8.36006C22.5686 9.18642 21.9847 9.89181 21.2379 10.3879C20.4911 10.884 19.6145 11.1487 18.7179 11.149V11.1485ZM15.1227 2.91204C15.6887 5.30004 16.46 7.687 17.0136 8.25458C17.4546 8.70611 18.0569 8.96396 18.688 8.97139C19.0005 8.97507 19.3107 8.91717 19.6008 8.80098C19.8909 8.6848 20.1553 8.5126 20.3789 8.29424C20.6025 8.07587 20.7809 7.8156 20.9039 7.5283C21.0268 7.241 21.092 6.93228 21.0957 6.61978C21.0994 6.30728 21.0415 5.99712 20.9253 5.707C20.8091 5.41688 20.6369 5.15248 20.4186 4.92891C19.866 4.36184 17.4962 3.53405 15.1227 2.91204Z" fill="#14532D"/>
<path d="M26.2488 11.8319C25.8586 11.8316 25.47 11.7814 25.0924 11.6826C24.2202 11.4555 23.435 10.9747 22.836 10.3013C22.237 9.62781 21.8512 8.79185 21.7274 7.89911C21.6036 7.00638 21.7473 6.09696 22.1403 5.28589C22.5333 4.47482 23.1581 3.79851 23.9355 3.34251C24.4834 3.02114 25.6107 2.5847 29.0593 2.50591C30.8615 2.46496 32.4326 2.54375 32.4985 2.54686C32.6786 2.55605 32.8537 2.60987 33.0079 2.70347C33.1621 2.79708 33.2906 2.92754 33.3819 3.08312C33.4731 3.23871 33.5243 3.41454 33.5308 3.59481C33.5373 3.77508 33.4989 3.95413 33.419 4.11588C33.39 4.17497 32.6934 5.58486 31.7769 7.13832C30.0255 10.111 29.0924 10.8818 28.5471 11.2037C27.8508 11.6144 27.0573 11.8313 26.2488 11.8319ZM30.211 4.66791C27.9137 4.66791 25.6771 4.84467 25.0369 5.22046C24.4924 5.53981 24.097 6.06239 23.9378 6.67325C23.7786 7.2841 23.8686 7.93319 24.1879 8.47772C24.5073 9.02225 25.0298 9.41761 25.6407 9.57684C26.2515 9.73606 26.9006 9.64611 27.4452 9.32676C28.1288 8.92556 29.5019 6.82576 30.677 4.67154C30.5219 4.66912 30.3665 4.66791 30.211 4.66791ZM42.7087 24.2731H2.55598C2.4845 24.2731 2.41371 24.2591 2.34766 24.2317C2.28161 24.2044 2.22159 24.1643 2.17104 24.1138C2.12048 24.0632 2.08038 24.0032 2.05302 23.9372C2.02566 23.8711 2.01157 23.8003 2.01157 23.7289C2.01157 23.6574 2.02566 23.5866 2.05302 23.5205C2.08038 23.4545 2.12048 23.3945 2.17104 23.344C2.22159 23.2934 2.28161 23.2533 2.34766 23.226C2.41371 23.1986 2.4845 23.1846 2.55598 23.1846H42.7087C42.8531 23.1846 42.9915 23.242 43.0935 23.3441C43.1955 23.4461 43.2528 23.5845 43.2528 23.7289C43.2528 23.8732 43.1955 24.0116 43.0935 24.1137C42.9915 24.2157 42.8531 24.2731 42.7087 24.2731ZM26.8636 22.0982H18.681C18.5367 22.0981 18.3983 22.0408 18.2963 21.9387C18.1943 21.8366 18.1369 21.6982 18.1369 21.5539C18.1369 21.4096 18.1943 21.2712 18.2963 21.1691C18.3983 21.067 18.5367 21.0097 18.681 21.0096H26.8636C27.0079 21.0097 27.1463 21.067 27.2483 21.1691C27.3504 21.2712 27.4077 21.4096 27.4077 21.5539C27.4077 21.6982 27.3504 21.8366 27.2483 21.9387C27.1463 22.0408 27.0079 22.0981 26.8636 22.0982ZM41.8851 20.0564H1.73234C1.58802 20.0564 1.44962 19.999 1.34759 19.897C1.24555 19.7949 1.18823 19.6565 1.18823 19.5122C1.18823 19.3678 1.24555 19.2294 1.34759 19.1274C1.44962 19.0253 1.58802 18.9679 1.73234 18.9679H41.8851C42.0294 18.9679 42.1678 19.0253 42.2698 19.1274C42.3719 19.2294 42.4292 19.3678 42.4292 19.5122C42.4292 19.6565 42.3719 19.7949 42.2698 19.897C42.1678 19.999 42.0294 20.0564 41.8851 20.0564ZM11.0749 17.8022C10.932 17.8022 10.7904 17.774 10.6584 17.7193C10.5263 17.6646 10.4063 17.5844 10.3052 17.4833C10.2041 17.3823 10.124 17.2623 10.0693 17.1302C10.0146 16.9981 9.9864 16.8566 9.9864 16.7136C9.9864 15.9915 9.69953 15.2989 9.1889 14.7883C8.67826 14.2777 7.9857 13.9908 7.26355 13.9908C6.54141 13.9908 5.84885 14.2777 5.33821 14.7883C4.82758 15.2989 4.54071 15.9915 4.54071 16.7136C4.54071 17.0023 4.42603 17.2792 4.22189 17.4833C4.01775 17.6875 3.74089 17.8022 3.45219 17.8022C3.1635 17.8022 2.88663 17.6875 2.6825 17.4833C2.47836 17.2792 2.36368 17.0023 2.36368 16.7136C2.36368 15.4141 2.87991 14.1678 3.79882 13.2489C4.71772 12.33 5.96403 11.8138 7.26355 11.8138C8.56308 11.8138 9.80939 12.33 10.7283 13.2489C11.6472 14.1678 12.1634 15.4141 12.1634 16.7136C12.1634 16.8566 12.1353 16.9981 12.0806 17.1302C12.0259 17.2623 11.9457 17.3823 11.8446 17.4833C11.7435 17.5844 11.6235 17.6646 11.4915 17.7193C11.3594 17.774 11.2179 17.8022 11.0749 17.8022Z" fill="#14532D"/>
<path d="M19.5938 17.5673C19.3051 17.5673 19.0282 17.4526 18.8241 17.2485C18.62 17.0443 18.5053 16.7675 18.5053 16.4788C18.5053 15.7566 18.2184 15.0641 17.7078 14.5534C17.1972 14.0428 16.5046 13.7559 15.7824 13.7559C15.0603 13.7559 14.3677 14.0428 13.8571 14.5534C13.3465 15.0641 13.0596 15.7566 13.0596 16.4788C13.0596 16.7675 12.9449 17.0443 12.7408 17.2485C12.5366 17.4526 12.2598 17.5673 11.9711 17.5673C11.6824 17.5673 11.4055 17.4526 11.2014 17.2485C10.9973 17.0443 10.8826 16.7675 10.8826 16.4788C10.8825 15.8353 11.0092 15.1981 11.2554 14.6035C11.5016 14.009 11.8625 13.4688 12.3175 13.0137C12.7725 12.5587 13.3127 12.1977 13.9072 11.9515C14.5017 11.7052 15.1389 11.5784 15.7824 11.5784C16.4259 11.5784 17.0631 11.7052 17.6577 11.9515C18.2522 12.1977 18.7923 12.5587 19.2473 13.0137C19.7023 13.4688 20.0633 14.009 20.3095 14.6035C20.5557 15.1981 20.6824 15.8353 20.6823 16.4788C20.6823 16.7675 20.5676 17.0443 20.3635 17.2485C20.1594 17.4526 19.8825 17.5673 19.5938 17.5673ZM37.5994 17.2755C37.4565 17.2755 37.3149 17.2473 37.1829 17.1926C37.0508 17.1379 36.9308 17.0577 36.8297 16.9566C36.7286 16.8556 36.6485 16.7356 36.5938 16.6035C36.5391 16.4714 36.5109 16.3299 36.5109 16.1869C36.5109 15.4648 36.224 14.7722 35.7134 14.2616C35.2028 13.751 34.5102 13.4641 33.7881 13.4641C33.0659 13.4641 32.3733 13.751 31.8627 14.2616C31.3521 14.7722 31.0652 15.4648 31.0652 16.1869C31.0652 16.4756 30.9505 16.7525 30.7464 16.9566C30.5422 17.1608 30.2654 17.2755 29.9767 17.2755C29.688 17.2755 29.4111 17.1608 29.207 16.9566C29.0029 16.7525 28.8882 16.4756 28.8882 16.1869C28.8882 15.5435 29.0149 14.9063 29.2612 14.3118C29.5074 13.7174 29.8683 13.1772 30.3233 12.7222C30.7783 12.2672 31.3185 11.9063 31.9129 11.66C32.5074 11.4138 33.1446 11.2871 33.7881 11.2871C34.4315 11.2871 35.0687 11.4138 35.6632 11.66C36.2576 11.9063 36.7978 12.2672 37.2528 12.7222C37.7078 13.1772 38.0687 13.7174 38.3149 14.3118C38.5612 14.9063 38.6879 15.5435 38.6879 16.1869C38.6879 16.4756 38.5732 16.7525 38.3691 16.9566C38.165 17.1608 37.8881 17.2755 37.5994 17.2755ZM20.5159 8.77778C20.444 8.77787 20.3728 8.76367 20.3064 8.73599C20.24 8.70832 20.1798 8.66773 20.1293 8.61657L18.4664 6.93559C18.3688 6.83227 18.3155 6.69485 18.3179 6.55273C18.3202 6.4106 18.3781 6.27505 18.4791 6.17505C18.5802 6.07505 18.7163 6.01853 18.8584 6.01759C19.0006 6.01665 19.1374 6.07135 19.2398 6.17001L20.9026 7.85047C20.9782 7.92678 21.0296 8.02377 21.0502 8.12922C21.0707 8.23466 21.0597 8.34383 21.0183 8.44299C20.977 8.54215 20.9072 8.62685 20.8178 8.68643C20.7284 8.746 20.6234 8.77779 20.5159 8.77778ZM24.2381 9.36454C24.1233 9.36416 24.0115 9.32748 23.9188 9.25974C23.8261 9.192 23.7572 9.09668 23.722 8.9874C23.6867 8.87812 23.6869 8.76049 23.7225 8.65134C23.7582 8.54219 23.8274 8.4471 23.9204 8.37969L27.0786 6.11195C27.1958 6.03882 27.3364 6.01295 27.4719 6.0396C27.6074 6.06624 27.7277 6.1434 27.8084 6.25545C27.8892 6.36749 27.9243 6.50604 27.9067 6.64301C27.8891 6.77998 27.8201 6.90514 27.7136 6.99313L24.5554 9.26035C24.4632 9.32759 24.3522 9.36405 24.2381 9.36454Z" fill="#14532D"/>
<path d="M38.5631 16.4661C38.4187 16.4661 38.2803 16.4087 38.1782 16.3067C38.0761 16.2046 38.0188 16.0662 38.0188 15.9218V10.7415C38.0188 10.5972 38.0761 10.4587 38.1782 10.3567C38.2803 10.2546 38.4187 10.1973 38.5631 10.1973C38.7074 10.1973 38.8458 10.2546 38.9479 10.3567C39.05 10.4587 39.1073 10.5972 39.1073 10.7415V14.4062L40.6338 12.5552C40.7263 12.4459 40.8581 12.3775 41.0007 12.3647C41.1433 12.3519 41.2851 12.3958 41.3956 12.4869C41.506 12.5779 41.5761 12.7089 41.5907 12.8513C41.6053 12.9937 41.5632 13.1361 41.4735 13.2477L38.9855 16.2676C38.9342 16.3299 38.8697 16.3801 38.7966 16.4144C38.7236 16.4487 38.6438 16.4664 38.5631 16.4661Z" fill="#14532D"/>
</g>
<defs>
<clipPath id="clip0_8334_41562">
<rect width="44" height="44" fill="white" transform="translate(0.272705)"/>
</clipPath>
</defs>
</svg>
