<svg width="188" height="136" viewBox="0 0 188 136" fill="none" xmlns="http://www.w3.org/2000/svg">
<path d="M126.609 55.1368C113.271 55.1368 99.6943 54.595 86.9937 51.0573C74.5321 47.5993 63.0905 40.8905 52.8918 33.1299C46.2148 28.0784 40.1434 24.0626 31.4745 24.6682C22.9865 25.1328 14.8735 28.3177 8.33618 33.7514C-2.69117 43.3127 -1.03388 61.2082 3.38024 73.7813C10.0094 92.7126 30.1837 105.828 47.3303 114.401C67.1381 124.297 88.9059 130.034 110.722 133.348C129.844 136.248 154.417 138.368 170.99 125.874C186.208 114.401 190.383 88.2029 186.654 70.5145C185.75 65.2843 182.968 60.5641 178.83 57.2403C168.137 49.4319 152.186 54.6428 140.17 54.9137C135.708 55.0093 131.167 55.1209 126.609 55.1368Z" fill="#F2F2F2"/>
<path d="M136.283 6.85527L46.1918 39.3967C43.0877 40.5179 41.4803 43.9432 42.6015 47.0472L61.6088 99.6691C62.73 102.773 66.1553 104.381 69.2594 103.259L159.351 70.7179C162.455 69.5967 164.062 66.1715 162.941 63.0674L143.934 10.4455C142.812 7.34149 139.387 5.73407 136.283 6.85527Z" fill="#7DA851" fill-opacity="0.4"/>
<path d="M67.2496 131.372C68.1121 131.372 68.8113 130.673 68.8113 129.81C68.8113 128.948 68.1121 128.249 67.2496 128.249C66.3871 128.249 65.6879 128.948 65.6879 129.81C65.6879 130.673 66.3871 131.372 67.2496 131.372Z" fill="#7DA851"/>
<path d="M108.714 3.12335C109.576 3.12335 110.275 2.42417 110.275 1.56168C110.275 0.699186 109.576 0 108.714 0C107.851 0 107.152 0.699186 107.152 1.56168C107.152 2.42417 107.851 3.12335 108.714 3.12335Z" fill="#7DA851"/>
<path d="M65.3214 13.2104V20.0786" stroke="#7DA851" stroke-width="1.59355" stroke-linecap="round" stroke-linejoin="round"/>
<path d="M61.8794 16.6526H68.7475" stroke="#7DA851" stroke-width="1.59355" stroke-linecap="round" stroke-linejoin="round"/>
<path d="M166.081 38.5957V45.448" stroke="#7DA851" stroke-width="1.59355" stroke-linecap="round" stroke-linejoin="round"/>
<path d="M162.639 42.0219H169.508" stroke="#7DA851" stroke-width="1.59355" stroke-linecap="round" stroke-linejoin="round"/>
<path d="M139.72 41.8366L44.9942 56.0611C41.7304 56.5512 39.482 59.5943 39.9721 62.858L48.2805 118.187C48.7706 121.451 51.8137 123.699 55.0775 123.209L149.804 108.985C153.067 108.495 155.316 105.452 154.826 102.188L146.517 46.8587C146.027 43.5949 142.984 41.3465 139.72 41.8366Z" fill="white" stroke="#7DA851" stroke-opacity="0.3" stroke-width="1.59355" stroke-linecap="round" stroke-linejoin="round"/>
<path d="M134.097 50.6186L126.123 51.816C124.792 52.016 123.874 53.2576 124.074 54.5892L125.272 62.5631C125.472 63.8948 126.713 64.8121 128.045 64.6122L136.019 63.4148C137.35 63.2148 138.268 61.9732 138.068 60.6416L136.87 52.6677C136.671 51.3361 135.429 50.4187 134.097 50.6186Z" fill="#7DA851" fill-opacity="0.5"/>
<path d="M80.3836 98.4139L57.0764 101.914C56.3453 102.024 55.8416 102.705 55.9514 103.436L56.0555 104.13C56.1653 104.861 56.847 105.364 57.578 105.255L80.8853 101.755C81.6164 101.645 82.12 100.963 82.0103 100.232L81.9061 99.5389C81.7964 98.8078 81.1147 98.3041 80.3836 98.4139Z" fill="#7DA851" fill-opacity="0.5"/>
<path d="M96.1407 102.884L58.4299 108.547C57.5074 108.686 56.8718 109.546 57.0103 110.468C57.1489 111.391 58.009 112.026 58.9316 111.888L96.6424 106.225C97.5649 106.086 98.2005 105.226 98.062 104.304C97.9234 103.381 97.0633 102.746 96.1407 102.884Z" fill="#7DA851" fill-opacity="0.5"/>
</svg>
