<svg width="32" height="32" viewBox="0 0 32 32" fill="none" xmlns="http://www.w3.org/2000/svg">
<g id="Send">
<g id="Iconly/Bold/Send">
<g id="Send_2">
<path id="Vector" d="M28.5805 3.44248C27.9135 2.75797 26.9265 2.50295 26.0061 2.77139L4.54395 9.01254C3.57289 9.28231 2.88461 10.0568 2.6992 11.0406C2.50979 12.0418 3.17139 13.3129 4.03575 13.8444L10.7465 17.9689C11.4348 18.3917 12.3231 18.2857 12.8927 17.7112L20.5772 9.97891C20.964 9.57625 21.6043 9.57625 21.9911 9.97891C22.3779 10.3681 22.3779 10.999 21.9911 11.4016L14.2933 19.1353C13.7224 19.7084 13.6157 20.6009 14.0358 21.2935L18.1362 28.0715C18.6164 28.8768 19.4434 29.3332 20.3504 29.3332C20.4571 29.3332 20.5772 29.3332 20.6839 29.3197C21.7243 29.1855 22.5513 28.4742 22.8581 27.4675L29.2207 6.03289C29.5008 5.12021 29.2474 4.12699 28.5805 3.44248Z" fill="#077DBB"/>
</g>
</g>
</g>
</svg>
