<svg width="1440" height="814" viewBox="0 0 1440 814" fill="none" xmlns="http://www.w3.org/2000/svg">
<path d="M556.477 -344.043C691.256 -298.14 474.245 104.057 1127.31 104.057C1472.18 104.057 1397.86 432.663 1605.97 455.979" stroke="#E4E7EC"/>
<path d="M821.084 -531.15C955.864 -485.248 738.853 -83.0509 1391.92 -83.0509C1736.79 -83.0509 1662.47 245.555 1870.58 268.871" stroke="#E4E7EC"/>
<path d="M-251 -142.649C-32.251 -171.78 415.611 -171.822 325.777 -0.0569247C177.123 284.172 527.121 563.411 1461.49 618.607" stroke="#E4E7EC"/>
<path d="M-552.477 -36.7091C-282.079 -72.6609 271.529 -72.7125 160.483 139.265C-23.2693 490.036 409.368 834.649 1564.35 902.768" stroke="#E4E7EC"/>
<path d="M-831.946 140.532C-525.85 99.8193 100.847 99.7608 -24.8591 339.809C-232.871 737.029 256.883 1127.28 1564.35 1204.41" stroke="#E4E7EC"/>
</svg>
