<svg width="40" height="40" viewBox="0 0 40 40" fill="none" xmlns="http://www.w3.org/2000/svg">
<path d="M34.9104 13.2404C36.6433 16.8647 36.9723 21.0024 35.8338 24.8551C34.6953 28.7077 32.1702 32.002 28.7456 34.1023C25.3211 36.2026 21.2399 36.9599 17.2898 36.2281C13.3397 35.4962 9.80074 33.3272 7.35586 30.1395C4.91098 26.9518 3.73354 22.9715 4.05077 18.9668C4.36801 14.962 6.15743 11.2167 9.07369 8.45372C11.99 5.69072 15.8263 4.1059 19.8423 4.00512C23.8584 3.90434 27.7694 5.29475 30.8206 7.90799L34.3594 4.36765C34.5937 4.13333 34.9115 4.00168 35.2429 4.00168C35.5743 4.00168 35.8921 4.13333 36.1264 4.36765C36.3607 4.60198 36.4924 4.91979 36.4924 5.25117C36.4924 5.58256 36.3607 5.90037 36.1264 6.1347L21.1408 21.1203C20.9065 21.3546 20.5887 21.4862 20.2573 21.4862C19.9259 21.4862 19.6081 21.3546 19.3738 21.1203C19.1395 20.8859 19.0078 20.5681 19.0078 20.2367C19.0078 19.9054 19.1395 19.5875 19.3738 19.3532L23.7009 15.0261C22.5282 14.2506 21.1281 13.8935 19.7272 14.0127C18.3263 14.1318 17.0066 14.7203 15.9818 15.6829C14.9569 16.6454 14.287 17.9257 14.0803 19.3163C13.8737 20.707 14.1424 22.1268 14.843 23.3457C15.5437 24.5647 16.6352 25.5115 17.9409 26.0329C19.2466 26.5543 20.69 26.6198 22.0376 26.2187C23.3851 25.8177 24.5579 24.9736 25.366 23.8231C26.1741 22.6725 26.5703 21.283 26.4904 19.8793C26.4811 19.7153 26.5043 19.5511 26.5586 19.396C26.6128 19.241 26.697 19.0982 26.8065 18.9757C26.9159 18.8532 27.0484 18.7535 27.1964 18.6822C27.3444 18.6109 27.5049 18.5695 27.6689 18.5602C28.0001 18.5416 28.3252 18.6553 28.5725 18.8763C28.695 18.9858 28.7947 19.1183 28.866 19.2662C28.9373 19.4142 28.9787 19.5748 28.988 19.7388C29.1018 21.7256 28.5343 23.6918 27.3793 25.3124C26.2243 26.933 24.5509 28.1109 22.6357 28.6516C20.7205 29.1923 18.6782 29.0634 16.8462 28.286C15.0142 27.5087 13.5023 26.1296 12.5604 24.3765C11.6184 22.6235 11.3028 20.6016 11.6657 18.6449C12.0286 16.6882 13.0482 14.9139 14.5561 13.6152C16.0641 12.3165 17.97 11.5712 19.9588 11.5025C21.9477 11.4338 23.9005 12.0457 25.4945 13.2372L29.0457 9.68597C26.4432 7.52523 23.1342 6.40219 19.7541 6.53256C16.3741 6.66292 13.1614 8.03749 10.733 10.3923C8.30469 12.747 6.83197 15.916 6.59772 19.2904C6.36347 22.6649 7.38421 26.0069 9.46389 28.6746C11.5436 31.3423 14.5356 33.1476 17.8652 33.7437C21.1948 34.3399 24.6273 33.6848 27.5034 31.9044C30.3794 30.124 32.4963 27.3437 33.4474 24.0976C34.3985 20.8515 34.1168 17.3685 32.6563 14.3174C32.5135 14.0185 32.4952 13.6751 32.6056 13.3628C32.716 13.0504 32.9459 12.7947 33.2448 12.6519C33.5437 12.509 33.8871 12.4908 34.1995 12.6012C34.5118 12.7115 34.7676 12.9414 34.9104 13.2404Z" fill="white"/>
</svg>
