<svg width="252" height="210" viewBox="0 0 252 210" fill="none" xmlns="http://www.w3.org/2000/svg">
<path d="M169.653 92.5227C151.78 92.5227 133.587 91.7967 116.569 87.0564C99.8708 82.4228 84.5393 73.4331 70.8733 63.0342C61.9264 56.2653 53.7909 50.8843 42.1748 51.6957C30.8011 52.3184 19.93 56.586 11.1702 63.867C-3.60613 76.6788 -1.38542 100.658 4.52938 117.506C13.4122 142.873 40.4452 160.447 63.4211 171.935C89.9629 185.195 119.131 192.882 148.364 197.324C173.987 201.21 206.914 204.05 229.121 187.309C249.513 171.935 255.107 136.83 250.111 113.128C248.9 106.12 245.171 99.7951 239.626 95.3414C225.299 84.8784 203.924 91.8608 187.824 92.2238C181.845 92.3519 175.76 92.5014 169.653 92.5227Z" fill="#F2F2F2"/>
<path d="M172.919 5.40218C174.075 5.40218 175.012 4.46529 175.012 3.30958C175.012 2.15387 174.075 1.21698 172.919 1.21698C171.764 1.21698 170.827 2.15387 170.827 3.30958C170.827 4.46529 171.764 5.40218 172.919 5.40218Z" fill="#7DA851"/>
<path d="M37.0075 183.871C38.1633 183.871 39.1001 182.934 39.1001 181.778C39.1001 180.623 38.1633 179.686 37.0075 179.686C35.8518 179.686 34.9149 180.623 34.9149 181.778C34.9149 182.934 35.8518 183.871 37.0075 183.871Z" fill="#7DA851"/>
<path d="M67.7985 4.1852C68.9542 4.1852 69.8911 3.24831 69.8911 2.0926C69.8911 0.936887 68.9542 0 67.7985 0C66.6428 0 65.7059 0.936887 65.7059 2.0926C65.7059 3.24831 66.6428 4.1852 67.7985 4.1852Z" fill="#7DA851"/>
<path d="M233.99 82.6149C235.145 82.6149 236.082 81.678 236.082 80.5223C236.082 79.3666 235.145 78.4297 233.99 78.4297C232.834 78.4297 231.897 79.3666 231.897 80.5223C231.897 81.678 232.834 82.6149 233.99 82.6149Z" fill="#7DA851"/>
<path d="M117.893 198.797V208" stroke="#7DA851" stroke-width="2.1353" stroke-linecap="round" stroke-linejoin="round"/>
<path d="M113.281 203.409H122.484" stroke="#7DA851" stroke-width="2.1353" stroke-linecap="round" stroke-linejoin="round"/>
<path d="M210.992 42.5566V51.7598" stroke="#7DA851" stroke-width="2.1353" stroke-linecap="round" stroke-linejoin="round"/>
<path d="M206.38 47.1688H215.583" stroke="#7DA851" stroke-width="2.1353" stroke-linecap="round" stroke-linejoin="round"/>
<path d="M105.465 29.5953V38.7984" stroke="#7DA851" stroke-width="2.1353" stroke-linecap="round" stroke-linejoin="round"/>
<path d="M100.874 34.1862H110.056" stroke="#7DA851" stroke-width="2.1353" stroke-linecap="round" stroke-linejoin="round"/>
<path d="M52.5738 98.5016C68.1523 98.5016 80.7812 85.8727 80.7812 70.2942C80.7812 54.7157 68.1523 42.0868 52.5738 42.0868C36.9953 42.0868 24.3664 54.7157 24.3664 70.2942C24.3664 85.8727 36.9953 98.5016 52.5738 98.5016Z" fill="white" stroke="#7DA851" stroke-opacity="0.4" stroke-width="2.1353" stroke-linecap="round" stroke-linejoin="round"/>
<path d="M52.5738 90.8358C63.9186 90.8358 73.1154 81.639 73.1154 70.2942C73.1154 58.9494 63.9186 49.7526 52.5738 49.7526C41.2289 49.7526 32.0321 58.9494 32.0321 70.2942C32.0321 81.639 41.2289 90.8358 52.5738 90.8358Z" fill="#7DA851" fill-opacity="0.6"/>
<path d="M52.0187 83.5331L51.8906 80.2874C50.1517 80.3481 48.4299 79.9269 46.9153 79.0703L47.5986 76.935C49.0078 77.7824 50.6315 78.205 52.2749 78.1521C54.5597 78.1521 56.0544 76.6788 55.969 74.8424C55.8836 73.006 54.6024 72.0238 52.1895 71.1697C48.8585 70.0166 46.7872 68.6073 46.6805 65.8101C46.6496 64.5009 47.1069 63.227 47.9633 62.2364C48.8198 61.2457 50.0142 60.6091 51.3141 60.4504L51.1859 57.2048H53.1718L53.2999 60.3223C54.7821 60.273 56.2523 60.6038 57.5705 61.2832L56.8445 63.4185C55.5953 62.7414 54.1856 62.4166 52.7661 62.479C50.2891 62.5857 49.4136 64.1018 49.4563 65.383C49.4563 67.0485 50.7589 67.8386 53.5988 68.8849C56.9513 70.102 58.6809 71.7035 58.809 74.5648C58.8364 75.9419 58.3548 77.2807 57.4565 78.3248C56.5581 79.3689 55.3062 80.0449 53.9405 80.2234L54.0686 83.5758L52.0187 83.5331Z" fill="white"/>
<path d="M187.461 160.831L82.6815 187.138C80.6044 187.657 78.4363 187.696 76.3419 187.252C74.2475 186.808 72.2818 185.892 70.594 184.575C68.9062 183.258 67.5408 181.573 66.6013 179.65C65.6618 177.726 65.173 175.613 65.172 173.472V60.4077L183.447 30.7269C184.667 30.4221 185.941 30.3993 187.172 30.6602C188.403 30.9211 189.558 31.4588 190.55 32.2326C191.542 33.0064 192.344 33.996 192.897 35.1262C193.449 36.2564 193.737 37.4976 193.739 38.7557V152.824C193.736 154.667 193.116 156.457 191.978 157.908C190.841 159.359 189.251 160.388 187.461 160.831Z" fill="#7DA851" fill-opacity="0.4"/>
<path d="M65.172 61.155H213.085C214.17 61.155 215.244 61.3688 216.247 61.7841C217.25 62.1993 218.161 62.808 218.928 63.5754C219.695 64.3427 220.304 65.2537 220.719 66.2563C221.134 67.2589 221.348 68.3335 221.348 69.4187V183.999C221.348 185.084 221.134 186.159 220.719 187.161C220.304 188.164 219.695 189.075 218.928 189.842C218.161 190.61 217.25 191.218 216.247 191.634C215.244 192.049 214.17 192.263 213.085 192.263H75.1225C72.4835 192.263 69.9526 191.214 68.0865 189.348C66.2204 187.482 65.172 184.951 65.172 182.312V61.155Z" fill="white" stroke="#7DA851" stroke-opacity="0.3" stroke-width="2.1353" stroke-linecap="round" stroke-linejoin="round"/>
<path d="M200.529 135.848C205.576 135.848 209.668 131.756 209.668 126.709C209.668 121.662 205.576 117.57 200.529 117.57C195.482 117.57 191.39 121.662 191.39 126.709C191.39 131.756 195.482 135.848 200.529 135.848Z" fill="#7DA851" fill-opacity="0.4"/>
</svg>
