<svg width="119" height="40" viewBox="0 0 119 40" fill="none" xmlns="http://www.w3.org/2000/svg">
<path d="M37.6164 19.322L30.3556 7.90977C30.2411 7.66886 30.3792 7.5542 30.5285 7.53125H39.2154C39.5133 7.53125 39.619 7.55339 39.7341 7.81445L41.9057 12.1836H41.9609L44.1748 7.78925C44.2868 7.61636 44.4497 7.53691 44.653 7.53125H53.0764C53.2883 7.53701 53.3702 7.63574 53.2424 7.88646L46.0253 19.0695V27.956H37.6203V19.326L37.6164 19.322Z" fill="white"/>
<path d="M54.2884 7.53125H62.6935V27.9521H54.2884V7.53125Z" fill="white"/>
<path d="M64.8955 7.53125H79.5907V14.3579H73.3005V15.4589H78.3792V20.3086H73.3005V21.4647H79.9853V27.9521H64.8955V7.53125Z" fill="white"/>
<path d="M81.7926 7.53125H90.1977V20.7032H96.5154V27.9521H81.7926V7.53125Z" fill="white"/>
<path d="M98.4331 27.9522V7.53125H106.98C110.93 7.53125 113.977 8.74267 116.037 10.7196C117.84 12.4401 119 14.7801 119 17.7436C119 20.7071 117.927 22.9919 116.096 24.7401C113.981 26.7722 110.907 27.9561 107.04 27.9561L98.4372 27.956L98.4331 27.9522H98.4331ZM106.842 21.2952H107.04C108.448 21.2952 109.522 20.8453 110.2 20.139C110.765 19.547 111.132 18.7301 111.132 17.7397C111.132 16.7493 110.765 15.8772 110.2 15.2852C109.608 14.6657 108.65 14.1843 107.099 14.1843H106.846V21.2911L106.842 21.2951L106.842 21.2952Z" fill="white"/>
<path d="M34.1604 35.8226H35.4211C35.8785 35.8226 36.2068 35.5572 36.2068 35.173C36.2068 34.9076 36.0462 34.6841 35.7667 34.5583C35.9799 34.4466 36.1021 34.2685 36.1021 34.024C36.1021 33.6748 35.8052 33.4233 35.3756 33.4233H34.1603V35.8226L34.1604 35.8226ZM34.6737 34.3907V33.8634H35.2465C35.4386 33.8634 35.5747 33.9752 35.5747 34.1253C35.5747 34.279 35.4386 34.3907 35.2465 34.3907H34.6737ZM34.6737 35.3825V34.7958H35.3268C35.5328 34.7958 35.6795 34.918 35.6795 35.0892C35.6795 35.2603 35.5328 35.3825 35.3268 35.3825H34.6737Z" fill="white"/>
<path d="M38.0662 35.8226H38.5866V34.9565L39.5225 33.4233H38.9463L38.3247 34.4745L37.7275 33.4233H37.1268L38.0662 34.9565V35.8226Z" fill="white"/>
<path d="M42.6985 35.8648C43.0617 35.8648 43.3969 35.7076 43.6309 35.4632L43.2573 35.128C43.1176 35.2886 42.9185 35.3969 42.6985 35.3969C42.2969 35.3969 41.9547 35.0406 41.9547 34.6216C41.9547 34.206 42.2969 33.8498 42.6985 33.8498C42.9185 33.8498 43.1176 33.958 43.2573 34.1187L43.6309 33.7834C43.3969 33.5354 43.0617 33.3818 42.6985 33.3818C42.0105 33.3818 41.4238 33.9475 41.4238 34.6216C41.4238 35.2956 42.0105 35.8649 42.6985 35.8649V35.8648Z" fill="white"/>
<path d="M46.7475 35.8226L46.1573 34.9845C46.4856 34.8692 46.7022 34.5898 46.7022 34.2336C46.7022 33.7587 46.318 33.4233 45.7976 33.4233H44.7185V35.8226H45.2318V35.0438H45.6125L46.1609 35.8226H46.7475ZM45.2318 33.8948H45.7417C45.9967 33.8948 46.1713 34.0276 46.1713 34.2336C46.1713 34.4396 45.9967 34.5723 45.7417 34.5723H45.2318V33.8948Z" fill="white"/>
<path d="M49.7035 33.8878V33.4233H47.8561V35.8226H49.7035V35.3581H48.373V34.8308H49.5778V34.3663H48.373V33.8878H49.7035Z" fill="white"/>
<path d="M50.8856 35.8226H51.7446C52.5514 35.8226 53.1241 35.3232 53.1241 34.6212C53.1241 33.9193 52.5513 33.4233 51.7446 33.4233H50.8856V35.8226ZM51.3989 35.3546V33.8913H51.811C52.2685 33.8913 52.5933 34.1951 52.5933 34.6212C52.5933 35.0508 52.2685 35.3546 51.811 35.3546H51.3989Z" fill="white"/>
<path d="M54.299 35.8226H54.816V33.4233H54.299V35.8226Z" fill="white"/>
<path d="M56.6857 35.8226H57.2026V33.8878H57.9499V33.4233H55.9384V33.8878H56.6857V35.8226Z" fill="white"/>
<path d="M60.0609 35.8226H60.9199C61.7266 35.8226 62.2994 35.3232 62.2994 34.6212C62.2994 33.9193 61.7266 33.4233 60.9199 33.4233H60.0609V35.8226ZM60.5742 35.3546V33.8913H60.9863C61.4438 33.8913 61.7686 34.1951 61.7686 34.6212C61.7686 35.0508 61.4438 35.3546 60.9863 35.3546H60.5742Z" fill="white"/>
<path d="M63.4742 35.8226H63.9912V33.4233H63.4742V35.8226Z" fill="white"/>
<path d="M67.2684 35.8226L66.6782 34.9845C67.0065 34.8692 67.2231 34.5898 67.2231 34.2336C67.2231 33.7587 66.8389 33.4233 66.3185 33.4233H65.2394V35.8226H65.7527V35.0438H66.1334L66.6817 35.8226H67.2684ZM65.7527 33.8948H66.2626C66.5176 33.8948 66.6922 34.0276 66.6922 34.2336C66.6922 34.4396 66.5176 34.5723 66.2626 34.5723H65.7527V33.8948Z" fill="white"/>
<path d="M70.2244 33.8878V33.4233H68.377V35.8226H70.2244V35.3581H68.8938V34.8308H70.0986V34.3663H68.8938V33.8878H70.2244Z" fill="white"/>
<path d="M72.5658 35.8648C72.929 35.8648 73.2643 35.7076 73.4982 35.4632L73.1246 35.128C72.9849 35.2886 72.7858 35.3969 72.5658 35.3969C72.1642 35.3969 71.822 35.0406 71.822 34.6216C71.822 34.206 72.1642 33.8498 72.5658 33.8498C72.7858 33.8498 72.9849 33.958 73.1246 34.1187L73.4982 33.7834C73.2643 33.5354 72.929 33.3818 72.5658 33.3818C71.8778 33.3818 71.2911 33.9475 71.2911 34.6216C71.2911 35.2956 71.8778 35.8649 72.5658 35.8649V35.8648Z" fill="white"/>
<path d="M75.2075 35.8226H75.7244V33.8878H76.4717V33.4233H74.4601V33.8878H75.2075V35.8226Z" fill="white"/>
<path d="M9.31045 19.9034V9.30988C9.31045 6.73867 8.26859 4.41124 6.58359 2.72686C4.89855 1.04249 2.57109 0 -0.00012207 0V10.5935C-0.00012207 15.7352 4.16807 19.9034 9.31043 19.9034V19.9034L9.31045 19.9034Z" fill="white"/>
<path d="M20.0526 10.5938V5.77393C17.4813 5.77393 15.1539 6.81579 13.4689 8.50079C11.7839 10.1858 10.742 12.5133 10.742 15.0845V27.8794C10.742 28.6703 10.1009 29.3121 9.30991 29.3121V19.9102C5.10359 20.2939 1.80981 23.8301 1.80981 28.1362C1.80981 29.5637 2.17178 30.9058 2.80895 32.0771C3.17881 32.757 3.64193 33.3791 4.1806 33.9263H4.17935L10.0706 40.0002L16.0184 33.8679H16.0151C17.4485 32.3826 18.3314 30.3625 18.3314 28.1356C18.3314 23.8038 14.9975 20.2512 10.7551 19.9037C15.891 19.8965 20.0526 15.7309 20.0526 10.5938L20.0526 10.5938Z" fill="white"/>
</svg>
