<svg width="97" height="48" viewBox="0 0 97 48" fill="none" xmlns="http://www.w3.org/2000/svg">
<path d="M40.1279 23.2079L35.071 15.2597C34.9912 15.0919 35.0874 15.0121 35.1914 14.9961H41.2415C41.449 14.9961 41.5226 15.0115 41.6028 15.1933L43.1152 18.2363H43.1537L44.6955 15.1758C44.7736 15.0554 44.887 15 45.0286 14.9961H50.8952C51.0428 15.0001 51.0998 15.0689 51.0109 15.2435L45.9844 23.0321V29.2212H40.1306V23.2107L40.1279 23.2079Z" fill="#333333"/>
<path d="M51.7393 14.9961H57.5931V29.2185H51.7393V14.9961Z" fill="#333333"/>
<path d="M59.1267 14.9961H69.3614V19.7507H64.9805V20.5174H68.5176V23.895H64.9805V24.7003H69.6362V29.2185H59.1267V14.9961Z" fill="#333333"/>
<path d="M70.895 14.9961H76.7489V24.1699H81.1489V29.2185H70.895V14.9961Z" fill="#333333"/>
<path d="M82.4846 29.2185V14.9961H88.4375C91.1886 14.9961 93.3102 15.8398 94.7449 17.2166C96.0007 18.4149 96.8088 20.0447 96.8088 22.1087C96.8088 24.1726 96.0612 25.7639 94.7861 26.9814C93.313 28.3968 91.172 29.2213 88.4787 29.2213L82.4875 29.2212L82.4846 29.2185H82.4846ZM88.3413 24.5822H88.4787C89.4599 24.5822 90.2074 24.2689 90.6801 23.777C91.0731 23.3647 91.3287 22.7957 91.3287 22.106C91.3287 21.4161 91.0731 20.8088 90.6801 20.3965C90.2679 19.965 89.6 19.6297 88.52 19.6297H88.3442V24.5793L88.3413 24.5822L88.3413 24.5822Z" fill="#333333"/>
<path d="M37.721 34.7003H38.599C38.9176 34.7003 39.1462 34.5154 39.1462 34.2479C39.1462 34.063 39.0344 33.9073 38.8397 33.8198C38.9882 33.7419 39.0733 33.6179 39.0733 33.4477C39.0733 33.2044 38.8665 33.0293 38.5674 33.0293H37.7209V34.7003L37.721 34.7003ZM38.0785 33.7031V33.3358H38.4774C38.6112 33.3358 38.706 33.4136 38.706 33.5182C38.706 33.6252 38.6112 33.7031 38.4774 33.7031H38.0785ZM38.0785 34.3938V33.9852H38.5334C38.6768 33.9852 38.779 34.0703 38.779 34.1895C38.779 34.3087 38.6768 34.3938 38.5334 34.3938H38.0785Z" fill="#333333"/>
<path d="M40.4412 34.7003H40.8036V34.0971L41.4554 33.0293H41.0541L40.6212 33.7614L40.2052 33.0293H39.7869L40.4412 34.0971V34.7003Z" fill="#333333"/>
<path d="M43.6673 34.7293C43.9203 34.7293 44.1538 34.6198 44.3167 34.4496L44.0565 34.2161C43.9592 34.328 43.8205 34.4034 43.6673 34.4034C43.3876 34.4034 43.1492 34.1553 43.1492 33.8634C43.1492 33.574 43.3876 33.3259 43.6673 33.3259C43.8205 33.3259 43.9592 33.4013 44.0565 33.5132L44.3167 33.2797C44.1538 33.107 43.9203 33 43.6673 33C43.1881 33 42.7795 33.394 42.7795 33.8634C42.7795 34.3328 43.1881 34.7293 43.6673 34.7293V34.7293Z" fill="#333333"/>
<path d="M46.4874 34.7003L46.0763 34.1166C46.305 34.0363 46.4558 33.8417 46.4558 33.5936C46.4558 33.2628 46.1882 33.0293 45.8258 33.0293H45.0742V34.7003H45.4317V34.1579H45.6969L46.0788 34.7003H46.4874ZM45.4317 33.3577H45.7869C45.9644 33.3577 46.086 33.4501 46.086 33.5936C46.086 33.7371 45.9644 33.8295 45.7869 33.8295H45.4317V33.3577Z" fill="#333333"/>
<path d="M48.5462 33.3528V33.0293H47.2595V34.7003H48.5462V34.3768H47.6195V34.0095H48.4586V33.686H47.6195V33.3528H48.5462Z" fill="#333333"/>
<path d="M49.3694 34.7003H49.9677C50.5296 34.7003 50.9284 34.3525 50.9284 33.8636C50.9284 33.3747 50.5295 33.0293 49.9677 33.0293H49.3694V34.7003ZM49.7269 34.3744V33.3552H50.0139C50.3326 33.3552 50.5588 33.5668 50.5588 33.8636C50.5588 34.1628 50.3326 34.3744 50.0139 34.3744H49.7269Z" fill="#333333"/>
<path d="M51.7466 34.7003H52.1066V33.0293H51.7466V34.7003Z" fill="#333333"/>
<path d="M53.4089 34.7003H53.7689V33.3528H54.2894V33.0293H52.8884V33.3528H53.4089V34.7003Z" fill="#333333"/>
<path d="M55.7598 34.7003H56.3581C56.9199 34.7003 57.3188 34.3525 57.3188 33.8636C57.3188 33.3747 56.9199 33.0293 56.3581 33.0293H55.7598V34.7003ZM56.1173 34.3744V33.3552H56.4043C56.7229 33.3552 56.9492 33.5668 56.9492 33.8636C56.9492 34.1628 56.7229 34.3744 56.4043 34.3744H56.1173Z" fill="#333333"/>
<path d="M58.137 34.7003H58.497V33.0293H58.137V34.7003Z" fill="#333333"/>
<path d="M60.7794 34.7003L60.3683 34.1166C60.5969 34.0363 60.7478 33.8417 60.7478 33.5936C60.7478 33.2628 60.4802 33.0293 60.1178 33.0293H59.3662V34.7003H59.7237V34.1579H59.9889L60.3708 34.7003H60.7794ZM59.7237 33.3577H60.0789C60.2564 33.3577 60.378 33.4501 60.378 33.5936C60.378 33.7371 60.2564 33.8295 60.0789 33.8295H59.7237V33.3577Z" fill="#333333"/>
<path d="M62.8382 33.3528V33.0293H61.5515V34.7003H62.8382V34.3768H61.9115V34.0095H62.7506V33.686H61.9115V33.3528H62.8382Z" fill="#333333"/>
<path d="M64.4688 34.7293C64.7218 34.7293 64.9553 34.6198 65.1182 34.4496L64.858 34.2161C64.7607 34.328 64.6221 34.4034 64.4688 34.4034C64.1891 34.4034 63.9508 34.1553 63.9508 33.8634C63.9508 33.574 64.1891 33.3259 64.4688 33.3259C64.622 33.3259 64.7607 33.4013 64.858 33.5132L65.1182 33.2797C64.9553 33.107 64.7218 33 64.4688 33C63.9896 33 63.5811 33.394 63.5811 33.8634C63.5811 34.3328 63.9896 34.7293 64.4688 34.7293V34.7293Z" fill="#333333"/>
<path d="M66.3088 34.7003H66.6688V33.3528H67.1893V33.0293H65.7883V33.3528H66.3088V34.7003Z" fill="#333333"/>
<path d="M11.1724 23.8841V11.1719C11.1724 8.0864 9.9222 5.29348 7.9002 3.27223C5.87816 1.25099 3.08522 0 -0.000244141 0V12.7122C-0.000244141 18.8823 5.00159 23.8841 11.1724 23.8841V23.8841L11.1724 23.8841Z" fill="#7CA853"/>
<path d="M24.0632 12.7125V6.92871C20.9777 6.92871 18.1847 8.17895 16.1627 10.2009C14.1407 12.223 12.8905 15.016 12.8905 18.1014V33.4552C12.8905 34.4044 12.1211 35.1746 11.172 35.1746V23.8923C6.1244 24.3527 2.17188 28.5961 2.17188 33.7635C2.17188 35.4765 2.60623 37.087 3.37083 38.4925C3.81467 39.3084 4.37042 40.055 5.01682 40.7116H5.01532L12.0848 48.0003L19.2222 40.6415H19.2182C20.9383 38.8591 21.9978 36.435 21.9978 33.7627C21.9978 28.5646 17.9972 24.3014 12.9063 23.8845C19.0693 23.8758 24.0632 18.8771 24.0632 12.7125L24.0632 12.7125Z" fill="#7CA853"/>
</svg>
