<svg width="119" height="40" viewBox="0 0 119 40" fill="none" xmlns="http://www.w3.org/2000/svg">
<path d="M37.6163 19.3222L30.3556 7.91002C30.241 7.6691 30.3792 7.55444 30.5285 7.53149H39.2153C39.5133 7.53149 39.6189 7.55363 39.734 7.8147L41.9057 12.1838H41.9608L44.1747 7.78949C44.2867 7.61661 44.4496 7.53715 44.6529 7.53149H53.0763C53.2883 7.53726 53.3701 7.63598 53.2424 7.8867L46.0252 19.0698V27.9563H37.6202V19.3263L37.6163 19.3222Z" fill="white"/>
<path d="M54.2883 7.53149H62.6935V27.9524H54.2883V7.53149Z" fill="white"/>
<path d="M64.8955 7.53149H79.5907V14.3582H73.3005V15.4591H78.3792V20.3088H73.3005V21.465H79.9853V27.9524H64.8955V7.53149Z" fill="white"/>
<path d="M81.7925 7.53149H90.1976V20.7034H96.5153V27.9524H81.7925V7.53149Z" fill="white"/>
<path d="M98.4331 27.9524V7.53149H106.98C110.93 7.53149 113.977 8.74292 116.037 10.7198C117.84 12.4403 119 14.7804 119 17.7439C119 20.7073 117.927 22.9922 116.096 24.7403C113.981 26.7725 110.907 27.9564 107.04 27.9564L98.4372 27.9563L98.4331 27.9524H98.4331ZM106.842 21.2954H107.04C108.448 21.2954 109.522 20.8455 110.2 20.1393C110.765 19.5473 111.132 18.7304 111.132 17.74C111.132 16.7495 110.765 15.8775 110.2 15.2855C109.608 14.666 108.65 14.1846 107.099 14.1846H106.846V21.2913L106.842 21.2954L106.842 21.2954Z" fill="white"/>
<path d="M34.1604 35.8228H35.4212C35.8786 35.8228 36.2069 35.5574 36.2069 35.1732C36.2069 34.9079 36.0462 34.6843 35.7668 34.5586C35.9799 34.4468 36.1021 34.2687 36.1021 34.0243C36.1021 33.675 35.8052 33.4236 35.3757 33.4236H34.1604V35.8228L34.1604 35.8228ZM34.6738 34.391V33.8636H35.2465C35.4386 33.8636 35.5748 33.9754 35.5748 34.1255C35.5748 34.2792 35.4386 34.391 35.2465 34.391H34.6738ZM34.6738 35.3827V34.7961H35.3269C35.5329 34.7961 35.6796 34.9183 35.6796 35.0894C35.6796 35.2605 35.5329 35.3827 35.3269 35.3827H34.6738Z" fill="white"/>
<path d="M38.0662 35.8227H38.5865V34.9566L39.5225 33.4235H38.9462L38.3246 34.4747L37.7274 33.4235H37.1267L38.0662 34.9566V35.8227Z" fill="white"/>
<path d="M42.6985 35.8646C43.0617 35.8646 43.3969 35.7074 43.6309 35.4629L43.2573 35.1277C43.1176 35.2884 42.9185 35.3966 42.6985 35.3966C42.2969 35.3966 41.9547 35.0403 41.9547 34.6213C41.9547 34.2057 42.2969 33.8495 42.6985 33.8495C42.9185 33.8495 43.1176 33.9578 43.2573 34.1185L43.6309 33.7831C43.3969 33.5352 43.0617 33.3816 42.6985 33.3816C42.0105 33.3816 41.4238 33.9473 41.4238 34.6214C41.4238 35.2953 42.0105 35.8646 42.6985 35.8646V35.8646Z" fill="white"/>
<path d="M46.7475 35.8227L46.1573 34.9846C46.4856 34.8693 46.7022 34.5899 46.7022 34.2337C46.7022 33.7588 46.318 33.4235 45.7976 33.4235H44.7185V35.8227H45.2318V35.0439H45.6125L46.1609 35.8227H46.7475ZM45.2318 33.8949H45.7417C45.9967 33.8949 46.1713 34.0277 46.1713 34.2337C46.1713 34.4398 45.9967 34.5724 45.7417 34.5724H45.2318V33.8949Z" fill="white"/>
<path d="M49.7036 33.8879V33.4235H47.8562V35.8227H49.7036V35.3582H48.373V34.8309H49.5779V34.3664H48.373V33.8879H49.7036Z" fill="white"/>
<path d="M50.8855 35.8227H51.7446C52.5513 35.8227 53.124 35.3233 53.124 34.6214C53.124 33.9194 52.5513 33.4235 51.7446 33.4235H50.8855V35.8227ZM51.3988 35.3547V33.8914H51.8109C52.2685 33.8914 52.5932 34.1952 52.5932 34.6214C52.5932 35.0509 52.2685 35.3547 51.8109 35.3547H51.3988Z" fill="white"/>
<path d="M54.2991 35.8227H54.816V33.4235H54.2991V35.8227Z" fill="white"/>
<path d="M56.6858 35.8227H57.2027V33.8879H57.95V33.4235H55.9385V33.8879H56.6858V35.8227Z" fill="white"/>
<path d="M60.0608 35.8227H60.9199C61.7266 35.8227 62.2993 35.3233 62.2993 34.6214C62.2993 33.9194 61.7265 33.4235 60.9199 33.4235H60.0608V35.8227ZM60.5741 35.3547V33.8914H60.9862C61.4437 33.8914 61.7685 34.1952 61.7685 34.6214C61.7685 35.0509 61.4437 35.3547 60.9862 35.3547H60.5741Z" fill="white"/>
<path d="M63.4741 35.8227H63.991V33.4235H63.4741V35.8227Z" fill="white"/>
<path d="M67.2683 35.8227L66.6781 34.9846C67.0064 34.8693 67.2229 34.5899 67.2229 34.2337C67.2229 33.7588 66.8387 33.4235 66.3184 33.4235H65.2393V35.8227H65.7526V35.0439H66.1333L66.6816 35.8227H67.2683ZM65.7526 33.8949H66.2625C66.5175 33.8949 66.692 34.0277 66.692 34.2337C66.692 34.4398 66.5174 34.5724 66.2625 34.5724H65.7526V33.8949Z" fill="white"/>
<path d="M70.2244 33.8879V33.4235H68.377V35.8227H70.2244V35.3582H68.8938V34.8309H70.0986V34.3664H68.8938V33.8879H70.2244Z" fill="white"/>
<path d="M72.5657 35.8646C72.9289 35.8646 73.2641 35.7074 73.4981 35.4629L73.1244 35.1277C72.9848 35.2884 72.7857 35.3966 72.5656 35.3966C72.1641 35.3966 71.8218 35.0403 71.8218 34.6213C71.8218 34.2057 72.1641 33.8495 72.5656 33.8495C72.7857 33.8495 72.9847 33.9578 73.1244 34.1185L73.4981 33.7831C73.2641 33.5352 72.9289 33.3816 72.5657 33.3816C71.8777 33.3816 71.291 33.9473 71.291 34.6214C71.291 35.2953 71.8777 35.8646 72.5657 35.8646V35.8646Z" fill="white"/>
<path d="M75.2075 35.8227H75.7245V33.8879H76.4718V33.4235H74.4602V33.8879H75.2075V35.8227Z" fill="white"/>
<path d="M9.31033 19.9034V9.30988C9.31033 6.73867 8.26846 4.41124 6.58346 2.72686C4.89842 1.04249 2.57097 0 -0.000244141 0V10.5935C-0.000244141 15.7352 4.16795 19.9034 9.31031 19.9034V19.9034L9.31033 19.9034Z" fill="#7CA853"/>
<path d="M20.0526 10.5935V5.77368C17.4813 5.77368 15.1539 6.81554 13.4689 8.50054C11.7839 10.1856 10.742 12.5131 10.742 15.0843V27.8791C10.742 28.6701 10.1009 29.3119 9.30991 29.3119V19.91C5.10359 20.2937 1.80981 23.8298 1.80981 28.136C1.80981 29.5635 2.17178 30.9056 2.80895 32.0769C3.17881 32.7568 3.64193 33.3789 4.1806 33.9261H4.17935L10.0706 40L16.0184 33.8676H16.0151C17.4485 32.3823 18.3314 30.3623 18.3314 28.1353C18.3314 23.8036 14.9975 20.251 10.7551 19.9035C15.891 19.8962 20.0526 15.7307 20.0526 10.5935L20.0526 10.5935Z" fill="#7CA853"/>
</svg>
